<?xml version="1.0" encoding="UTF-8" standalone="no"?>
<!-- Created with Inkscape (http://www.inkscape.org/) -->

<svg
   xmlns:dc="http://purl.org/dc/elements/1.1/"
   xmlns:cc="http://creativecommons.org/ns#"
   xmlns:rdf="http://www.w3.org/1999/02/22-rdf-syntax-ns#"
   xmlns:svg="http://www.w3.org/2000/svg"
   xmlns="http://www.w3.org/2000/svg"
   xmlns:xlink="http://www.w3.org/1999/xlink"
   xmlns:sodipodi="http://sodipodi.sourceforge.net/DTD/sodipodi-0.dtd"
   xmlns:inkscape="http://www.inkscape.org/namespaces/inkscape"
   width="315.71677"
   height="229.47757"
   viewBox="0 0 315.71676 229.47756"
   id="svg2"
   version="1.1"
   inkscape:version="0.91 r13725"
   sodipodi:docname="businessman.svg">
  <defs
     id="defs4">
    <linearGradient
       inkscape:collect="always"
       id="linearGradient4272">
      <stop
         style="stop-color:#b0b0b0;stop-opacity:1;"
         offset="0"
         id="stop4274" />
      <stop
         style="stop-color:#e8e5e5;stop-opacity:1"
         offset="1"
         id="stop4276" />
    </linearGradient>
    <linearGradient
       inkscape:collect="always"
       xlink:href="#linearGradient4272"
       id="linearGradient4278"
       x1="247.62015"
       y1="219.45863"
       x2="251.83603"
       y2="156.70863"
       gradientUnits="userSpaceOnUse"
       gradientTransform="matrix(1.0491116,0,0,1.0491116,-10.663912,-15.162874)" />
  </defs>
  <sodipodi:namedview
     id="base"
     pagecolor="#ffffff"
     bordercolor="#666666"
     borderopacity="1.0"
     inkscape:pageopacity="0.0"
     inkscape:pageshadow="2"
     inkscape:zoom="2.0000001"
     inkscape:cx="154.48167"
     inkscape:cy="115.4938"
     inkscape:document-units="px"
     inkscape:current-layer="layer2"
     showgrid="false"
     inkscape:window-width="1366"
     inkscape:window-height="712"
     inkscape:window-x="-4"
     inkscape:window-y="-4"
     inkscape:window-maximized="1"
     fit-margin-left="5"
     fit-margin-right="5"
     fit-margin-top="10"
     fit-margin-bottom="10"
     units="px" />
  <metadata
     id="metadata7">
    <rdf:RDF>
      <cc:Work
         rdf:about="">
        <dc:format>image/svg+xml</dc:format>
        <dc:type
           rdf:resource="http://purl.org/dc/dcmitype/StillImage" />
        <dc:title />
      </cc:Work>
    </rdf:RDF>
  </metadata>
  <g
     inkscape:groupmode="layer"
     id="layer15"
     inkscape:label="Layer 14"
     style="display:inline"
     transform="translate(-85.714283,-307.8487)"
     sodipodi:insensitive="true">
    <path
       style="fill:#ae8149;fill-opacity:1;fill-rule:evenodd;stroke:none;stroke-width:1px;stroke-linecap:butt;stroke-linejoin:miter;stroke-opacity:1"
       d="m 121.66497,502.36936 -30.950687,24.8699 259.845897,0.087 -25.35508,-25.45752 z"
       id="path4340"
       inkscape:connector-curvature="0"
       sodipodi:nodetypes="ccccc" />
  </g>
  <g
     inkscape:groupmode="layer"
     id="layer5"
     inkscape:label="Layer 5"
     style="display:inline"
     transform="translate(-85.714283,-307.8487)"
     sodipodi:insensitive="true">
    <path
       id="path4173"
       style="fill:#454545;fill-opacity:1;fill-rule:evenodd;stroke:none;stroke-width:1px;stroke-linecap:butt;stroke-linejoin:miter;stroke-opacity:1"
       d="m 162.77424,479.72684 c 1.2067,-2.05244 3.39347,-3.39212 2.22564,-7.17149 -1.36942,-1.97836 -1.47948,-3.95671 -0.98917,-5.93505 1.92305,0.37325 3.21608,-3.45359 4.45126,-7.66607 -2.91491,10.0994 -1.02177,15.07018 -0.74187,21.76178 -1.64862,0.41114 -3.29725,-0.2565 -4.94586,-0.98917 z m 38.27839,-95.94519 -6.64479,7.86881 c -11.7158,-0.60251 -23.43159,-0.51671 -35.1474,2.79781 -4.34185,1.26804 -4.37805,4.6889 -3.49725,8.56827 -4.15272,3.328 -5.99569,7.17801 -4.02184,11.89066 -3.83864,2.1525 -2.42822,6.16775 -3.79212,11.41364 -6.40177,-3.13366 -4.19826,7.30101 -9.67231,12.71739 -4.38393,0.30264 -5.66095,2.67654 -6.12019,5.59562 -2.99507,10.40667 -6.68414,14.56742 -10.3169,19.2349 -4.10307,2.19213 -3.94869,7.10611 -6.38814,9.63142 -5.93275,6.14158 -8.7986,12.44239 -6.55169,20.27009 0.74336,2.92396 1.68027,5.71889 4.37157,7.34422 12.30627,-1.44405 13.37272,1.1991 19.23488,2.09836 4.02186,4.69417 8.04369,5.25622 12.06553,6.12019 l 20.1092,-0.69944 58.0544,-4.37157 21.50812,-0.69946 41.6173,-2.7978 -0.52458,-12.41525 c 4.68755,7.10808 13.17105,11.85451 17.21624,14.46603 6.14181,2.29395 8.71173,1.03807 13.13228,-1.68863 4.96045,-3.43781 6.80317,-10.23737 7.77153,-32.18715 -2.15624,-11.65833 -8.04276,-15.85604 -12.5901,-22.73214 l -2.97268,-6.1202 c 1.53119,-2.07183 -0.0767,-3.62047 -1.22403,-5.24588 0.75696,-0.48384 2.57297,0.24266 -1.04919,-5.24587 0.94737,-5.58136 -0.90257,-6.50053 -1.74861,-9.09287 2.57262,-5.5763 -1.35619,-6.50875 -2.97267,-9.09286 1.36894,-8.82578 -1.06922,-12.41683 -3.32239,-16.26222 -22.06777,-5.02174 -26.84196,-3.39211 -37.94519,-4.1967 l -15.56278,-9.09286 z"
       inkscape:connector-curvature="0"
       sodipodi:nodetypes="cccccccccccccccscccccccccccccccccccccc" />
  </g>
  <g
     inkscape:groupmode="layer"
     id="layer6"
     inkscape:label="Layer 6"
     style="display:inline"
     transform="translate(-85.714283,-307.8487)"
     sodipodi:insensitive="true">
    <path
       style="fill:#000000;fill-opacity:1;fill-rule:evenodd;stroke:none;stroke-width:1px;stroke-linecap:butt;stroke-linejoin:miter;stroke-opacity:1"
       d="m 162.03236,400.09846 c 0.71685,17.67468 -0.47494,34.20419 5.68774,55.14636 -6.08387,-6.08994 -11.20612,-13.3338 -16.13663,-20.80777 1.20417,8.238 9.7834,17.2078 13.91099,23.77529 -8.13308,-4.60648 -20.04578,-12.24343 -27.55712,-14.15571 7.45546,4.13671 14.87248,8.50409 21.86937,15.39218 l 2.47294,9.64442 -1.23647,2.22565 -1.48376,-0.24729 c -18.869,-8.8049 -23.905,-1.64863 -35.85751,-2.47295 14.44202,-0.23979 26.76436,-1.78412 33.13729,4.94587 l 5.19316,6.18233 c 1.80065,-0.53027 2.61152,-2.64421 3.26084,-5.01662 -0.67038,-2.75248 -2.29743,-5.71756 -1.04917,-8.04368 1.97004,0.41347 2.94753,-4.46672 4.28414,-7.43165 l 1.92348,-4.89616 c -5.06781,-16.87402 -6.77006,-35.543 -8.41929,-54.24027 z"
       id="path4177"
       inkscape:connector-curvature="0"
       sodipodi:nodetypes="ccccccccccccccccc" />
    <path
       style="fill:#000000;fill-opacity:1;fill-rule:evenodd;stroke:none;stroke-width:1px;stroke-linecap:butt;stroke-linejoin:miter;stroke-opacity:1"
       d="m 124.62926,500.99406 c 7.8462,-9.22937 13.42941,-8.55826 20.09257,-12.61196 -4.6294,4.7593 -12.62312,8.62806 -12.241,14.71395 -2.69589,-0.74826 -5.3557,-1.36633 -7.85157,-2.10199 z"
       id="path4181"
       inkscape:connector-curvature="0"
       sodipodi:nodetypes="cccc" />
    <path
       style="fill:#000000;fill-opacity:1;fill-rule:evenodd;stroke:none;stroke-width:1px;stroke-linecap:butt;stroke-linejoin:miter;stroke-opacity:1"
       d="m 209.01805,481.2106 -20.52533,-40.55607 c 6.10022,14.83748 14.2412,28.99471 18.29969,44.51276 z"
       id="path4185"
       inkscape:connector-curvature="0"
       sodipodi:nodetypes="cccc" />
    <path
       style="fill:#000000;fill-opacity:1;fill-rule:evenodd;stroke:none;stroke-width:1px;stroke-linecap:butt;stroke-linejoin:miter;stroke-opacity:1"
       d="m 203.33031,392.92695 c -6.57809,5.72053 -9.12375,19.50594 -13.35383,29.92248 1.25269,-13.94016 4.21268,-26.93181 11.37549,-37.58856 z"
       id="path4187"
       inkscape:connector-curvature="0"
       sodipodi:nodetypes="cccc" />
    <path
       style="fill:#000000;fill-opacity:1;fill-rule:evenodd;stroke:none;stroke-width:1px;stroke-linecap:butt;stroke-linejoin:miter;stroke-opacity:1"
       d="m 192.20212,436.69783 16.56864,-17.06322 -1.23646,0.2473 -12.11738,11.87006 -7.41878,-4.69856 c 1.98836,3.00134 8.66761,4.29691 4.20398,9.64442 z"
       id="path4191"
       inkscape:connector-curvature="0"
       sodipodi:nodetypes="cccccc" />
    <path
       style="fill:#000000;fill-opacity:1;fill-rule:evenodd;stroke:none;stroke-width:1px;stroke-linecap:butt;stroke-linejoin:miter;stroke-opacity:1"
       d="m 244.13368,500.49946 c 4.49356,-21.16434 14.68865,-43.27895 22.75097,-65.03809 -8.57003,20.11411 -19.91417,39.3035 -24.97662,60.58681 z"
       id="path4193"
       inkscape:connector-curvature="0"
       sodipodi:nodetypes="cccc" />
    <path
       style="fill:#000000;fill-opacity:1;fill-rule:evenodd;stroke:none;stroke-width:1px;stroke-linecap:butt;stroke-linejoin:miter;stroke-opacity:1"
       d="m 260.94961,434.2249 c -2.19604,-3.38707 4.63933,-9.032 7.1715,-13.60112 l -11.37548,11.12819 z"
       id="path4195"
       inkscape:connector-curvature="0"
       sodipodi:nodetypes="cccc" />
    <path
       style="fill:#000000;fill-opacity:1;fill-rule:evenodd;stroke:none;stroke-width:1px;stroke-linecap:butt;stroke-linejoin:miter;stroke-opacity:1"
       d="m 285.43163,487.88751 c -3.09612,-5.47764 -3.65408,-11.3537 -5.58918,-17.76018 -3.12226,-10.33675 -7.05422,-21.65787 -10.23758,-31.94574 5.20818,19.33287 9.09177,35.61708 4.45128,47.72758 -0.73857,1.50282 -2.71311,13.65869 0.74188,13.35382 5.36612,5.69484 7.83844,4.01643 11.37547,2.47294 z"
       id="path4197"
       inkscape:connector-curvature="0"
       sodipodi:nodetypes="csccccc" />
    <path
       style="fill:#000000;fill-opacity:1;fill-rule:evenodd;stroke:none;stroke-width:1px;stroke-linecap:butt;stroke-linejoin:miter;stroke-opacity:1"
       d="m 304.7205,436.20325 2.47292,-3.4621 c -1.505,-0.15006 -2.77762,1.79135 -4.57492,-0.98918 l -1.36011,-1.73106 c -9.60572,-11.58028 -2.74863,-11.22503 0,-13.84842 -3.44239,0.0736 -7.11267,3.10943 -10.26266,-0.61821 -1.51043,-6.11537 1.26501,-12.48881 3.95669,-18.2997 -2.87373,5.34239 -7.29946,8.91009 -7.54244,18.0524 5.83528,6.8352 12.06499,12.88156 17.31052,20.89627 z"
       id="path4199"
       inkscape:connector-curvature="0"
       sodipodi:nodetypes="ccccccccc" />
    <path
       style="fill:#000000;fill-opacity:1;fill-rule:evenodd;stroke:none;stroke-width:1px;stroke-linecap:butt;stroke-linejoin:miter;stroke-opacity:1"
       d="m 169.75221,480.65555 c -1.69442,-11.16663 0.12175,-14.81057 1.57375,-19.23488 0.34824,-1.65365 3.25317,-3.03499 3.54258,2.79033 0.34931,7.03122 -0.21643,16.2778 5.72514,20.64126 l -0.8743,0 c -3.50475,-1.14669 -7.78923,-1.21489 -9.96717,-4.19671 z"
       id="path4203"
       inkscape:connector-curvature="0"
       sodipodi:nodetypes="ccsccc" />
    <path
       style="fill:#000000;fill-opacity:1;fill-rule:evenodd;stroke:none;stroke-width:1px;stroke-linecap:butt;stroke-linejoin:miter;stroke-opacity:1"
       d="m 166.23634,506.6818 c -1.86431,0.65944 -10.82046,1.31888 -19.04157,1.97834 1.98119,-3.94956 4.13568,-7.46592 7.4188,-8.16068 z"
       id="path4209"
       inkscape:connector-curvature="0"
       sodipodi:nodetypes="cccc" />
  </g>
  <g
     inkscape:groupmode="layer"
     id="layer11"
     inkscape:label="Layer 11"
     style="display:inline"
     transform="translate(-85.714283,-307.8487)"
     sodipodi:insensitive="true">
    <path
       style="fill:#e7e4e4;fill-opacity:1;fill-rule:evenodd;stroke:none;stroke-width:1px;stroke-linecap:butt;stroke-linejoin:miter;stroke-opacity:1"
       d="m 206.12363,399.86902 41.61732,-6.99452 c -0.78418,5.79641 0.32583,15.28892 -2.5295,22.83723 -4.90765,12.97379 -6.02006,30.46116 -5.51419,50.0805 l -22.55728,-2.09836 c -2.99979,-19.59413 -3.80902,-33.71188 -11.01635,-63.82485 z"
       id="path4324"
       inkscape:connector-curvature="0"
       sodipodi:nodetypes="ccsccc" />
    <path
       style="fill:#e7e4e4;fill-opacity:1;fill-rule:evenodd;stroke:none;stroke-width:1px;stroke-linecap:butt;stroke-linejoin:miter;stroke-opacity:1"
       d="m 268.49206,421.9839 14.71393,-10.75726 1.8547,1.97835 c -1.96322,6.73325 -4.12545,13.2675 -8.03703,18.05239 -2.42756,1.36653 -4.49078,5.10131 -8.16067,-1.60739 0.22455,-2.3795 0.68152,-4.6416 -0.37093,-7.66609 z"
       id="path4326"
       inkscape:connector-curvature="0"
       sodipodi:nodetypes="cccccc" />
    <path
       style="fill:#e7e4e4;fill-opacity:1;fill-rule:evenodd;stroke:none;stroke-width:1px;stroke-linecap:butt;stroke-linejoin:miter;stroke-opacity:1"
       d="m 169.69845,507.17638 9.89172,-21.76179 -5.27331,-0.85932 c -1.23029,0.48743 -9.38474,2.38018 -19.86513,16.12206 4.88655,3.73184 9.89629,6.47824 15.24672,6.49905 z"
       id="path4328"
       inkscape:connector-curvature="0"
       sodipodi:nodetypes="ccccc" />
  </g>
  <g
     inkscape:groupmode="layer"
     id="layer12"
     inkscape:label="Layer 12"
     style="display:inline"
     transform="translate(-85.714283,-307.8487)"
     sodipodi:insensitive="true">
    <path
       style="fill:#1b477e;fill-opacity:1;fill-rule:evenodd;stroke:none;stroke-width:1px;stroke-linecap:butt;stroke-linejoin:miter;stroke-opacity:1"
       d="m 218.01429,421.72685 5.94534,-6.64478 8.04368,0.69944 5.59561,8.39341 c -1.49688,3.44963 -4.12216,5.54518 -3.49727,11.54093 l 5.94534,26.92885 1.04917,38.81951 -20.98353,0.69945 -5.94532,-18.1857 c -0.30693,-11.68476 5.15586,-31.85645 10.84149,-48.61183 -0.43831,-2.65323 -4.48465,-8.91451 -6.99451,-13.63928 z"
       id="path4333"
       inkscape:connector-curvature="0"
       sodipodi:nodetypes="ccccccccccc" />
  </g>
  <g
     inkscape:groupmode="layer"
     id="layer13"
     inkscape:label="Layer 13"
     style="display:inline"
     transform="translate(-85.714283,-307.8487)"
     sodipodi:insensitive="true">
    <path
       style="fill:#ae8149;fill-opacity:1;fill-rule:evenodd;stroke:none;stroke-width:1px;stroke-linecap:butt;stroke-linejoin:miter;stroke-opacity:1"
       d="m 309.06933,526.16789 -18.50969,-24.08472 -112.06108,0.34457 -20.63702,20.78938 z"
       id="path4336"
       inkscape:connector-curvature="0"
       sodipodi:nodetypes="ccccc" />
  </g>
  <g
     inkscape:groupmode="layer"
     id="layer17"
     inkscape:label="Layer 16"
     style="display:inline"
     transform="translate(-85.714283,-307.8487)"
     sodipodi:insensitive="true">
    <path
       style="fill:#ffffff;fill-opacity:1;fill-rule:evenodd;stroke:none;stroke-width:1px;stroke-linecap:butt;stroke-linejoin:miter;stroke-opacity:1"
       d="m 191.72254,524.10975 57.85159,0.37715 -3.46211,-21.26721 -45.99651,0"
       id="path4348"
       inkscape:connector-curvature="0"
       sodipodi:nodetypes="cccc" />
    <path
       style="fill:#000000;fill-opacity:1;stroke:none;stroke-width:1.20000005;stroke-linejoin:miter;stroke-miterlimit:4;stroke-dasharray:none;stroke-opacity:1"
       id="path4352"
       d="m 207.87147,511.57488 c 1.19866,-0.41952 2.38813,-0.86019 3.5666,-1.33405 0.9493,-0.40245 0.93372,-0.36998 1.84448,-0.86006 0.29647,-0.15954 0.61315,-0.2912 0.87846,-0.49847 0.15538,-0.12138 -0.65684,0.39649 -0.5424,0.23594 0.19967,-0.28016 0.55354,-0.40911 0.82049,-0.62611 0.25164,-0.20458 0.48967,-0.42533 0.73449,-0.63799 0.54806,-0.45178 1.02735,-0.97654 1.54281,-1.46299 0.10069,-0.095 0.19032,-0.20636 0.30917,-0.27739 0.55848,-0.33367 1.11923,-0.6702 1.71483,-0.93191 0.0746,-0.0328 0.15465,0.051 0.23197,0.0764 0.45415,0.43916 0.32879,1.10619 0.56957,1.64386 0.0654,0.044 0.12189,0.10565 0.19615,0.13205 0.46667,0.16576 1.84813,-0.0942 2.37097,-0.15556 0.83052,-0.0669 1.52653,-0.35881 2.17442,0.2942 0.32115,0.44562 0.14268,0.85251 0.7291,0.9979 0.6696,-0.0201 1.32882,-0.16939 1.99887,-0.15896 0.25643,0.0358 0.49261,0.17176 0.75732,0.15798 0.36923,-0.0192 0.77821,-0.15966 1.1333,-0.24717 0.79821,-0.2125 1.59276,-0.40852 2.42175,-0.38275 0.10072,0.0191 0.20493,0.0246 0.30218,0.057 0.0389,0.0129 0.55282,0.27243 0.5844,0.28866 0.33507,0.17208 0.65758,0.32842 1.01089,0.46019 0.77358,0.29279 1.51942,0.0376 2.27999,-0.1519 0.68527,-0.18908 1.39343,-0.23394 2.09979,-0.26588 0.60265,-0.0615 1.24776,0.0978 1.81795,-0.14237 -0.43718,0.24199 -0.87434,0.48396 -1.31153,0.72595 0,0 1.59201,-0.6271 1.59201,-0.6271 l 0,0 c -0.54321,0.31623 -1.08641,0.63245 -1.6296,0.94868 -0.59922,0.14774 -1.225,0.0431 -1.83572,0.0981 -0.69999,0.0364 -1.3982,0.10165 -2.07652,0.28946 -0.78698,0.1928 -1.55221,0.38828 -2.34049,0.0686 -0.62454,-0.24593 -1.20111,-0.65395 -1.86911,-0.75365 -0.81425,-0.003 -1.59762,0.20836 -2.38282,0.40763 -0.72332,0.1725 -1.2049,0.27736 -1.929,0.068 -0.68148,0.0139 -1.35706,0.18188 -2.03886,0.11874 -0.57994,-0.24087 -0.48164,-0.58407 -0.76621,-1.06457 -0.55663,-0.51914 -1.38362,-0.23433 -2.06489,-0.18737 -0.61023,0.0701 -1.92037,0.34915 -2.46855,0.0641 -0.0929,-0.0483 -0.15926,-0.13599 -0.23889,-0.20398 -0.0406,-0.0903 -0.0926,-0.17628 -0.12163,-0.2709 -0.12519,-0.40726 -0.0165,-0.92415 -0.36827,-1.23248 -0.6199,-0.0242 -0.3883,0.0171 1.02036,-0.75598 0.12497,-0.0685 -0.222,0.17919 -0.32762,0.27494 -0.5354,0.48539 -1.01339,1.03184 -1.57769,1.48626 -0.45051,0.39758 -1.05067,0.95403 -1.55172,1.28477 -1.57877,1.04218 -3.21619,2.02386 -4.97777,2.72558 -1.20481,0.48444 -2.41651,0.95559 -3.65075,1.35989 0,0 1.36772,-1.03556 1.36772,-1.03556 z"
       inkscape:connector-curvature="0" />
    <path
       style="fill:#000000;fill-opacity:1;stroke:none;stroke-width:1.20000005;stroke-linejoin:miter;stroke-miterlimit:4;stroke-dasharray:none;stroke-opacity:1"
       id="path4354"
       d="m 202.46958,514.09181 c 1.30979,0.0491 2.61739,-0.007 3.92147,-0.12906 1.12465,-0.13457 2.2288,-0.47126 3.36653,-0.33787 0.54444,0.11475 0.64467,0.53262 0.7826,0.99731 0.0334,0.0457 0.0558,0.10201 0.10016,0.13724 0.52891,0.42048 2.42151,0.13803 3.00225,0.0735 1.37653,-0.14551 2.80492,-0.54163 4.16443,-0.11868 0.86471,0.32748 1.78711,0.31167 2.69397,0.24256 1.23842,-0.23888 2.49708,-0.31441 3.7528,-0.40109 1.43905,-0.13313 2.87544,-0.29369 4.31662,-0.40265 0.70091,-0.006 1.3789,-0.0628 2.03766,-0.30459 1.02798,-0.10321 2.11632,0.50964 3.04764,0.88619 1.17362,0.47055 2.30146,1.04957 3.51543,1.41293 0.58877,0.1457 1.21197,0.28525 1.75002,-0.0599 -1.36458,0.74611 -1.57365,1.12091 -1.17556,0.52514 0,0 1.55661,-0.69946 1.55661,-0.69946 l 0,0 c -0.34807,0.8182 -0.0278,0.18989 -1.71241,1.24247 -0.59128,0.24162 -1.21716,0.11386 -1.81428,-0.058 -1.19801,-0.39555 -2.31383,-0.98771 -3.48722,-1.44696 -0.90955,-0.35731 -2.0271,-0.9685 -3.02645,-0.75455 -0.66321,0.21326 -1.3523,0.22994 -2.04429,0.25446 -1.43153,0.0976 -2.85879,0.24441 -4.28696,0.38132 -1.26052,0.10103 -2.52105,0.20523 -3.7696,0.41246 -0.92973,0.0588 -1.87184,0.0642 -2.75594,-0.27358 -1.32851,-0.39132 -2.72648,-0.005 -4.06695,0.13162 -0.70095,0.0763 -2.57185,0.38627 -3.17151,-0.17446 -0.0548,-0.0511 -0.0848,-0.12359 -0.12729,-0.18539 -0.12371,-0.40948 -0.16618,-0.76144 -0.66587,-0.83464 -1.11653,-0.10758 -2.20274,0.22581 -3.30826,0.33632 -1.32487,0.11604 -2.65139,0.15948 -3.98127,0.15409 0,0 1.38567,-1.00675 1.38567,-1.00675 z"
       inkscape:connector-curvature="0" />
    <path
       style="fill:#000000;fill-opacity:1;stroke:none;stroke-width:1.20000005;stroke-linejoin:miter;stroke-miterlimit:4;stroke-dasharray:none;stroke-opacity:1"
       id="path4356"
       d="m 210.84918,512.11257 c 0.62066,0.007 1.24136,0.006 1.86204,0.007 0.89866,0.002 1.7973,0.003 2.69595,0.007 1.31195,0.0315 2.62692,-0.0402 3.93738,0.0329 0.59814,-0.0424 0.94606,0.43723 1.44166,0.63752 0.10289,0.0416 0.21263,0.0637 0.31895,0.0954 1.85551,0.324 3.73692,0.15645 5.58879,-0.0929 1.28966,-0.21794 2.58876,-0.38196 3.89587,-0.43796 0.7915,-0.15078 1.55164,-0.40371 2.35034,-0.53813 0.78316,-0.12414 1.57453,-0.17628 2.36634,-0.19829 0.68312,-0.0127 1.36643,-0.003 2.04958,0.002 1.06574,0.009 2.1315,0.008 3.19726,0.007 0,0 -1.3495,0.98037 -1.3495,0.98037 l 0,0 c -1.06902,-0.002 -2.13803,-0.006 -3.20704,0.002 -0.68745,0.003 -1.37499,0.002 -2.06235,0.0132 -0.78161,0.0233 -1.56312,0.0754 -2.33509,0.20595 -0.80077,0.1493 -1.56652,0.43653 -2.37495,0.5282 -1.28272,0.0507 -2.55873,0.19879 -3.82576,0.40429 -1.88536,0.23716 -3.80941,0.41065 -5.69537,0.079 -0.11506,-0.0399 -0.23387,-0.0702 -0.34516,-0.11959 -0.46768,-0.20746 -0.8067,-0.62382 -1.37513,-0.58857 -1.30845,-0.0725 -2.62092,-0.0129 -3.93076,-0.0262 -0.90399,0.002 -1.80798,0.005 -2.71195,0.007 -0.62642,0.002 -1.25285,-0.002 -1.87922,0.007 0,0 1.38812,-1.00854 1.38812,-1.00854 z"
       inkscape:connector-curvature="0" />
  </g>
  <g
     inkscape:groupmode="layer"
     id="layer10"
     inkscape:label="Layer 10"
     style="display:inline"
     transform="translate(-85.714283,-307.8487)"
     sodipodi:insensitive="true">
    <path
       style="display:inline;fill:#a16155;fill-opacity:1;fill-rule:evenodd;stroke:none;stroke-width:1px;stroke-linecap:butt;stroke-linejoin:miter;stroke-opacity:1"
       d="m 206.67119,399.48304 c 0,0 11.27986,5.52837 15.71467,7.55534 3.19319,1.2661 4.3014,-0.23219 6.11886,-0.26053 3.36374,-0.0525 2.69095,-1.13393 4.72263,-1.83782 6.77545,-4.55511 12.86823,-10.01472 12.86823,-10.01472 -0.0997,2.7869 0.10201,4.01039 -0.91553,5.72135 -12.09254,18.34257 -24.80256,18.52998 -38.50886,-1.16362 z"
       id="path4154-5"
       inkscape:connector-curvature="0"
       sodipodi:nodetypes="ccscccc" />
  </g>
  <g
     inkscape:groupmode="layer"
     id="layer2"
     inkscape:label="Layer 2"
     style="display:inline"
     transform="translate(-85.714283,-307.8487)"
     sodipodi:insensitive="true">
    <path
       style="fill:#e2c1af;fill-opacity:1;fill-rule:evenodd;stroke:none;stroke-width:1px;stroke-linecap:butt;stroke-linejoin:miter;stroke-opacity:1"
       d="m 205.15075,396.28889 c 4.23464,5.13208 9.23887,10.49272 14.39817,12.85083 3.19319,0.89111 4.23254,0.28827 6.03921,0.0885 3.30124,-0.365 4.63902,0.25869 6.67069,-0.44521 8.14806,-5.47792 12.0727,-11.56084 15.48213,-16.60798 l 2.68946,-15.13847 c 0.96871,0.16227 1.31919,0.29153 2.2879,-2.42022 0.31864,-6.37737 3.54845,-10.35781 1.45813,-18.99358 -0.46478,-1.97713 -1.22471,-3.47315 -3.55834,-2.40396 l -4.27605,-12.27851 -20.98352,-16.08737 -15.0382,0 -16.43709,19.58461 -1.39889,17.13655 c -1.39908,0.539 -2.87714,-0.45306 -3.14753,3.32238 1.39512,8.22947 5.05489,10.09118 6.35506,17.20533 1.29362,2.03821 3.35707,2.6125 4.18791,2.33686 2.30091,5.44552 3.43489,7.79919 5.27096,11.85022 z"
       id="path4154"
       inkscape:connector-curvature="0"
       sodipodi:nodetypes="ccscccccccccccccccc" />
    <path
       style="fill:#e2c1af;fill-opacity:1;fill-rule:evenodd;stroke:none;stroke-width:1px;stroke-linecap:butt;stroke-linejoin:miter;stroke-opacity:1"
       d="m 169.3275,507.17638 c -4.88824,-12.47463 6.38627,-20.91689 10.75725,-21.88545 l 5.8114,0.86553 c 4.39867,-4.09251 8.67058,-9.00904 14.34299,-4.82221 5.31587,-0.66958 7.18305,-0.65758 11.3301,1.90148 1.72107,1.06204 3.73328,1.2499 5.48584,2.0552 0.98694,0.45294 2.97004,5.2669 2.5479,8.99662 -0.0769,0.67916 1.06482,1.88182 1.1615,2.62616 0.73963,2.22788 2.41007,3.52496 0.37094,8.53162 l -2.34928,0 c -0.44926,1.66922 -0.66189,3.50746 -3.33847,3.58574 l -1.73104,0 c -1.02529,3.06529 -3.90205,2.1835 -5.81139,2.59658 -0.0734,1.82494 -0.98049,1.64919 -2.34929,1.85471 -7.81715,0.11032 -18.50466,1.422 -23.61649,-0.98918 -5.11183,-2.41119 -1.99279,-3.29304 -12.61196,-5.3168 z"
       id="path4211"
       inkscape:connector-curvature="0"
       sodipodi:nodetypes="ccccscsccccccczc" />
  </g>
  <g
     inkscape:groupmode="layer"
     id="layer16"
     inkscape:label="Layer 15"
     style="display:inline"
     transform="translate(-85.714283,-307.8487)"
     sodipodi:insensitive="true">
    <path
       style="fill:#99a4c3;fill-opacity:1;fill-rule:evenodd;stroke:none;stroke-width:1px;stroke-linecap:butt;stroke-linejoin:miter;stroke-opacity:1"
       d="m 215.57132,489.37128 -11.00455,-19.28887 c -2.05301,-0.6996 -2.15586,0.4959 -2.59657,1.73106 l 8.90255,14.0957 c 1.56245,-0.146 2.88011,1.49239 4.69857,3.46211 z"
       id="path4343"
       inkscape:connector-curvature="0"
       sodipodi:nodetypes="ccccc" />
  </g>
  <g
     inkscape:groupmode="layer"
     id="layer4"
     inkscape:label="Layer 4"
     style="display:inline"
     transform="translate(-85.714283,-307.8487)"
     sodipodi:insensitive="true">
    <path
       style="fill:#a16155;fill-opacity:1;fill-rule:evenodd;stroke:none;stroke-width:1px;stroke-linecap:butt;stroke-linejoin:miter;stroke-opacity:1"
       d="m 216.89268,363.90215 c -0.84415,1.02397 0.45266,6.10935 -1.14206,5.63346 -2.99447,-0.8936 -7.70533,3.03851 -14.77043,-3.98726 0.99088,-2.8568 1.98177,-2.44353 2.97267,-3.21995 5.11008,-1.46746 8.66008,0.96535 12.93982,1.57375 z"
       id="path4160"
       inkscape:connector-curvature="0"
       sodipodi:nodetypes="csccc" />
    <path
       style="fill:#a16155;fill-opacity:1;fill-rule:evenodd;stroke:none;stroke-width:1px;stroke-linecap:butt;stroke-linejoin:miter;stroke-opacity:1"
       d="m 225.63582,362.3284 c 6.2082,-3.7054 7.56833,-3.16876 10.31689,-3.84698 3.02154,-0.84168 5.46608,0.87111 6.3375,2.59293 3.45786,-0.0488 -6.78161,6.86893 -12.98442,7.95998 -1.30838,0.23013 -2.66681,-4.89144 -3.66997,-6.70593 z"
       id="path4162"
       inkscape:connector-curvature="0"
       sodipodi:nodetypes="cccsc" />
    <path
       style="fill:#a16155;fill-opacity:1;fill-rule:evenodd;stroke:none;stroke-width:1px;stroke-linecap:butt;stroke-linejoin:miter;stroke-opacity:1"
       d="m 217.92061,504.95074 c -7.3274,-5.42698 -14.35188,-10.39962 -21.01992,-14.83759 l 11.74642,5.81139 z"
       id="path4244"
       inkscape:connector-curvature="0"
       sodipodi:nodetypes="cccc" />
    <path
       style="fill:#a16155;fill-opacity:1;fill-rule:evenodd;stroke:none;stroke-width:1px;stroke-linecap:butt;stroke-linejoin:miter;stroke-opacity:1"
       d="m 214.70579,509.40202 c -6.12994,1.70989 -13.24278,-2.46001 -21.01991,-10.6336 l 11.87007,8.2843 z"
       id="path4248"
       inkscape:connector-curvature="0"
       sodipodi:nodetypes="cccc" />
    <path
       style="fill:#a16155;fill-opacity:1;fill-rule:evenodd;stroke:none;stroke-width:1px;stroke-linecap:butt;stroke-linejoin:miter;stroke-opacity:1"
       d="m 208.77076,511.62766 c -6.88557,1.18817 -10.89988,-1.21273 -13.84842,-4.94586 l 5.68775,3.4621 z"
       id="path4252"
       inkscape:connector-curvature="0"
       sodipodi:nodetypes="cccc" />
    <path
       style="fill:#a16155;fill-opacity:1;fill-rule:evenodd;stroke:none;stroke-width:1px;stroke-linecap:butt;stroke-linejoin:miter;stroke-opacity:1"
       d="m 218.36402,371.3664 c 1.27104,1.22311 1.55333,4.91809 1.92348,8.39341 -1.08254,0.91732 -3.13068,1.67371 -2.97266,2.7978 1.51802,1.55735 2.3039,2.39763 4.10952,2.5055 0.76919,0.0461 2.71747,-0.38616 3.23471,-0.14485 1.661,-1.19588 2.21513,-1.54365 4.10928,-1.57377 l -0.52459,1.22404 c -2.71887,-0.0376 -1.23714,1.15266 -3.32239,1.74862 -1.30932,0.66998 -2.61864,0.63814 -3.92796,0.14351 -1.48934,-1.26103 -2.74902,-0.90477 -4.90262,-1.28011 -0.68636,-1.07996 -0.80333,-2.88682 0.34974,-4.1967 3.34298,-1.08296 1.47364,-6.26133 1.92349,-9.61745 z"
       id="path4301"
       inkscape:connector-curvature="0"
       sodipodi:nodetypes="cccscccccccc" />
    <path
       style="fill:#a16155;fill-opacity:1;fill-rule:evenodd;stroke:none;stroke-width:1px;stroke-linecap:butt;stroke-linejoin:miter;stroke-opacity:1"
       d="m 215.81997,396.11513 c 4.7862,0.88115 14.30798,0.38952 18.05239,-1.85469 -0.49537,-1.59027 -8.87012,0.15764 -10.63359,-0.61823 -4.51491,1.11281 -6.18063,1.36011 -7.4188,2.47292 z"
       id="path4303"
       inkscape:connector-curvature="0"
       sodipodi:nodetypes="cccc" />
  </g>
  <g
     inkscape:groupmode="layer"
     id="layer3"
     inkscape:label="Layer 3"
     style="display:inline"
     transform="translate(-85.714283,-307.8487)"
     sodipodi:insensitive="true">
    <path
       style="fill:#5f4541;fill-opacity:1;fill-rule:evenodd;stroke:none;stroke-width:0.48961538px;stroke-linecap:butt;stroke-linejoin:miter;stroke-opacity:1"
       d="m 197.13804,375.12184 c -1.34699,-3.95294 -3.85596,-9.67728 -5.6391,-11.01332 -2.73208,-1.71393 -2.26067,-10.29248 -3.3871,-15.44704 0.11497,-9.38249 6.17764,-17.4952 14.93525,-23.89651 4.93379,-3.60632 -0.4988,-2.7257 0.64422,-3.92396 6.59805,-3.2547 9.5193,-1.29643 14.96123,-1.60742 -0.0782,-0.65944 -2.53532,-0.70687 -3.82683,-1.36632 3.32321,-0.0416 6.95873,-0.21557 8.64904,2.3555 3.10192,-0.29808 6.03712,-1.28921 9.39715,-1.11282 3.36003,0.17638 5.38293,2.0701 7.51501,2.74402 l -2.3405,0.18107 c 5.2336,2.24833 8.03364,7.47099 11.27048,12.15979 l -1.81848,-0.24109 c 4.9664,4.56597 4.11623,13.80294 5.77517,20.64277 -3.71667,2.54324 -1.21016,6.64228 -1.60739,10.01538 -2.5541,4.54054 -3.18019,-5.57176 -4.69858,-8.90255 -1.62266,-7.0442 -3.70145,-12.67899 -7.54245,-15.50082 -5.73507,-4.05048 -9.63486,-5.65825 -13.97205,-5.5191 -3.56395,-0.39453 -7.81081,2.79833 -9.74945,6.35097 -1.091,-1.6639 -0.16279,-3.31172 0.27729,-4.96343 -1.53064,0.85925 -4.42566,2.00211 -5.02707,4.02291 -0.81141,-0.7313 -0.57579,-1.24904 0.21365,-2.89509 -8.36682,0.15827 -11.19491,6.09252 -14.52408,10.71482 -0.26176,5.3638 -1.55095,11.13858 -0.74188,16.07405 1.6926,5.17276 1.01257,7.63394 1.23647,11.12819 z"
       id="path4157"
       inkscape:connector-curvature="0"
       sodipodi:nodetypes="cccscccczcccccccccccccccc" />
  </g>
  <g
     inkscape:groupmode="layer"
     id="layer7"
     inkscape:label="Layer 7"
     style="display:inline"
     transform="translate(-85.714283,-307.8487)"
     sodipodi:insensitive="true">
    <path
       style="fill:#646464;fill-opacity:1;fill-rule:evenodd;stroke:none;stroke-width:1px;stroke-linecap:butt;stroke-linejoin:miter;stroke-opacity:1"
       d="m 253.65446,395.39988 -3.4621,1.36012 -5.93503,-10.8809 5.3168,-25.96578 3.83304,-0.61824 4.20398,11.99373 z"
       id="path4255"
       inkscape:connector-curvature="0"
       sodipodi:nodetypes="ccccccc" />
    <path
       style="fill:#202020;fill-opacity:1;fill-rule:evenodd;stroke:none;stroke-width:1px;stroke-linecap:butt;stroke-linejoin:miter;stroke-opacity:1"
       d="m 253.40717,395.39988 -5.68775,-10.63359 5.19316,-24.11109 c -2.53298,8.31582 -3.93455,20.30878 -7.66608,24.72931 2.72022,-0.17122 5.44044,6.60273 8.16067,10.01537 z"
       id="path4299"
       inkscape:connector-curvature="0"
       sodipodi:nodetypes="ccccc" />
  </g>
  <g
     inkscape:groupmode="layer"
     id="layer8"
     inkscape:label="Layer 8"
     style="display:inline"
     transform="translate(-85.714283,-307.8487)"
     sodipodi:insensitive="true">
    <path
       style="display:inline;fill:#e2c1af;fill-opacity:1;fill-rule:evenodd;stroke:none;stroke-width:1px;stroke-linecap:butt;stroke-linejoin:miter;stroke-opacity:1"
       d="m 263.54619,409.00101 c -6.12109,-3.07221 -3.84584,-13.65693 -4.20399,-21.88545 -2.69342,-1.03287 -4.26691,-2.5137 -5.3168,-4.20397 -1.52227,-2.24761 -0.87332,-5.58082 -0.49457,-8.77891 0.4451,-0.60179 1.28699,-0.0132 0.49457,-4.32763 3.60005,-7.87019 6.53896,-8.16976 7.6661,-9.39714 3.74314,-0.72514 10.46874,8.40796 15.70311,12.61194 0.94242,1.74729 3.78121,3.20574 1.73105,7.04786 -1.73193,10.76452 -0.0959,16.23649 0.24729,23.74014 l 3.70939,7.66608 c -1.96133,5.22718 -4.79815,8.70338 -8.40796,10.6336 -1.78289,0.28814 -2.53326,1.75631 -6.42961,-0.37093 -0.37916,-5.03657 -2.36011,-9.00526 -4.69858,-12.73559 z"
       id="path4230"
       inkscape:connector-curvature="0"
       sodipodi:nodetypes="ccccccccccccc" />
  </g>
  <g
     inkscape:groupmode="layer"
     id="layer9"
     inkscape:label="Layer 9"
     transform="translate(-85.714283,-307.8487)"
     sodipodi:insensitive="true"
     style="display:inline">
    <path
       style="display:inline;fill:#a16155;fill-opacity:1;fill-rule:evenodd;stroke:none;stroke-width:1px;stroke-linecap:butt;stroke-linejoin:miter;stroke-opacity:1"
       d="m 261.1969,385.75544 c -1.41154,-1.83391 -3.12229,-4.26623 -5.19316,-7.41879 2.30807,2.2387 4.61614,3.59171 6.92421,2.22564 -3.95793,1.99113 -1.62077,3.49801 -1.73105,5.19315 z"
       id="path4234"
       inkscape:connector-curvature="0"
       sodipodi:nodetypes="cccc" />
    <path
       style="display:inline;fill:#a16155;fill-opacity:1;fill-rule:evenodd;stroke:none;stroke-width:1px;stroke-linecap:butt;stroke-linejoin:miter;stroke-opacity:1"
       d="m 267.87381,376.35832 -11.37548,-4.45128 4.82222,0.49458 z"
       id="path4238"
       inkscape:connector-curvature="0"
       sodipodi:nodetypes="cccc" />
    <path
       style="display:inline;fill:#a16155;fill-opacity:1;fill-rule:evenodd;stroke:none;stroke-width:1px;stroke-linecap:butt;stroke-linejoin:miter;stroke-opacity:1"
       d="m 272.57239,374.13268 c -4.57493,-2.47293 -9.14985,-7.10998 -13.72477,-7.4188 l 2.59658,-2.22564 z"
       id="path4242"
       inkscape:connector-curvature="0"
       sodipodi:nodetypes="cccc" />
  </g>
  <g
     inkscape:groupmode="layer"
     id="layer14"
     inkscape:label="Layer 18"
     style="display:inline"
     sodipodi:insensitive="true"
     transform="translate(0,2.8190394e-6)">
    <path
       style="fill:#b0b0b0;fill-opacity:1;fill-rule:evenodd;stroke:none;stroke-width:1px;stroke-linecap:butt;stroke-linejoin:miter;stroke-opacity:1"
       d="m 225.64848,191.75085 -36.06321,-0.26228 c -1.76334,-0.0128 -2.65311,0.0563 -2.65909,1.32907 l 0.27022,1.23717 12.87998,20.16899 c 1.10316,1.96202 3.68097,3.76958 4.62314,3.75709 l 83.65928,0 c 1.96652,-0.007 2.8776,-1.99191 4.07123,-3.55232 l -9.34269,-6.41649 z"
       id="path4192"
       inkscape:connector-curvature="0"
       sodipodi:nodetypes="cscccccccc" />
  </g>
  <g
     inkscape:groupmode="layer"
     id="layer19"
     inkscape:label="Layer 20"
     style="display:inline"
     sodipodi:insensitive="true"
     transform="translate(0,2.8190394e-6)">
    <path
       style="display:inline;fill:#2b2a2a;fill-opacity:1;fill-rule:evenodd;stroke:none;stroke-width:0.74841416px;stroke-linecap:butt;stroke-linejoin:miter;stroke-opacity:1"
       d="m 214.1525,215.32649 c -2.2327,0.04 -3.99358,2.79457 -3.19505,2.78632 l 72.90578,0 c 1.66674,-0.005 -1.05235,-2.80818 -2.87496,-2.80818 z"
       id="path4192-5"
       inkscape:connector-curvature="0"
       sodipodi:nodetypes="ccccc" />
    <path
       style="fill:#ededed;fill-opacity:1;fill-rule:evenodd;stroke:none;stroke-width:1px;stroke-linecap:butt;stroke-linejoin:miter;stroke-opacity:1"
       d="m 201.51891,213.91333 -13.60896,-20.94662 c -0.50349,-0.943 1.09864,-1.13788 1.79588,-1.13788 l 14.04245,-0.022 z"
       id="path4226"
       inkscape:connector-curvature="0"
       sodipodi:nodetypes="ccccc" />
    <path
       id="path4261"
       style="fill:#b0b0b0;fill-opacity:1;fill-rule:evenodd;stroke:none;stroke-width:1px;stroke-linecap:butt;stroke-linejoin:miter;stroke-opacity:1"
       d="m 200.57331,196.32863 -2.82825,0 1.94732,2.59641 2.85141,0.005 z m -0.93677,9.38883 -2.7355,-4.03373 2.82824,0 2.82824,4.03373 z m -3.65334,-5.26238 -2.7355,-4.03373 2.82823,0 2.82825,4.03373 z m 3.29189,6.6765 -7.69652,-11.63752 15.0685,0 z"
       inkscape:connector-curvature="0" />
  </g>
  <g
     inkscape:groupmode="layer"
     id="layer1"
     inkscape:label="Layer 17"
     style="display:inline"
     sodipodi:insensitive="true"
     transform="translate(0,2.8190394e-6)">
    <path
       style="fill:url(#linearGradient4278);fill-opacity:1;fill-rule:evenodd;stroke:none;stroke-width:1px;stroke-linecap:butt;stroke-linejoin:miter;stroke-opacity:1"
       d="m 204.10793,215.35266 c -3.4611,0 -6.01581,-4.74467 -5.19284,-8.68472 l 11.11433,-58.19217 c 0.36526,-2.31431 4.66597,-5.1292 7.38652,-5.1292 l 87.5814,0 c 2.79363,0 6.29016,4.03083 5.64058,6.6447 l -14.54258,58.16033 c -0.76563,3.47203 -2.82617,7.30971 -6.32809,7.30971 z"
       id="path4188"
       inkscape:connector-curvature="0"
       sodipodi:nodetypes="ccccccccc" />
  </g>
  <g
     inkscape:groupmode="layer"
     id="layer18"
     inkscape:label="Layer 19"
     style="display:inline"
     sodipodi:insensitive="true"
     transform="translate(0,2.8190394e-6)">
    <path
       style="fill:#ededed;fill-opacity:1;fill-rule:evenodd;stroke:none;stroke-width:1px;stroke-linecap:butt;stroke-linejoin:miter;stroke-opacity:1"
       d="m 200.77121,210.93577 c -0.51236,-1.39781 -0.68106,-2.97733 -0.37477,-4.4437 L 211.3438,149.1741 c 0.35977,-2.27954 4.59588,-5.05214 7.27556,-5.05214 l 86.2657,0 c 1.71604,0 2.84893,1.21627 4.27291,2.93748 -30.26899,1.37409 -60.27931,1.28938 -91.23636,-0.43285 -1.74337,0.0745 -4.10741,1.81395 -4.50789,3.37604 -3.08326,21.44197 -7.36766,41.68279 -12.64251,60.93314 z"
       id="path4188-5"
       inkscape:connector-curvature="0"
       sodipodi:nodetypes="ccccccccc" />
    <path
       style="fill:#918c8c;fill-opacity:1;fill-rule:evenodd;stroke:none;stroke-width:1px;stroke-linecap:butt;stroke-linejoin:miter;stroke-opacity:1"
       d="m 290.56226,215.09358 -87.33854,0 -1.31139,-1.18025 c 29.64995,-0.94725 58.74949,-1.8466 87.36104,-0.37091 5.84252,0.16642 8.01676,-18.73143 11.24452,-28.10603 l 0.6101,-0.57001 -6.0026,25.49057 c -0.65786,1.43443 -2.74883,4.55878 -4.56313,4.73663 z"
       id="path4280"
       inkscape:connector-curvature="0"
       sodipodi:nodetypes="cccccccc" />
  </g>
</svg>
