<?xml version="1.0" encoding="UTF-8" standalone="no"?>
<!-- Created with Inkscape (http://www.inkscape.org/) -->

<svg
   xmlns:dc="http://purl.org/dc/elements/1.1/"
   xmlns:cc="http://creativecommons.org/ns#"
   xmlns:rdf="http://www.w3.org/1999/02/22-rdf-syntax-ns#"
   xmlns:svg="http://www.w3.org/2000/svg"
   xmlns="http://www.w3.org/2000/svg"
   xmlns:sodipodi="http://sodipodi.sourceforge.net/DTD/sodipodi-0.dtd"
   xmlns:inkscape="http://www.inkscape.org/namespaces/inkscape"
   width="122.96289"
   height="222.05014"
   viewBox="0 0 122.96289 222.05014"
   id="svg2"
   version="1.1"
   inkscape:version="0.91 r13725"
   sodipodi:docname="pic1-6.svg">
  <defs
     id="defs4" />
  <sodipodi:namedview
     id="base"
     pagecolor="#ffffff"
     bordercolor="#666666"
     borderopacity="1.0"
     inkscape:pageopacity="0.0"
     inkscape:pageshadow="2"
     inkscape:zoom="2"
     inkscape:cx="-7.6840265"
     inkscape:cy="115.80607"
     inkscape:document-units="px"
     inkscape:current-layer="layer1"
     showgrid="false"
     units="px"
     inkscape:window-width="1366"
     inkscape:window-height="712"
     inkscape:window-x="-4"
     inkscape:window-y="-4"
     inkscape:window-maximized="1"
     fit-margin-left="5"
     fit-margin-right="5"
     fit-margin-top="10"
     fit-margin-bottom="10" />
  <metadata
     id="metadata7">
    <rdf:RDF>
      <cc:Work
         rdf:about="">
        <dc:format>image/svg+xml</dc:format>
        <dc:type
           rdf:resource="http://purl.org/dc/dcmitype/StillImage" />
        <dc:title />
      </cc:Work>
    </rdf:RDF>
  </metadata>
  <g
     inkscape:groupmode="layer"
     id="layer2"
     inkscape:label="Layer 2"
     style="display:inline"
     sodipodi:insensitive="true"
     transform="translate(-85.073891,-51.213473)">
    <path
       style="fill:#222222;fill-opacity:1;fill-rule:evenodd;stroke:none;stroke-width:1px;stroke-linecap:butt;stroke-linejoin:miter;stroke-opacity:1"
       d="m 202.91984,257.27293 c -7.74083,5.16549 -13.83262,3.1164 -20.46564,3.4353 -2.55754,-0.0433 -3.05831,-0.0303 -10.53973,-0.20807 -1.32215,-4.26797 0.92427,-7.7859 1.67554,-11.61807 5.51851,4.67548 7.30621,-2.21708 10.73515,-4.02073 2.57355,2.98096 5.16851,5.94163 8.81137,7.91012 3.27302,1.25847 6.30729,-0.5209 7.88571,0.85458 1.30486,1.04145 1.98438,2.09583 1.8976,3.64687 z"
       id="path4148"
       inkscape:connector-curvature="0"
       sodipodi:nodetypes="cccccccc" />
    <path
       style="display:inline;fill:#222222;fill-opacity:1;fill-rule:evenodd;stroke:none;stroke-width:1px;stroke-linecap:butt;stroke-linejoin:miter;stroke-opacity:1"
       d="m 114.27999,263.26362 c -9.12615,-1.82106 -11.98476,-7.57751 -16.900506,-12.04228 -1.77788,-1.83903 -2.141138,-2.18396 -7.305593,-7.59984 2.083011,-3.9528 6.159025,-4.85188 9.400007,-7.03041 0.596122,7.20821 6.733982,3.59854 10.433962,4.74779 -0.28801,3.92766 -0.54667,7.85606 0.63731,11.82389 1.42449,3.20425 4.82825,4.09158 4.97175,6.18031 0.1863,1.65908 -0.0788,2.88515 -1.23693,3.92054 z"
       id="path4148-4"
       inkscape:connector-curvature="0"
       sodipodi:nodetypes="cccccccc" />
  </g>
  <g
     inkscape:groupmode="layer"
     id="layer13"
     inkscape:label="Layer 13"
     style="display:inline"
     sodipodi:insensitive="true"
     transform="translate(-85.073891,-51.213473)">
    <path
       style="display:inline;fill:#c9c9c9;fill-opacity:1;fill-rule:evenodd;stroke:none;stroke-width:1px;stroke-linecap:butt;stroke-linejoin:miter;stroke-opacity:1"
       d="m 114.27999,263.26362 c -9.12615,-1.82106 -11.98476,-7.57751 -16.900506,-12.04228 -1.77788,-1.83903 -2.141138,-2.18396 -7.305593,-7.59984 0.56507,-1.0723 1.276805,-1.91987 2.07875,-2.62922 2.471174,6.16205 17.983219,20.39744 23.417299,20.90304 0.97246,0.0905 -0.97064,0.8689 -1.28995,1.3683 z"
       id="path4148-4-0"
       inkscape:connector-curvature="0"
       sodipodi:nodetypes="ccccsc" />
    <path
       style="display:inline;fill:#c9c9c9;fill-opacity:1;fill-rule:evenodd;stroke:none;stroke-width:1px;stroke-linecap:butt;stroke-linejoin:miter;stroke-opacity:1"
       d="m 202.77184,257.19266 c -7.74083,5.16548 -13.83262,3.1164 -20.46564,3.43525 -2.55754,-0.0432 -3.05831,-0.0303 -10.53971,-0.20805 -0.35859,-1.15781 -0.45473,-2.26037 -0.38923,-3.32904 6.1046,2.60986 27.13922,1.70715 31.3392,-1.77783 0.75139,-0.62392 -0.072,1.30074 0.0554,1.87967 z"
       id="path4148-4-0-6"
       inkscape:connector-curvature="0"
       sodipodi:nodetypes="ccccsc" />
  </g>
  <g
     inkscape:groupmode="layer"
     id="layer3"
     inkscape:label="Layer 3"
     style="display:inline"
     sodipodi:insensitive="true"
     transform="translate(-85.073891,-51.213473)">
    <path
       style="fill:#3a6a84;fill-opacity:1;fill-rule:evenodd;stroke:none;stroke-width:1px;stroke-linecap:butt;stroke-linejoin:miter;stroke-opacity:1"
       d="m 186.68428,202.99716 c -2.34845,8.41061 0.80758,12.39181 -1.33246,23.18461 -1.44436,5.44834 4.89898,15.32757 1.79041,20.70215 -2.62574,-5.54458 -10.23426,0.8388 -15.87226,1.7339 1.77249,-6.30121 1.09885,-6.32356 2.35531,-18.52318 0.85417,-7.88729 -3.91915,-13.64344 -2.22744,-26.5206 m 0,0 -17.11166,-16.02196 c -1.82137,-1.81388 -2.65372,-1.66188 -3.71295,-0.91866 -3.53905,7.61926 -1.96254,18.16359 -7.27318,26.48333 -0.55442,4.42371 -5.66751,6.31308 -5.76433,6.62491 -7.44885,3.52917 -10.42949,8.05951 -19.26065,14.21869 -2.85827,1.89923 -1.76465,1.22696 -3.37575,3.97121 -0.6961,1.39987 -2.71225,2.45361 -2.71225,2.45361 -0.0491,2.69817 0.16314,3.32201 -1.75198,5.99409 -2.40055,-3.52872 -10.923604,-4.92309 -11.104397,-11.09721 1.108977,-4.19562 5.729837,-4.96845 9.058877,-8.66614 7.82749,-13.41784 12.82468,-11.53196 16.91296,-14.41798 3.31702,-1.97513 3.29394,-4.58899 3.66298,-7.64231 0.76228,-8.5164 -1.57504,-14.52131 2.24927,-23.74611 -1.65702,-8.91347 1.85275,-13.46152 1.47884,-18.55787 7.40255,-1.17041 16.42592,-2.79865 28.03977,-0.67539 l 0.98591,4.20652 c 12.5291,14.04849 18.60993,19.88504 24.05311,29.68909 1.749,3.51297 1.25467,5.46647 0.91187,7.5253"
       id="path4151"
       inkscape:connector-curvature="0"
       sodipodi:nodetypes="ccccccccccccccccccccccccc" />
  </g>
  <g
     inkscape:groupmode="layer"
     id="layer11"
     inkscape:label="Layer 11"
     sodipodi:insensitive="true"
     style="display:inline"
     transform="translate(-85.073891,-51.213473)">
    <path
       style="fill:#043047;fill-opacity:1;fill-rule:evenodd;stroke:none;stroke-width:1px;stroke-linecap:butt;stroke-linejoin:miter;stroke-opacity:1"
       d="m 129.04699,193.93398 c 1.23744,-0.30887 2.47487,-1.9392 3.71231,-6.89429 0.40942,-2.67164 2.29236,-0.41405 1.09283,3.3658 -0.63031,1.95431 -1.44812,3.93551 -2.39093,5.05514 -0.55896,4.37492 0.74234,3.83458 2.63204,0.66422 -1.13662,5.44235 -3.56558,8.10665 -5.22303,9.65317 z"
       id="path4257"
       inkscape:connector-curvature="0"
       sodipodi:nodetypes="ccccccc" />
    <path
       style="fill:#043047;fill-opacity:1;fill-rule:evenodd;stroke:none;stroke-width:1px;stroke-linecap:butt;stroke-linejoin:miter;stroke-opacity:1"
       d="m 112.1875,241.4375 c -3.02057,-1.7711 -5.16926,-4.41407 -9.375,-5 2.22653,0.0226 3.68588,-0.84001 3.75,-3.3125 0.92952,3.40116 3.22134,5.89411 5.625,8.3125 z"
       id="path4261"
       inkscape:connector-curvature="0"
       sodipodi:nodetypes="cccc" />
    <path
       style="fill:#043047;fill-opacity:1;fill-rule:evenodd;stroke:none;stroke-width:1px;stroke-linecap:butt;stroke-linejoin:miter;stroke-opacity:1"
       d="m 115.625,234.6875 c -1.01122,-2.19299 -0.96369,-3.11599 -3.0625,-4.6875 1.76177,1.23273 4.77257,-2.23962 6.375,-3.875 -2.70468,4.21149 -3.01477,5.70492 -3.3125,8.5625 z"
       id="path4263"
       inkscape:connector-curvature="0"
       sodipodi:nodetypes="cccc" />
    <path
       style="fill:#043047;fill-opacity:1;fill-rule:evenodd;stroke:none;stroke-width:1px;stroke-linecap:butt;stroke-linejoin:miter;stroke-opacity:1"
       d="m 118.625,215.375 c 6.26988,-1.31786 9.67582,-1.09185 13.5625,-1.125 -1.3338,-0.50796 -3.71393,-0.17885 -3.5625,-1.875 0.10987,-0.90446 1.20618,-1.69931 2.8125,-2.4375 -0.91844,-0.63501 -4.47586,1.55747 -7.625,3.3125 z"
       id="path4267"
       inkscape:connector-curvature="0"
       sodipodi:nodetypes="cccccc" />
    <path
       style="fill:#043047;fill-opacity:1;fill-rule:evenodd;stroke:none;stroke-width:1px;stroke-linecap:butt;stroke-linejoin:miter;stroke-opacity:1"
       d="m 153.875,186.625 c 2.06128,-2.47108 -1.46685,-6.06004 -2.375,-9.125 2.37772,1.94327 5.37359,6.7712 8.75,13.375 2.85577,1.90789 2.36027,-5.17038 2.75,-9.875 -0.25478,7.38267 1.66786,12.26649 4.375,16.25 2.54881,3.12024 4.6288,1.08349 6.875,0.875 -0.97845,0.97522 -2.87013,1.58423 -2.75,3 2,0.88012 4,1.69966 6,3.875 -1.61868,-0.40403 -3.95857,-2.25048 -4.375,-0.25 1.62561,1.39154 1.33852,3.16563 1.375,4.875 -0.83246,-1.85636 -1.64395,-3.76512 -3.125,-4 L 171.25,203.5 c -0.0833,-0.125 -0.16667,-0.25 -0.25,-0.375 -5.04964,-4.40217 -11.10233,-10.47611 -17.125,-16.5 z"
       id="path4269"
       inkscape:connector-curvature="0"
       sodipodi:nodetypes="cccccccccccccc" />
    <path
       style="fill:#043047;fill-opacity:1;fill-rule:evenodd;stroke:none;stroke-width:1px;stroke-linecap:butt;stroke-linejoin:miter;stroke-opacity:1"
       d="m 172.5,219 c 4.78276,5.26686 8.21654,10.98337 10,17.25 -2.13631,-2.1744 -2.84517,-7.63115 -5.875,-7.125 1.51849,6.39193 -0.55789,6.7924 -0.875,10.125 -0.23369,-4.2145 -0.0633,-8.99475 -1.875,-11 z"
       id="path4271"
       inkscape:connector-curvature="0"
       sodipodi:nodetypes="cccccc" />
  </g>
  <g
     inkscape:groupmode="layer"
     id="layer4"
     inkscape:label="Layer 4"
     style="display:inline"
     sodipodi:insensitive="true"
     transform="translate(-85.073891,-51.213473)">
    <path
       style="fill:#909b5b;fill-opacity:1;fill-rule:evenodd;stroke:none;stroke-width:1px;stroke-linecap:butt;stroke-linejoin:miter;stroke-opacity:1"
       d="m 167.29079,150.42976 c -1.52506,10.25017 0.012,13.54183 -0.23613,19.01521 -4.70238,0.27657 -9.6214,-1.96283 -15.39521,-4.15046 -7.74824,-2.26451 -13.12675,-0.0807 -20.40945,3.2412 -1.47381,-2.45809 0.59277,-6.33234 1.25,-9.64285 2.51262,-4.05063 2.6331,-11.29078 2.32143,-19.10714 -0.43725,-5.2381 -1.03341,-10.34992 0.90183,-15.58802 -0.21961,-3.58585 -0.59536,-3.13787 -1.79469,-2.80484 l -6.07142,5.35714 c -1.62172,0.7301 -3.17293,0.95746 -3.92858,4.28572 1.68758,6.01513 1.82352,8.98246 3.03572,13.57142 1.08321,2.54736 1.02136,7.25182 3.39286,8.03572 -3.46237,10.55533 -5.34708,6.62921 -7.85715,6.24999 L 120.71428,151.75 c 0.0535,-3.8929 -3.16897,-10.62455 -5.71428,-16.25 -1.74394,-3.45374 -0.87908,-5.31835 -0.35714,-7.85714 2.76401,-4.37115 4.01521,-5.08664 5,-7.67858 6.27605,-4.76608 7.49885,-10.96217 11.25897,-15.08292 1.66197,-1.05867 1.18302,-6.11337 6.75507,-6.4323 3.93583,-0.982987 8.2693,-1.568329 11.27167,-3.484774 l 14.64286,2.5 c 3.26999,2.476134 5.58379,2.012924 9.82143,6.428574 2.0346,2.94573 3.81875,6.84254 2.49995,13.452 0.28837,5.07614 -0.97007,13.77199 -1.64149,16.28871 3.07386,6.25315 3.94234,5.05369 8.99574,16.95966 l 2.50372,1.7229 c -1.5447,2.64741 -2.47731,8.20256 -4.9245,8.1425 l -1.96979,-0.42214 c -3.93154,-1.35256 -7.03534,-12.63795 -10.53982,-19.11521 z"
       id="path4171"
       inkscape:connector-curvature="0"
       sodipodi:nodetypes="cccccccccccccccccccccccccccccc" />
  </g>
  <g
     inkscape:groupmode="layer"
     id="layer9"
     inkscape:label="Layer 9"
     style="display:inline"
     sodipodi:insensitive="true"
     transform="translate(-85.073891,-51.213473)">
    <path
       style="fill:#444a25;fill-opacity:1;fill-rule:evenodd;stroke:none;stroke-width:1px;stroke-linecap:butt;stroke-linejoin:miter;stroke-opacity:1"
       d="m 140.875,106 c -1.35781,5.06793 0.0359,10.52894 -5.5,15 l 0.375,3.25 -1,15.125 c 3.62566,-1.35728 3.11795,-1.45875 6.91988,-3.12968 3.07443,-1.3512 4.29652,-1.52558 2.20512,-2.62032 -6.36329,1.31797 -2.88747,-0.64252 -6.25,-1.125 3.27794,-1.74525 8.2684,-2.93685 7.625,-5.125 -2.88096,0.90777 -5.41067,-0.11634 -7.625,-2.875 6.22471,-2.125 7.95616,-4.25 11.5,-6.375 -3.37973,0.84752 -7.3701,3.52696 -10.125,2.5 5.72225,-6.00772 1.4865,-9.80256 1.875,-14.625 z"
       id="path4229"
       inkscape:connector-curvature="0"
       sodipodi:nodetypes="ccccsccccccc" />
    <path
       style="fill:#444a25;fill-opacity:1;fill-rule:evenodd;stroke:none;stroke-width:1px;stroke-linecap:butt;stroke-linejoin:miter;stroke-opacity:1"
       d="m 168.5,136.875 1.25,-16.25 2,-9.625 1.875,-1.75 c -1.20334,1.59207 -1.6897,3.31387 -1.625,7.125 l 2.25,0.375 c -2.22624,-0.0179 -2.88263,1.53404 -3.125,3.5 l 2,0.375 c -1.51537,3.32635 -3.02461,6.16646 -4.625,16.25 z"
       id="path4231"
       inkscape:connector-curvature="0"
       sodipodi:nodetypes="ccccccccc" />
    <path
       style="fill:#444a25;fill-opacity:1;fill-rule:evenodd;stroke:none;stroke-width:1px;stroke-linecap:butt;stroke-linejoin:miter;stroke-opacity:1"
       d="m 131.375,167.875 c 2.59715,-4.56159 3.70112,-7.82968 8.5,-9.875 3.40058,-2.99744 2.33757,-7.71534 1.80515,-6.22958 -2.49833,6.81632 -5.4007,0.90005 -9.73193,5.15478 z"
       id="path4233"
       inkscape:connector-curvature="0"
       sodipodi:nodetypes="ccccc" />
    <path
       style="fill:#444a25;fill-opacity:1;fill-rule:evenodd;stroke:none;stroke-width:1px;stroke-linecap:butt;stroke-linejoin:miter;stroke-opacity:1"
       d="m 141.5,146.97487 c -1.90294,4.65394 -4.15142,6.95365 -5.75888,9.53922 L 134.25,150 l 0,-0.625 6.35355,-4.11091 c 0.78005,0.37546 1.9685,-2.06021 0.89645,1.71078 z"
       id="path4235"
       inkscape:connector-curvature="0"
       sodipodi:nodetypes="cccccc" />
    <path
       style="fill:#444a25;fill-opacity:1;fill-rule:evenodd;stroke:none;stroke-width:1px;stroke-linecap:butt;stroke-linejoin:miter;stroke-opacity:1"
       d="m 160.06066,99.463388 c 0.38978,10.126732 3.1558,20.122302 -1.39645,35.066942 -1.90839,8.10679 -3.08959,15.50074 -4,22 0.66634,3.80643 1.81857,9.81715 3.375,11.25 l 0.875,0.25 c -1.13145,-2.8621 -3.08685,-6.8263 -3.25,-11.625 1.17354,-7.38805 2.03412,-14.27903 3.875,-22 2.26244,-7.59764 3.2079,-13.72815 1.00628,-35.118718 z"
       id="path4239"
       inkscape:connector-curvature="0"
       sodipodi:nodetypes="ccccccccc" />
    <path
       style="fill:#444a25;fill-opacity:1;fill-rule:evenodd;stroke:none;stroke-width:1px;stroke-linecap:butt;stroke-linejoin:miter;stroke-opacity:1"
       d="m 174.8125,154.625 c -0.79214,-4.18684 -1.83592,-9.57138 -1.875,-14.8125 -0.5,2.47948 -1,3.48334 -1.5,4.5 -0.55067,-0.42623 -1.22093,-3.30907 -1.9375,-5.0625 l 0.4375,4.5625 c 2.24715,5.31508 3.25438,7.22039 4.875,10.8125 z"
       id="path4273"
       inkscape:connector-curvature="0"
       sodipodi:nodetypes="cccccc" />
  </g>
  <g
     inkscape:groupmode="layer"
     id="layer7"
     inkscape:label="Layer 7"
     style="display:inline"
     transform="translate(-85.073891,-51.213473)"
     sodipodi:insensitive="true">
    <path
       style="fill:#676767;fill-opacity:1;fill-rule:evenodd;stroke:none;stroke-width:1px;stroke-linecap:butt;stroke-linejoin:miter;stroke-opacity:1"
       d="m 116.70698,169.49164 c 1.55327,2.4252 2.36734,3.15235 3.82774,3.12063 l 4.44646,0.61147 c 1.94125,-0.63134 2.28448,-1.72097 3.52375,-2.82394 l 10.92305,-24.48243 c 0.13833,-1.5994 -0.52111,-3.37738 -1.38262,-4.97679 l -18.20883,-21.04001 -3.40927,-0.80813 c -0.78343,0.0612 -1.54216,0.73071 -2.65165,2.09608 -3.30794,3.84601 -4.11848,2.91876 -9.62494,17.49708 0.27142,1.08637 -0.28377,2.43842 -0.46736,3.53177 -0.48635,1.38117 0.74066,6.12028 1.17604,7.80869 3.91975,7.60912 7.91862,13.37983 11.84763,19.46558 z"
       id="path4193"
       inkscape:connector-curvature="0"
       sodipodi:nodetypes="ccccccccccccc" />
    <path
       style="fill:#363636;fill-opacity:1;fill-rule:evenodd;stroke:none;stroke-width:1px;stroke-linecap:butt;stroke-linejoin:miter;stroke-opacity:1"
       d="m 133.84521,143.42636 c 6.22457,-14.45409 16.5479,-39.61437 7.82868,-45.961949 l 3.15673,-0.883883 c 7.71664,8.052802 -0.65743,28.234862 -8.08121,47.603442 -0.67344,-0.43532 -2.23076,0.58255 -2.9042,-0.75761 z"
       id="path4191"
       inkscape:connector-curvature="0"
       sodipodi:nodetypes="ccccc" />
  </g>
  <g
     inkscape:groupmode="layer"
     id="layer12"
     inkscape:label="Layer 12"
     style="display:inline"
     transform="translate(-85.073891,-51.213473)"
     sodipodi:insensitive="true">
    <path
       style="fill:#222222;fill-opacity:1;fill-rule:evenodd;stroke:none;stroke-width:1px;stroke-linecap:butt;stroke-linejoin:miter;stroke-opacity:1"
       d="m 118.75,171.625 c 0.43963,-1.85775 0.42869,-3.2832 3,-5.75 -0.4241,-4.47376 1.34725,-5.19441 3.5,-6.125 L 125,153.875 c 1.59301,-3.80431 3.78287,-5.81806 6.375,-6.625 -2.66981,-0.82564 -1.20529,-3.45646 0.875,-5.5 -3.0387,3.16041 -5.42739,-3.76465 -6.875,-6.5 0.73375,3.59919 4.33787,9.16166 1.625,10.375 0.0748,3.80801 -1.46892,5.45811 -3.375,6.625 -1.23695,4.09119 -2.22143,9.64484 -5.25,10.75 1.38639,3.62123 -0.52006,4.89043 -1.25,7 z"
       id="path4278"
       inkscape:connector-curvature="0"
       sodipodi:nodetypes="cccccccccccc" />
    <path
       style="fill:#222222;fill-opacity:1;fill-rule:evenodd;stroke:none;stroke-width:1px;stroke-linecap:butt;stroke-linejoin:miter;stroke-opacity:1"
       d="m 121.625,160.75 c -7.80453,-3.54302 -18.72318,-18.36211 -14.22227,-29.05438 l -3.125,7.13756 c 2.88251,7.02635 7.12315,16.17408 15.47227,24.16682 z"
       id="path4282"
       inkscape:connector-curvature="0"
       sodipodi:nodetypes="ccccc" />
  </g>
  <g
     inkscape:groupmode="layer"
     id="layer8"
     inkscape:label="Layer 8"
     style="display:inline"
     sodipodi:insensitive="true"
     transform="translate(-85.073891,-51.213473)">
    <path
       style="display:inline;fill:#909b5b;fill-opacity:1;fill-rule:evenodd;stroke:none;stroke-width:1px;stroke-linecap:butt;stroke-linejoin:miter;stroke-opacity:1"
       d="m 133.92857,121.39286 -5.44007,6.36729 c -1.62172,0.7301 -2.9204,1.84135 -3.67605,5.16961 1.68758,6.01513 1.69725,8.85619 2.90945,13.44515 1.60498,2.72128 2.68211,7.84749 3.6454,8.16199 -3.46237,10.55533 -6.60977,7.63936 -9.11984,7.26014 l -2.92214,-8.91062 C 119.37882,148.99352 117.54531,141.12545 115,135.5 c -1.74394,-3.45374 -0.87908,-5.31835 -0.35714,-7.85714 2.76401,-4.37115 4.01521,-5.08664 5,-7.67858 6.27605,-4.76608 7.49885,-10.96217 11.25897,-15.08292 1.66197,-1.05867 1.18302,-6.113374 6.75507,-6.432304 5.40225,5.554374 3.7248,20.825744 -3.72833,22.943804 z"
       id="path4171-5"
       inkscape:connector-curvature="0"
       sodipodi:nodetypes="ccccccccccccc" />
  </g>
  <g
     inkscape:groupmode="layer"
     id="layer10"
     inkscape:label="Layer 10"
     sodipodi:insensitive="true"
     style="display:inline"
     transform="translate(-85.073891,-51.213473)">
    <path
       style="fill:#444a25;fill-opacity:1;fill-rule:evenodd;stroke:none;stroke-width:1px;stroke-linecap:butt;stroke-linejoin:miter;stroke-opacity:1"
       d="m 120.03138,120.04132 c 3.19487,-2.10197 6.4833,-4.06363 10.6066,-4.77297 l -4.5962,0 c 1.65563,-2.24137 3.47564,-4.26357 5.83363,-5.56846 -1.54663,0.0255 -3.18216,0.20656 -5.65685,1.85615 z"
       id="path4246"
       inkscape:connector-curvature="0"
       sodipodi:nodetypes="cccccc" />
    <path
       style="fill:#444a25;fill-opacity:1;fill-rule:evenodd;stroke:none;stroke-width:1px;stroke-linecap:butt;stroke-linejoin:miter;stroke-opacity:1"
       d="m 114.5513,134.18346 c 3.34999,4.83907 8.45738,8.89707 9.89949,14.58408 -0.14731,-0.0884 -0.29463,-0.17678 -0.44194,-0.26517 -1.43561,-2.01049 -1.88059,-4.61601 -4.41941,-4.86136 1.56312,2.24384 0.34404,3.97055 0.26516,5.74525 -1.56516,-5.66826 -3.29288,-10.09244 -5.3033,-15.2028 z"
       id="path4248"
       inkscape:connector-curvature="0"
       sodipodi:nodetypes="cccccc" />
    <path
       style="fill:#444a25;fill-opacity:1;fill-rule:evenodd;stroke:none;stroke-width:1px;stroke-linecap:butt;stroke-linejoin:miter;stroke-opacity:1"
       d="m 130.19604,125.34462 c -3.71231,1.33048 -7.42463,2.53584 -11.13694,2.47488 1.67188,0.48641 3.14295,1.37444 5.48008,0.53033 l -3.27037,2.12132 c 1.9036,1.07959 3.92559,-0.92257 6.27558,-2.2981 z"
       id="path4252"
       inkscape:connector-curvature="0"
       sodipodi:nodetypes="cccccc" />
  </g>
  <g
     inkscape:groupmode="layer"
     id="layer6"
     inkscape:label="Layer 6"
     style="display:inline"
     transform="translate(-85.073891,-51.213473)"
     sodipodi:insensitive="true">
    <path
       style="fill:#5c4638;fill-opacity:1;fill-rule:evenodd;stroke:none;stroke-width:1px;stroke-linecap:butt;stroke-linejoin:miter;stroke-opacity:1"
       d="m 150.44374,92.139267 c -1.95263,-0.300135 -4.26274,-0.218956 -2.76786,-4.196429 -3.17934,1.028267 -3.04216,-1.362837 -1.69642,-5 -1.96734,-0.853215 -3.1368,-1.83241 -0.625,-3.392857 -1.17532,-1.355393 -1.80032,-2.880118 0.0893,-5.178571 -0.59863,-3.16334 1.61114,-5.943718 6.24998,-8.392858 0.54144,-0.425708 1.77685,-0.07161 2.21047,-1.642796 1.62223,-5.878041 6.06811,-1.932677 8.5931,-0.410775 l 6.07143,7.589286 z"
       id="path4186"
       inkscape:connector-curvature="0"
       sodipodi:nodetypes="ccccccsccc" />
  </g>
  <g
     inkscape:groupmode="layer"
     id="layer5"
     inkscape:label="Layer 5"
     style="display:inline"
     sodipodi:insensitive="true"
     transform="translate(-85.073891,-51.213473)">
    <path
       id="path4182"
       style="fill:#fdebda;fill-opacity:1;fill-rule:evenodd;stroke:none;stroke-width:1px;stroke-linecap:butt;stroke-linejoin:miter;stroke-opacity:1"
       d="m 162.24313,95.903627 0.82075,3.030457 c -1.92845,0.519714 -0.48628,2.845116 -8.46003,0.126264 -2.17777,-0.211177 -3.291,-2.551449 -4.82979,-4.040605 0.26467,-2.374854 1.25998,-3.288419 0.47351,-7.765548 -0.47153,-2.709521 -1.62342,-5.70551 0.94702,-7.134202 1.4781,-0.420963 2.34003,1.776835 3.15672,4.166879 0.0575,-2.796609 0.61405,-5.297676 2.39911,-7.071068 0.82302,-0.894052 1.35842,-2.404427 1.01016,-5.808377 1.02235,-1.502137 3.60988,-1.557375 5.07011,0.352207 1.45155,1.898251 2.97285,1.076252 4.71574,0.910483 1.2965,4.843847 1.20978,5.883838 1.19956,7.134203 l -0.75762,4.230014 c 0.37162,1.182396 0.48262,2.178636 -0.31567,2.525381 0.0798,2.68699 -0.35821,3.949938 -0.94702,4.798225 -0.0253,1.197071 0.85666,2.311668 -0.85231,3.661802 -1.10486,1.018912 -2.52539,0.704011 -3.63024,0.883885 z"
       inkscape:connector-curvature="0"
       sodipodi:nodetypes="cccccccccsccccccc" />
    <path
       style="fill:#fdebda;fill-opacity:1;fill-rule:evenodd;stroke:none;stroke-width:1px;stroke-linecap:butt;stroke-linejoin:miter;stroke-opacity:1"
       d="m 182.84132,152.75181 4.02467,-0.45308 c 1.88195,0.39084 3.16642,1.07695 3.16642,1.07695 1.42573,1.6345 0.23094,1.66341 -0.42415,2.19978 1.72929,1.07538 0.7094,1.77646 1.08537,2.92177 -0.099,2.73901 -3.91208,4.00446 -7.15485,4.54469 -3.25652,-1.18468 -4.4164,-2.34184 -5.64148,-5.52022 0.71993,-1.61414 -0.24514,0.33056 0.50469,-0.68032 0.10353,-0.1392 0.14129,-0.31701 0.21182,-0.47558 1.75703,-2.5961 2.90907,-2.77226 4.22751,-3.61399 z"
       id="path4188"
       inkscape:connector-curvature="0"
       sodipodi:nodetypes="cccccccccc" />
    <path
       style="fill:#fdebda;fill-opacity:1;fill-rule:evenodd;stroke:none;stroke-width:1px;stroke-linecap:butt;stroke-linejoin:miter;stroke-opacity:1"
       d="m 123.16072,157.54465 0.85714,5.10714 c 0.82559,1.25 1.68537,2.5 2.83929,3.75 0.86725,0.33571 1.78853,0.77945 1.96428,-0.26786 1.4566,0.71169 2.33845,0.33803 2.85714,-0.35714 0.95068,0.11243 1.77121,-0.23314 2.58929,-1.60714 0.99114,0.29484 1.62498,-0.48221 2.14286,-1.60715 l -1.32145,-3.6875 c -1.6603,-2.22922 1.43807,-0.22007 2.43752,-0.0804 1.56163,0.52158 1.34216,-1.21251 0.24273,-1.98263 -0.92037,-0.64469 -3.42773,-1.32933 -3.76059,-1.80309 -1.86692,0.11374 -1.85685,-0.09 -3.25,-1.16071 -1.88414,1.15157 -6.77602,1.4829 -7.59821,3.69643 z"
       id="path4226"
       inkscape:connector-curvature="0"
       sodipodi:nodetypes="cccccccccsccc" />
  </g>
  <g
     inkscape:groupmode="layer"
     id="layer1"
     inkscape:label="Layer 14"
     transform="translate(-85.073891,-51.213473)"
     style="display:inline"
     sodipodi:insensitive="true">
    <path
       style="fill:#ab7252;fill-opacity:1;fill-rule:evenodd;stroke:none;stroke-width:1px;stroke-linecap:butt;stroke-linejoin:miter;stroke-opacity:1"
       d="m 153.53056,88.309905 c 0.48526,2.038215 1.51541,3.989009 2.20971,4.772971 1.83438,2.824041 5.93142,2.93474 9.54594,2.386486 -1.11537,0.684378 -3.56513,1.10188 -2.56326,2.209708 -1.99632,0.772739 -1.41184,1.80328 -8.48528,-3.623922 -0.62728,-2.458001 -0.9807,-3.062022 -0.70711,-5.745243 z"
       id="path4175"
       inkscape:connector-curvature="0"
       sodipodi:nodetypes="cccccc" />
    <path
       style="fill:#ab7252;fill-opacity:1;fill-rule:evenodd;stroke:none;stroke-width:1px;stroke-linecap:butt;stroke-linejoin:miter;stroke-opacity:1"
       d="m 181.46127,159.28575 c -0.58179,-1.29946 -0.10055,-3.75679 5.30331,-5.21491 -2.52198,0.0495 -5.86927,1.9863 -7.95496,1.94454 2.33131,0.90919 2.03683,2.14661 2.65165,3.27037 z"
       id="path4221"
       inkscape:connector-curvature="0"
       sodipodi:nodetypes="cccc" />
    <path
       style="fill:#ab7252;fill-opacity:1;fill-rule:evenodd;stroke:none;stroke-width:1px;stroke-linecap:butt;stroke-linejoin:miter;stroke-opacity:1"
       d="m 167.09828,83.142117 -0.88389,-2.828427 2.30438,-0.732995 c 0.0981,1.442174 -0.37984,2.774249 -1.42049,3.561422 z"
       id="path4177"
       inkscape:connector-curvature="0"
       sodipodi:nodetypes="cccc" />
    <path
       style="fill:#ab7252;fill-opacity:1;fill-rule:evenodd;stroke:none;stroke-width:1px;stroke-linecap:butt;stroke-linejoin:miter;stroke-opacity:1"
       d="m 163.73952,80.490467 c -1.49415,-1.00995 -3.31217,-1.841818 -4.68458,-1.06066 0.34348,1.169181 0.28736,2.34209 1.06065,2.65165 1.98199,1.002026 2.92781,-0.0041 3.62393,-1.59099 z"
       id="path4179"
       inkscape:connector-curvature="0"
       sodipodi:nodetypes="cccc" />
    <path
       style="fill:#ab7252;fill-opacity:1;fill-rule:evenodd;stroke:none;stroke-width:1px;stroke-linecap:butt;stroke-linejoin:miter;stroke-opacity:1"
       d="m 167.13639,85.888613 -3.3125,0.75 3.75,0 z"
       id="path4181"
       inkscape:connector-curvature="0"
       sodipodi:nodetypes="cccc" />
    <path
       style="fill:#ab7252;fill-opacity:1;fill-rule:evenodd;stroke:none;stroke-width:1px;stroke-linecap:butt;stroke-linejoin:miter;stroke-opacity:1"
       d="m 162.13639,90.701113 c 1.302,-1.428129 4.80891,-0.644728 4.9375,-0.0625 z"
       id="path4183"
       inkscape:connector-curvature="0"
       sodipodi:nodetypes="ccc" />
    <path
       style="fill:#ab7252;fill-opacity:1;fill-rule:evenodd;stroke:none;stroke-width:1px;stroke-linecap:butt;stroke-linejoin:miter;stroke-opacity:1"
       d="m 149.72997,85.040627 c 1.13839,2.967665 3.19189,5.925292 3.64601,3.535534 -1.0091,1.000602 -2.63691,-2.415552 -3.64601,-3.535534 z"
       id="path4185"
       inkscape:connector-curvature="0"
       sodipodi:nodetypes="ccc" />
  </g>
</svg>
