<?xml version="1.0" encoding="UTF-8" standalone="no"?>
<!-- Created with Inkscape (http://www.inkscape.org/) -->

<svg
   xmlns:dc="http://purl.org/dc/elements/1.1/"
   xmlns:cc="http://creativecommons.org/ns#"
   xmlns:rdf="http://www.w3.org/1999/02/22-rdf-syntax-ns#"
   xmlns:svg="http://www.w3.org/2000/svg"
   xmlns="http://www.w3.org/2000/svg"
   xmlns:xlink="http://www.w3.org/1999/xlink"
   xmlns:sodipodi="http://sodipodi.sourceforge.net/DTD/sodipodi-0.dtd"
   xmlns:inkscape="http://www.inkscape.org/namespaces/inkscape"
   width="303.91635"
   height="233.8112"
   viewBox="0 0 303.91635 233.8112"
   id="svg4201"
   version="1.1"
   inkscape:version="0.91 r13725"
   sodipodi:docname="pic1-4.svg">
  <defs
     id="defs4203">
    <linearGradient
       inkscape:collect="always"
       id="linearGradient4256">
      <stop
         style="stop-color:#ffffff;stop-opacity:0.44871795"
         offset="0"
         id="stop4258" />
      <stop
         style="stop-color:#ffffff;stop-opacity:0"
         offset="1"
         id="stop4260" />
    </linearGradient>
    <linearGradient
       inkscape:collect="always"
       id="linearGradient7060">
      <stop
         style="stop-color:#000000;stop-opacity:0"
         offset="0"
         id="stop7062" />
      <stop
         style="stop-color:#000001;stop-opacity:0.6111111"
         offset="1"
         id="stop7064" />
    </linearGradient>
    <linearGradient
       inkscape:collect="always"
       id="linearGradient7036">
      <stop
         style="stop-color:#ffffff;stop-opacity:0.65151513"
         offset="0"
         id="stop7038" />
      <stop
         style="stop-color:#ffffff;stop-opacity:0"
         offset="1"
         id="stop7040" />
    </linearGradient>
    <linearGradient
       inkscape:collect="always"
       xlink:href="#linearGradient7036"
       id="linearGradient7042"
       x1="190.88524"
       y1="154.94685"
       x2="200.43785"
       y2="165.55347"
       gradientUnits="userSpaceOnUse"
       spreadMethod="reflect"
       gradientTransform="matrix(1.1193995,0,0,1.1193995,-6.0359054,-28.119713)" />
    <linearGradient
       inkscape:collect="always"
       xlink:href="#linearGradient7060"
       id="linearGradient7066"
       x1="201.32303"
       y1="167.69963"
       x2="207.86267"
       y2="175.19963"
       gradientUnits="userSpaceOnUse"
       gradientTransform="matrix(1.1193995,0,0,1.1193995,-6.0359054,-28.119713)" />
    <linearGradient
       inkscape:collect="always"
       xlink:href="#linearGradient4256"
       id="linearGradient4262"
       x1="106.49124"
       y1="119.9707"
       x2="148.46552"
       y2="165.93263"
       gradientUnits="userSpaceOnUse"
       gradientTransform="matrix(1.1193995,0,0,1.1193995,-6.0359054,-28.119713)" />
  </defs>
  <sodipodi:namedview
     id="base"
     pagecolor="#ffffff"
     bordercolor="#666666"
     borderopacity="1.0"
     inkscape:pageopacity="0.0"
     inkscape:pageshadow="2"
     inkscape:zoom="1.4142135"
     inkscape:cx="26.92205"
     inkscape:cy="103.8362"
     inkscape:document-units="px"
     inkscape:current-layer="layer1"
     showgrid="false"
     units="px"
     inkscape:window-width="1366"
     inkscape:window-height="712"
     inkscape:window-x="-4"
     inkscape:window-y="-4"
     inkscape:window-maximized="1"
     fit-margin-left="10"
     fit-margin-right="10"
     fit-margin-top="5"
     fit-margin-bottom="5" />
  <metadata
     id="metadata4206">
    <rdf:RDF>
      <cc:Work
         rdf:about="">
        <dc:format>image/svg+xml</dc:format>
        <dc:type
           rdf:resource="http://purl.org/dc/dcmitype/StillImage" />
        <dc:title></dc:title>
      </cc:Work>
    </rdf:RDF>
  </metadata>
  <g
     inkscape:groupmode="layer"
     id="layer4"
     inkscape:label="Layer 2"
     style="display:inline"
     transform="translate(0.9464597,-38.992993)">
    <path
       style="fill:#a3a3a3;fill-opacity:1;fill-rule:evenodd;stroke:none;stroke-width:1px;stroke-linecap:butt;stroke-linejoin:miter;stroke-opacity:1"
       d="m 48.33493,158.18036 95.48979,41.45293 c 4.83088,2.6937 7.74757,9.16589 7.65489,14.11726 l 0,14.08938 c 0.28269,8.24802 -2.63646,14.45692 -8.19561,11.4484 -13.41325,-7.74415 -95.32591,-45.22999 -95.32591,-45.22999 -3.029791,-1.52486 -5.031902,-3.88589 -5.031902,-7.83054 l 0,-20.29722 c -0.04597,-4.79101 1.188111,-10.19552 5.408742,-7.75022 z"
       id="path6958-0"
       inkscape:connector-curvature="0"
       sodipodi:nodetypes="ccccccccc" />
  </g>
  <g
     inkscape:groupmode="layer"
     id="layer8"
     inkscape:label="Layer 6"
     style="display:inline"
     transform="translate(0.9464597,-38.992993)">
    <path
       id="path6958-0-7-8-6"
       style="display:inline;fill:#d3cfcf;fill-opacity:1;fill-rule:evenodd;stroke:none;stroke-width:0.66915929px;stroke-linecap:butt;stroke-linejoin:miter;stroke-opacity:1"
       d="m 60.166214,171.10913 68.029916,29.92426 0.047,24.26914 L 79.995623,267.80419 9.0535403,232.29844 9.1075748,207.929 Z"
       inkscape:connector-curvature="0"
       sodipodi:nodetypes="ccccccc" />
  </g>
  <g
     inkscape:groupmode="layer"
     id="layer10"
     inkscape:label="Layer 7"
     style="display:inline"
     transform="translate(0.9464597,-38.992993)">
    <path
       style="fill:#8c8c8c;fill-opacity:1;fill-rule:evenodd;stroke:none;stroke-width:0.699;stroke-linecap:butt;stroke-linejoin:miter;stroke-miterlimit:4;stroke-dasharray:none;stroke-opacity:1"
       d="m 80.047765,267.60959 0,-27.68111 48.109475,-39.10045 0.27424,24.31641 z"
       id="path7123"
       inkscape:connector-curvature="0"
       sodipodi:nodetypes="ccccc" />
    <path
       style="fill:none;fill-rule:evenodd;stroke:#ebebeb;stroke-width:0.78246021;stroke-linecap:butt;stroke-linejoin:miter;stroke-miterlimit:4;stroke-dasharray:none;stroke-opacity:1"
       d="M 9.6497506,207.99164 79.406111,239.47886"
       id="path7125"
       inkscape:connector-curvature="0"
       sodipodi:nodetypes="cc" />
    <path
       style="fill:#000000;fill-opacity:1;fill-rule:evenodd;stroke:none;stroke-width:0.699;stroke-linecap:butt;stroke-linejoin:miter;stroke-miterlimit:4;stroke-dasharray:none;stroke-opacity:1"
       d="m 10.191561,231.39558 0.139925,-21.35738 68.11008,31.01972 -0.139918,24.46968 z"
       id="path4161"
       inkscape:connector-curvature="0"
       sodipodi:nodetypes="ccccc" />
    <path
       style="display:inline;fill:#5c5555;fill-opacity:1;fill-rule:evenodd;stroke:none;stroke-width:0.699;stroke-linecap:butt;stroke-linejoin:miter;stroke-miterlimit:4;stroke-dasharray:none;stroke-opacity:1"
       d="m 10.191561,220.62136 0.139925,-10.58316 68.11008,31.01972 -0.139918,11.45666 z"
       id="path4161-3"
       inkscape:connector-curvature="0"
       sodipodi:nodetypes="ccccc" />
    <path
       style="fill:#202020;fill-opacity:1;fill-rule:evenodd;stroke:none;stroke-width:1px;stroke-linecap:butt;stroke-linejoin:miter;stroke-opacity:1"
       d="m 72.482672,209.90705 19.81058,9.11877 11.877848,-9.50909 -19.803982,-9.03452 z m -4.386108,-17.00435 -18.530133,-8.23464 -11.761932,8.67946 18.451786,8.59528 z"
       id="path4223"
       inkscape:connector-curvature="0"
       sodipodi:nodetypes="cccccccccc" />
  </g>
  <g
     inkscape:groupmode="layer"
     id="layer5"
     inkscape:label="Layer 3"
     style="display:inline"
     transform="translate(0.9464597,-38.992993)">
    <path
       id="path7017"
       style="fill:#3943b4;fill-opacity:1;fill-rule:evenodd;stroke:none;stroke-width:1px;stroke-linecap:butt;stroke-linejoin:miter;stroke-opacity:1"
       d="m 193.66323,44.118993 91.92018,31.861358 c 4.65028,2.18616 7.45794,8.170782 7.36873,12.944858 l 0,13.562681 c 0.12964,3.77257 -0.45253,7.18596 -1.67116,9.45074 l -0.34991,0.31598 -142.12823,126.69494 c 1.83528,-1.6954 2.82953,-6.6525 2.67677,-11.10962 l 0,-14.08938 c 0.0928,-4.95137 -2.82401,-11.42356 -7.65489,-14.11726 L 48.33493,158.18036 c -0.86238,-0.49961 -1.443951,-1.50978 -3.219853,0.008 0.622811,-0.67918 143.434883,-112.460143 143.434883,-112.460143 1.06905,-1.014697 3.48834,-2.110514 5.11327,-1.610176 z"
       inkscape:connector-curvature="0"
       sodipodi:nodetypes="cccccccccccccc" />
  </g>
  <g
     inkscape:groupmode="layer"
     id="layer7"
     inkscape:label="Layer 5"
     style="display:inline"
     transform="translate(0.9464597,-38.992993)">
    <path
       id="path7017-9"
       style="display:inline;fill:url(#linearGradient7066);fill-opacity:1;fill-rule:evenodd;stroke:none;stroke-width:1px;stroke-linecap:butt;stroke-linejoin:miter;stroke-opacity:1"
       d="m 290.66617,80.816498 c 1.51513,2.517648 2.3348,5.494639 2.28597,8.108711 l 0,13.562681 c 0.12964,3.77257 -0.45253,7.18596 -1.67116,9.45074 l -0.34991,0.31598 -142.12823,126.69494 c 1.83528,-1.6954 2.82953,-6.6525 2.67677,-11.10962 l 0,-14.08938 c 0.0449,-2.39893 -0.61661,-5.15488 -1.86,-7.66513 z"
       inkscape:connector-curvature="0"
       sodipodi:nodetypes="cccccccccc" />
  </g>
  <g
     inkscape:groupmode="layer"
     id="layer6"
     inkscape:label="Layer 4"
     style="display:inline"
     transform="translate(0.9464597,-38.992993)">
    <path
       id="path7017-4"
       style="display:inline;fill:url(#linearGradient7042);fill-opacity:1;fill-rule:evenodd;stroke:none;stroke-width:1px;stroke-linecap:butt;stroke-linejoin:miter;stroke-opacity:1"
       d="m 269.18152,70.13119 16.40189,5.849156 c 4.65028,2.186162 7.45794,8.170787 7.36873,12.944863 l 0,2.685884 C 241.18336,135.13155 197.79078,178.093 151.47961,217.46517 l 0,-3.71462 c 0.0928,-4.95137 -2.82401,-11.42356 -7.65489,-14.11726 L 129.1238,193.2515 c 49.58307,-44.90299 93.40398,-82.12309 140.05772,-123.12031 z"
       inkscape:connector-curvature="0"
       sodipodi:nodetypes="ccccccccc" />
  </g>
  <g
     inkscape:groupmode="layer"
     id="layer1"
     inkscape:label="Layer 8"
     transform="translate(0.9464597,-38.992993)">
    <path
       id="path7017-94"
       style="display:inline;fill:url(#linearGradient4262);fill-opacity:1;fill-rule:evenodd;stroke:none;stroke-width:1px;stroke-linecap:butt;stroke-linejoin:miter;stroke-opacity:1"
       d="m 285.58341,75.980346 c 4.65028,2.186162 7.45794,8.170787 7.36873,12.944863 l 0,13.562681 c 0.12964,3.77257 -0.45253,7.18596 -1.67116,9.45074 l -0.34991,0.31598 -142.12823,126.69494 c 1.83528,-1.6954 2.82953,-6.6525 2.67677,-11.10962 l 0,-14.08938 c 0.0928,-4.95137 -2.82401,-11.42356 -7.65489,-14.11726 L 52.573004,160.02013 C 128.73179,118.54719 150.50241,66.056646 199.64098,55.790122 c 20.80723,-4.347258 50.13968,9.588915 85.94243,20.190224 z"
       inkscape:connector-curvature="0"
       sodipodi:nodetypes="ccccccccccsc" />
  </g>
</svg>
