<?xml version="1.0" encoding="UTF-8" standalone="no"?>
<!-- Created with Inkscape (http://www.inkscape.org/) -->

<svg
   xmlns:dc="http://purl.org/dc/elements/1.1/"
   xmlns:cc="http://creativecommons.org/ns#"
   xmlns:rdf="http://www.w3.org/1999/02/22-rdf-syntax-ns#"
   xmlns:svg="http://www.w3.org/2000/svg"
   xmlns="http://www.w3.org/2000/svg"
   xmlns:xlink="http://www.w3.org/1999/xlink"
   xmlns:sodipodi="http://sodipodi.sourceforge.net/DTD/sodipodi-0.dtd"
   xmlns:inkscape="http://www.inkscape.org/namespaces/inkscape"
   width="300"
   height="300"
   viewBox="0 0 300 300"
   id="svg4201"
   version="1.1"
   inkscape:version="0.91 r13725"
   sodipodi:docname="pic1-44.svg">
  <defs
     id="defs4203">
    <linearGradient
       inkscape:collect="always"
       id="linearGradient4256">
      <stop
         style="stop-color:#ffffff;stop-opacity:0.44871795"
         offset="0"
         id="stop4258" />
      <stop
         style="stop-color:#ffffff;stop-opacity:0"
         offset="1"
         id="stop4260" />
    </linearGradient>
    <linearGradient
       inkscape:collect="always"
       id="linearGradient7060">
      <stop
         style="stop-color:#000000;stop-opacity:0"
         offset="0"
         id="stop7062" />
      <stop
         style="stop-color:#000001;stop-opacity:0.6111111"
         offset="1"
         id="stop7064" />
    </linearGradient>
    <linearGradient
       inkscape:collect="always"
       id="linearGradient7036">
      <stop
         style="stop-color:#ffffff;stop-opacity:0.65151513"
         offset="0"
         id="stop7038" />
      <stop
         style="stop-color:#ffffff;stop-opacity:0"
         offset="1"
         id="stop7040" />
    </linearGradient>
    <linearGradient
       inkscape:collect="always"
       xlink:href="#linearGradient7036"
       id="linearGradient7042"
       x1="190.88524"
       y1="154.94685"
       x2="200.43785"
       y2="165.55347"
       gradientUnits="userSpaceOnUse"
       spreadMethod="reflect"
       gradientTransform="matrix(0.80994086,0,0,0.80994086,40.561985,20.243938)" />
    <linearGradient
       inkscape:collect="always"
       xlink:href="#linearGradient7060"
       id="linearGradient7066"
       x1="201.32303"
       y1="167.69963"
       x2="207.86267"
       y2="175.19963"
       gradientUnits="userSpaceOnUse"
       gradientTransform="matrix(0.80994086,0,0,0.80994086,40.561985,20.243938)" />
    <linearGradient
       inkscape:collect="always"
       xlink:href="#linearGradient4256"
       id="linearGradient4262"
       x1="106.49124"
       y1="119.9707"
       x2="148.46552"
       y2="165.93263"
       gradientUnits="userSpaceOnUse"
       gradientTransform="matrix(0.80994086,0,0,0.80994086,40.561985,20.243938)" />
  </defs>
  <sodipodi:namedview
     id="base"
     pagecolor="#ffffff"
     bordercolor="#666666"
     borderopacity="1.0"
     inkscape:pageopacity="0.0"
     inkscape:pageshadow="2"
     inkscape:zoom="0.99999999"
     inkscape:cx="-129.00001"
     inkscape:cy="198.24682"
     inkscape:document-units="px"
     inkscape:current-layer="layer1"
     showgrid="false"
     units="px"
     inkscape:window-width="1366"
     inkscape:window-height="712"
     inkscape:window-x="-4"
     inkscape:window-y="-4"
     inkscape:window-maximized="1" />
  <metadata
     id="metadata4206">
    <rdf:RDF>
      <cc:Work
         rdf:about="">
        <dc:format>image/svg+xml</dc:format>
        <dc:type
           rdf:resource="http://purl.org/dc/dcmitype/StillImage" />
        <dc:title />
      </cc:Work>
    </rdf:RDF>
  </metadata>
  <g
     inkscape:groupmode="layer"
     id="layer4"
     inkscape:label="Layer 2"
     style="display:inline">
    <path
       style="fill:#a3a3a3;fill-opacity:1;fill-rule:evenodd;stroke:none;stroke-width:1px;stroke-linecap:butt;stroke-linejoin:miter;stroke-opacity:1"
       d="m 79.90197,155.04124 69.09158,29.99324 c 3.49538,1.94903 5.60575,6.63198 5.53869,10.21454 l 0,10.19436 c 0.20454,5.96785 -1.90761,10.4603 -5.92993,8.28348 -9.70515,-5.60327 -68.973002,-32.72613 -68.973002,-32.72613 -2.192204,-1.10331 -3.64083,-2.81163 -3.64083,-5.66578 l 0,-14.68604 c -0.03326,-3.46653 0.859657,-7.37696 3.913492,-5.60767 z"
       id="path6958-0"
       inkscape:connector-curvature="0"
       sodipodi:nodetypes="ccccccccc" />
  </g>
  <g
     inkscape:groupmode="layer"
     id="layer8"
     inkscape:label="Layer 6"
     style="display:inline">
    <path
       id="path6958-0-7-8-6"
       style="display:inline;fill:#d3cfcf;fill-opacity:1;fill-rule:evenodd;stroke:none;stroke-width:0.66915929px;stroke-linecap:butt;stroke-linejoin:miter;stroke-opacity:1"
       d="m 88.462488,164.39585 49.223002,21.65167 0.034,17.55993 -34.90947,30.75205 -51.330101,-25.69017 0.0391,-17.63249 z"
       inkscape:connector-curvature="0"
       sodipodi:nodetypes="ccccccc" />
  </g>
  <g
     inkscape:groupmode="layer"
     id="layer10"
     inkscape:label="Layer 7"
     style="display:inline">
    <path
       style="fill:#8c8c8c;fill-opacity:1;fill-rule:evenodd;stroke:none;stroke-width:0.699;stroke-linecap:butt;stroke-linejoin:miter;stroke-miterlimit:4;stroke-dasharray:none;stroke-opacity:1"
       d="m 102.84777,234.2187 0,-20.02866 34.80958,-28.2911 0.19843,17.59412 z"
       id="path7123"
       inkscape:connector-curvature="0"
       sodipodi:nodetypes="ccccc" />
    <path
       style="fill:none;fill-rule:evenodd;stroke:#ebebeb;stroke-width:0.56614864;stroke-linecap:butt;stroke-linejoin:miter;stroke-miterlimit:4;stroke-dasharray:none;stroke-opacity:1"
       d="M 51.911332,191.08216 102.3835,213.86472"
       id="path7125"
       inkscape:connector-curvature="0"
       sodipodi:nodetypes="cc" />
    <path
       style="fill:#000000;fill-opacity:1;fill-rule:evenodd;stroke:none;stroke-width:0.699;stroke-linecap:butt;stroke-linejoin:miter;stroke-miterlimit:4;stroke-dasharray:none;stroke-opacity:1"
       d="m 52.303359,208.01607 0.101243,-15.45312 49.281008,22.4443 -0.10124,17.70502 z"
       id="path4161"
       inkscape:connector-curvature="0"
       sodipodi:nodetypes="ccccc" />
    <path
       style="display:inline;fill:#5c5555;fill-opacity:1;fill-rule:evenodd;stroke:none;stroke-width:0.699;stroke-linecap:butt;stroke-linejoin:miter;stroke-miterlimit:4;stroke-dasharray:none;stroke-opacity:1"
       d="m 52.303359,200.22039 0.101243,-7.65744 49.281008,22.4443 -0.10124,8.28946 z"
       id="path4161-3"
       inkscape:connector-curvature="0"
       sodipodi:nodetypes="ccccc" />
    <path
       style="fill:#202020;fill-opacity:1;fill-rule:evenodd;stroke:none;stroke-width:1px;stroke-linecap:butt;stroke-linejoin:miter;stroke-opacity:1"
       d="m 97.374056,192.46806 14.333934,6.59787 8.59421,-6.88029 -14.32916,-6.53692 z m -3.173569,-12.30349 -13.407465,-5.95817 -8.510339,6.28002 13.350779,6.21911 z"
       id="path4223"
       inkscape:connector-curvature="0"
       sodipodi:nodetypes="cccccccccc" />
  </g>
  <g
     inkscape:groupmode="layer"
     id="layer5"
     inkscape:label="Layer 3"
     style="display:inline">
    <path
       id="path7017"
       style="fill:#3943b4;fill-opacity:1;fill-rule:evenodd;stroke:none;stroke-width:1px;stroke-linecap:butt;stroke-linejoin:miter;stroke-opacity:1"
       d="m 185.05417,72.51221 66.50879,23.053266 c 3.36471,1.581795 5.39619,5.911964 5.33164,9.366244 l 0,9.81327 c 0.0938,2.72964 -0.32742,5.1994 -1.20916,6.83808 l -0.25318,0.22862 -102.8368,91.67005 c 1.32792,-1.22671 2.04731,-4.81341 1.93678,-8.03836 l 0,-10.19436 c 0.0671,-3.58256 -2.04331,-8.26551 -5.53869,-10.21454 L 79.90197,155.04124 c -0.623974,-0.36149 -1.04477,-1.0924 -2.329723,0.006 0.450635,-0.49142 103.782223,-81.370468 103.782223,-81.370468 0.77351,-0.734183 2.52399,-1.527061 3.6997,-1.165042 z"
       inkscape:connector-curvature="0"
       sodipodi:nodetypes="cccccccccccccc" />
  </g>
  <g
     inkscape:groupmode="layer"
     id="layer7"
     inkscape:label="Layer 5"
     style="display:inline">
    <path
       id="path7017-9"
       style="display:inline;fill:url(#linearGradient7066);fill-opacity:1;fill-rule:evenodd;stroke:none;stroke-width:1px;stroke-linecap:butt;stroke-linejoin:miter;stroke-opacity:1"
       d="m 255.24059,99.064667 c 1.09627,1.821643 1.68935,3.975643 1.65401,5.867053 l 0,9.81327 c 0.0938,2.72964 -0.32742,5.1994 -1.20916,6.83808 l -0.25318,0.22862 -102.8368,91.67005 c 1.32792,-1.22671 2.04731,-4.81341 1.93678,-8.03836 l 0,-10.19436 c 0.0325,-1.73575 -0.44615,-3.72981 -1.3458,-5.5461 z"
       inkscape:connector-curvature="0"
       sodipodi:nodetypes="cccccccccc" />
  </g>
  <g
     inkscape:groupmode="layer"
     id="layer6"
     inkscape:label="Layer 4"
     style="display:inline">
    <path
       id="path7017-4"
       style="display:inline;fill:url(#linearGradient7042);fill-opacity:1;fill-rule:evenodd;stroke:none;stroke-width:1px;stroke-linecap:butt;stroke-linejoin:miter;stroke-opacity:1"
       d="m 239.69538,91.333319 11.86758,4.232154 c 3.36471,1.581795 5.39619,5.911967 5.33164,9.366247 l 0,1.94337 c -37.45726,31.4892 -68.85394,62.57393 -102.36236,91.06164 l 0,-2.68771 c 0.0671,-3.58256 -2.04331,-8.26551 -5.53869,-10.21454 l -10.63684,-4.61754 c 35.8758,-32.48953 67.58239,-59.42011 101.33867,-89.083621 z"
       inkscape:connector-curvature="0"
       sodipodi:nodetypes="ccccccccc" />
  </g>
  <g
     inkscape:groupmode="layer"
     id="layer1"
     inkscape:label="Layer 8">
    <path
       id="path7017-94"
       style="display:inline;fill:url(#linearGradient4262);fill-opacity:1;fill-rule:evenodd;stroke:none;stroke-width:1px;stroke-linecap:butt;stroke-linejoin:miter;stroke-opacity:1"
       d="m 185.05417,72.512208 66.50879,23.053265 c 3.36471,1.581795 5.39619,5.911967 5.33164,9.366247 l 0,9.81327 c 0.0938,2.72964 -0.32742,5.1994 -1.20916,6.83808 l -0.25318,0.22862 -102.8368,91.67005 c 1.32792,-1.22671 2.04731,-4.81341 1.93678,-8.03836 l 0,-10.19436 c 0.0671,-3.58256 -2.04331,-8.26551 -5.53869,-10.21454 L 79.90197,155.04124 c -0.623974,-0.36149 -1.04477,-1.0924 -2.329723,0.006 0.450635,-0.49142 103.782223,-81.37047 103.782223,-81.37047 0.77351,-0.734183 2.52399,-1.527062 3.6997,-1.165042 z"
       inkscape:connector-curvature="0"
       sodipodi:nodetypes="cccccccccccccc" />
  </g>
</svg>
