<?xml version="1.0" encoding="UTF-8" standalone="no"?>
<!-- Created with Inkscape (http://www.inkscape.org/) -->

<svg
   xmlns:dc="http://purl.org/dc/elements/1.1/"
   xmlns:cc="http://creativecommons.org/ns#"
   xmlns:rdf="http://www.w3.org/1999/02/22-rdf-syntax-ns#"
   xmlns:svg="http://www.w3.org/2000/svg"
   xmlns="http://www.w3.org/2000/svg"
   xmlns:xlink="http://www.w3.org/1999/xlink"
   xmlns:sodipodi="http://sodipodi.sourceforge.net/DTD/sodipodi-0.dtd"
   xmlns:inkscape="http://www.inkscape.org/namespaces/inkscape"
   width="300"
   height="300"
   viewBox="0 0 300 300"
   id="svg5479"
   version="1.1"
   inkscape:version="0.91 r13725"
   sodipodi:docname="pic1-2.svg"
   inkscape:export-filename="D:\11\ECP\Новая папка\pic1-2.png"
   inkscape:export-xdpi="90"
   inkscape:export-ydpi="90">
  <defs
     id="defs5481">
    <linearGradient
       inkscape:collect="always"
       id="linearGradient4244">
      <stop
         style="stop-color:#ffffff;stop-opacity:1;"
         offset="0"
         id="stop4246" />
      <stop
         style="stop-color:#dedede;stop-opacity:1"
         offset="1"
         id="stop4248" />
    </linearGradient>
    <linearGradient
       inkscape:collect="always"
       xlink:href="#linearGradient4244"
       id="linearGradient4250"
       x1="147.54341"
       y1="64.461571"
       x2="163.0267"
       y2="53.961571"
       gradientUnits="userSpaceOnUse"
       gradientTransform="translate(23.334524,15.556349)" />
    <linearGradient
       gradientTransform="translate(23.334524,15.556347)"
       inkscape:collect="always"
       xlink:href="#linearGradient4236"
       id="linearGradient4242"
       x1="156.83702"
       y1="61.661015"
       x2="165.70137"
       y2="56.339943"
       gradientUnits="userSpaceOnUse" />
    <linearGradient
       inkscape:collect="always"
       id="linearGradient4236">
      <stop
         style="stop-color:#ffffff;stop-opacity:1;"
         offset="0"
         id="stop4238" />
      <stop
         style="stop-color:#dddddd;stop-opacity:1"
         offset="1"
         id="stop4240" />
    </linearGradient>
    <linearGradient
       inkscape:collect="always"
       xlink:href="#linearGradient4244"
       id="linearGradient4473"
       gradientUnits="userSpaceOnUse"
       x1="159.62384"
       y1="56.742226"
       x2="167.88107"
       y2="50.951569"
       gradientTransform="matrix(0.98480776,0.17364818,-0.17364818,0.98480776,60.674836,11.173311)" />
    <linearGradient
       inkscape:collect="always"
       xlink:href="#linearGradient4236"
       id="linearGradient4475"
       gradientUnits="userSpaceOnUse"
       gradientTransform="matrix(0.98480776,0.17364818,-0.17364818,0.98480776,60.674836,11.173309)"
       x1="162.94518"
       y1="55.503651"
       x2="169.45137"
       y2="50.964943" />
    <linearGradient
       inkscape:collect="always"
       xlink:href="#linearGradient4236"
       id="linearGradient4521"
       gradientUnits="userSpaceOnUse"
       gradientTransform="matrix(0.93969262,0.34202015,-0.34202015,0.93969262,93.137166,12.181485)"
       x1="162.21295"
       y1="44.105316"
       x2="165.85994"
       y2="40.966042" />
    <linearGradient
       inkscape:collect="always"
       xlink:href="#linearGradient4244"
       id="linearGradient4523"
       gradientUnits="userSpaceOnUse"
       gradientTransform="matrix(0.93969262,0.34202015,-0.34202015,0.93969262,93.137166,12.181487)"
       x1="161.91312"
       y1="48.849792"
       x2="171.0032"
       y2="42.023781" />
  </defs>
  <sodipodi:namedview
     id="base"
     pagecolor="#ffffff"
     bordercolor="#666666"
     borderopacity="1.0"
     inkscape:pageopacity="0.0"
     inkscape:pageshadow="2"
     inkscape:zoom="2"
     inkscape:cx="83.651618"
     inkscape:cy="180.56875"
     inkscape:document-units="px"
     inkscape:current-layer="g4477"
     showgrid="false"
     units="px"
     inkscape:window-width="1366"
     inkscape:window-height="712"
     inkscape:window-x="-4"
     inkscape:window-y="-4"
     inkscape:window-maximized="1" />
  <metadata
     id="metadata5484">
    <rdf:RDF>
      <cc:Work
         rdf:about="">
        <dc:format>image/svg+xml</dc:format>
        <dc:type
           rdf:resource="http://purl.org/dc/dcmitype/StillImage" />
        <dc:title />
      </cc:Work>
    </rdf:RDF>
  </metadata>
  <g
     inkscape:groupmode="layer"
     id="g4477"
     inkscape:label="Копия слоя Копия слоя Layer 5"
     style="display:inline"
     sodipodi:insensitive="true">
    <path
       style="fill:url(#linearGradient4523);fill-opacity:1;fill-rule:evenodd;stroke:#bdbdbd;stroke-width:1px;stroke-linecap:butt;stroke-linejoin:miter;stroke-opacity:1"
       d="M 239.53747,126.94441 189.41685,264.51571 78.783753,224.24857 138.27756,60.790667 c 26.30639,9.732317 63.0584,22.384234 89.04833,33.351495 3.26333,1.37854 3.25778,6.746748 5.44042,11.013748 5.30881,10.37857 3.63561,6.59966 6.77116,21.7885 z"
       id="path4479"
       inkscape:connector-curvature="0"
       sodipodi:nodetypes="cccccsc" />
    <rect
       transform="matrix(0.93969262,0.34202014,-0.34202014,0.93969262,0,0)"
       style="display:inline;fill:#000000;fill-opacity:1;stroke:#000000;stroke-width:1;stroke-linejoin:miter;stroke-miterlimit:4;stroke-dasharray:none;stroke-opacity:1"
       id="rect4481"
       width="6.5"
       height="18.5"
       x="161.68663"
       y="20.092087" />
    <rect
       transform="matrix(0.93969262,0.34202014,-0.34202014,0.93969262,0,0)"
       style="display:inline;fill:#000000;fill-opacity:1;stroke:#000000;stroke-width:0.93185019;stroke-linejoin:miter;stroke-miterlimit:4;stroke-dasharray:none;stroke-opacity:1"
       id="rect4483"
       width="74.547333"
       height="9.0681496"
       x="171.65254"
       y="30.058029" />
    <rect
       transform="matrix(0.93969262,0.34202014,-0.34202014,0.93969262,0,0)"
       style="display:inline;fill:#000000;fill-opacity:1;stroke:#000000;stroke-width:1;stroke-linejoin:miter;stroke-miterlimit:4;stroke-dasharray:none;stroke-opacity:1"
       id="rect4485"
       width="87.25"
       height="2"
       x="168.43663"
       y="52.592091" />
    <rect
       transform="matrix(0.93969262,0.34202014,-0.34202014,0.93969262,0,0)"
       style="display:inline;fill:#000000;fill-opacity:1;stroke:#000000;stroke-width:1;stroke-linejoin:miter;stroke-miterlimit:4;stroke-dasharray:none;stroke-opacity:1"
       id="rect4487"
       width="94.5"
       height="2"
       x="161.18663"
       y="60.592091" />
    <rect
       transform="matrix(0.93969262,0.34202014,-0.34202014,0.93969262,0,0)"
       style="display:inline;fill:#000000;fill-opacity:1;stroke:#000000;stroke-width:1;stroke-linejoin:miter;stroke-miterlimit:4;stroke-dasharray:none;stroke-opacity:1"
       id="rect4489"
       width="94.5"
       height="2"
       x="161.18663"
       y="68.592087" />
    <rect
       transform="matrix(0.93969262,0.34202014,-0.34202014,0.93969262,0,0)"
       style="display:inline;fill:#000000;fill-opacity:1;stroke:#000000;stroke-width:1;stroke-linejoin:miter;stroke-miterlimit:4;stroke-dasharray:none;stroke-opacity:1"
       id="rect4491"
       width="94.5"
       height="2"
       x="161.18663"
       y="76.592087" />
    <rect
       transform="matrix(0.93969262,0.34202014,-0.34202014,0.93969262,0,0)"
       style="display:inline;fill:#000000;fill-opacity:1;stroke:#000000;stroke-width:1;stroke-linejoin:miter;stroke-miterlimit:4;stroke-dasharray:none;stroke-opacity:1"
       id="rect4493"
       width="94.5"
       height="2"
       x="161.18663"
       y="84.592087" />
    <rect
       transform="matrix(0.93969262,0.34202014,-0.34202014,0.93969262,0,0)"
       style="display:inline;fill:#000000;fill-opacity:1;stroke:#000000;stroke-width:1;stroke-linejoin:miter;stroke-miterlimit:4;stroke-dasharray:none;stroke-opacity:1"
       id="rect4495"
       width="94.5"
       height="2"
       x="161.18663"
       y="92.592079" />
    <rect
       transform="matrix(0.93969262,0.34202014,-0.34202014,0.93969262,0,0)"
       style="display:inline;fill:#000000;fill-opacity:1;stroke:#000000;stroke-width:0.98828661;stroke-linejoin:miter;stroke-miterlimit:4;stroke-dasharray:none;stroke-opacity:1"
       id="rect4497"
       width="36.261711"
       height="2.0117135"
       x="161.18074"
       y="100.58623" />
    <rect
       transform="matrix(0.93969262,0.34202014,-0.34202014,0.93969262,0,0)"
       style="display:inline;fill:#000000;fill-opacity:1;stroke:#000000;stroke-width:1;stroke-linejoin:miter;stroke-miterlimit:4;stroke-dasharray:none;stroke-opacity:1"
       id="rect4499"
       width="87.25"
       height="2"
       x="168.43663"
       y="116.34208" />
    <rect
       transform="matrix(0.93969262,0.34202014,-0.34202014,0.93969262,0,0)"
       style="display:inline;fill:#000000;fill-opacity:1;stroke:#000000;stroke-width:1;stroke-linejoin:miter;stroke-miterlimit:4;stroke-dasharray:none;stroke-opacity:1"
       id="rect4501"
       width="94.5"
       height="2"
       x="161.18663"
       y="124.3421" />
    <rect
       transform="matrix(0.93969262,0.34202014,-0.34202014,0.93969262,0,0)"
       style="display:inline;fill:#000000;fill-opacity:1;stroke:#000000;stroke-width:1;stroke-linejoin:miter;stroke-miterlimit:4;stroke-dasharray:none;stroke-opacity:1"
       id="rect4503"
       width="94.5"
       height="2"
       x="161.18663"
       y="132.3421" />
    <rect
       transform="matrix(0.93969262,0.34202014,-0.34202014,0.93969262,0,0)"
       style="display:inline;fill:#000000;fill-opacity:1;stroke:#000000;stroke-width:1;stroke-linejoin:miter;stroke-miterlimit:4;stroke-dasharray:none;stroke-opacity:1"
       id="rect4505"
       width="94.5"
       height="2"
       x="161.18663"
       y="140.34209" />
    <rect
       transform="matrix(0.93969262,0.34202014,-0.34202014,0.93969262,0,0)"
       style="display:inline;fill:#000000;fill-opacity:1;stroke:#000000;stroke-width:1;stroke-linejoin:miter;stroke-miterlimit:4;stroke-dasharray:none;stroke-opacity:1"
       id="rect4507"
       width="94.5"
       height="2"
       x="161.18663"
       y="148.34209" />
    <rect
       transform="matrix(0.93969262,0.34202014,-0.34202014,0.93969262,0,0)"
       style="display:inline;fill:#000000;fill-opacity:1;stroke:#000000;stroke-width:0.98828661;stroke-linejoin:miter;stroke-miterlimit:4;stroke-dasharray:none;stroke-opacity:1"
       id="rect4509"
       width="36.261711"
       height="2.0117135"
       x="161.18074"
       y="156.33623" />
    <rect
       transform="matrix(0.93969262,0.34202014,-0.34202014,0.93969262,0,0)"
       style="display:inline;fill:#000000;fill-opacity:1;stroke:#000000;stroke-width:1;stroke-linejoin:miter;stroke-miterlimit:4;stroke-dasharray:none;stroke-opacity:1"
       id="rect4511"
       width="60"
       height="0.25"
       x="199.43663"
       y="177.34209" />
    <circle
       transform="matrix(0.93969262,0.34202014,-0.34202014,0.93969262,0,0)"
       style="display:inline;fill:none;fill-opacity:1;stroke:#2e2be2;stroke-width:1;stroke-linejoin:miter;stroke-miterlimit:4;stroke-dasharray:none;stroke-opacity:1"
       id="circle4513"
       cx="215.06161"
       cy="169.46709"
       r="11.625" />
    <circle
       transform="matrix(0.93969262,0.34202014,-0.34202014,0.93969262,0,0)"
       style="display:inline;fill:none;fill-opacity:1;stroke:#2e2be2;stroke-width:0.7525773;stroke-linejoin:miter;stroke-miterlimit:4;stroke-dasharray:none;stroke-opacity:1"
       id="circle4515"
       cx="215.06161"
       cy="169.71709"
       r="8.7487106" />
    <path
       style="display:inline;fill:#0000ff;fill-opacity:1;stroke:#2e2be2;stroke-width:1;stroke-linejoin:miter;stroke-miterlimit:4;stroke-dasharray:none;stroke-opacity:1"
       id="path4517"
       d="m 152.54109,236.50059 c 1.04611,-0.64991 2.19552,-1.09733 3.32364,-1.57932 1.55707,-0.66425 3.15901,-1.2136 4.75285,-1.78095 0.94478,-0.3236 1.90778,-0.57967 2.81928,-0.99192 0.52406,-0.25382 1.05604,-0.46275 1.44622,-0.90748 0.35055,-0.60446 0.29815,-1.33328 0.0821,-1.9727 -0.39753,-0.72075 -1.03971,-1.24685 -1.82697,-1.47203 0.19208,-0.14327 -1.14403,0.0987 -0.8578,0.0768 0.37937,-0.0289 0.75644,-0.20391 1.13226,-0.14454 0.20421,0.0319 -0.38808,0.14391 -0.57477,0.2326 -0.21647,0.10286 -1.02946,0.57101 -1.221,0.68002 -1.56586,0.82193 -2.82993,2.02794 -4.02215,3.31165 -1.51072,1.70022 -2.88456,3.51511 -4.25144,5.3311 -0.80781,1.05378 -1.60791,2.11319 -2.41633,3.16643 -0.43019,0.61221 -0.95993,1.13371 -1.46924,1.67656 -0.05,0.068 -0.20239,0.22448 -0.17854,0.34447 0.0714,0.35971 1.30659,0.45748 1.51476,0.48737 2.7225,0.2941 5.47031,0.22092 8.19616,0.0221 1.53275,-0.13733 1.3881,-0.0977 2.86057,-0.32943 0.40115,-0.0631 0.80914,-0.0993 1.20042,-0.20807 0.19436,-0.0541 -0.74338,0.18779 -0.60372,0.0422 0.19272,-0.20088 0.53308,-0.16065 0.79833,-0.24508 0.21397,-0.0681 0.42617,-0.14168 0.63924,-0.21253 0.45686,-0.21242 1.37918,-0.49886 1.37448,-1.16228 -7e-4,-0.0838 -0.0455,-0.16142 -0.0684,-0.24214 -0.93384,-1.06385 -2.38233,-1.54673 -3.65054,-2.08741 -1.88532,-0.78868 -3.89025,-1.1582 -5.9275,-1.06772 -1.93127,0.26135 0.17759,-0.0718 0.27159,-0.0812 0.17377,-0.0173 -0.34221,0.0701 -0.51135,0.11351 -0.36001,0.0923 -0.65772,0.21696 -0.9699,0.41288 -0.0407,0.04 -0.23633,0.15189 -0.13276,0.2617 0.13517,0.14328 0.79389,0.45999 0.83688,0.48035 0.72921,0.34533 1.39913,0.60225 2.15417,0.90891 3.2394,1.30207 6.56626,2.37588 9.78819,3.72094 0.24553,0.12615 0.50122,0.2343 0.73659,0.3785 0.0665,0.0407 0.80903,0.59615 0.25773,0.7388 -1.70206,0.44036 -1.45978,0.42276 -2.51258,0.28368 -1.48578,-0.31164 -2.9186,-0.82562 -4.35862,-1.2976 -0.0972,-0.0165 -0.3871,-0.0248 -0.29171,-0.0494 0.57368,-0.14944 1.15521,-0.30808 1.74765,-0.32962 0.15871,-0.006 0.26856,0.16979 0.40485,0.2513 0.24948,0.14936 0.4988,0.29912 0.75242,0.44131 0.88058,0.49365 1.64984,0.88538 2.55462,1.35782 2.88736,1.51127 5.82599,2.9359 8.90393,4.01628 -0.83875,0.42334 1.95317,0.0963 1.48702,0.29074 -0.3695,0.15409 -0.79079,0.19917 -1.18964,0.16474 -0.12736,-0.0111 0.2277,-0.1348 0.29788,-0.24169 0.20842,-0.31735 0.12832,-0.75639 0.12235,-1.09326 -0.53698,-2.78668 -2.25364,-5.15808 -4.24424,-7.12016 -0.73052,-0.72004 -1.52997,-1.36661 -2.29494,-2.04991 -5.66893,-4.35294 -12.01949,-7.7308 -18.50579,-10.69154 -1.2931,-0.59024 -2.60589,-1.13633 -3.90883,-1.7045 -3.04844,-1.25828 -6.15445,-2.38862 -9.35515,-3.19584 -1.2587,-0.31749 -2.36782,-0.55008 -3.64814,-0.65596 -0.38084,-0.0313 -0.76411,-0.0153 -1.14618,-0.0229 -0.24973,0.0416 -0.49947,0.0831 -0.74924,0.12475 0,0 1.58543,-0.54009 1.58543,-0.54009 l 0,0 c 0.24045,-0.0283 0.48089,-0.0566 0.72133,-0.085 0.36969,0.0175 0.74112,0.0128 1.1091,0.0524 1.24157,0.13342 2.32774,0.38161 3.54528,0.70951 3.14837,0.84775 6.20489,1.99581 9.2084,3.25751 1.29514,0.57175 2.59941,1.12334 3.88544,1.71533 6.51384,2.99844 12.90274,6.38246 18.65305,10.6922 0.78486,0.68396 1.6038,1.33068 2.35456,2.05192 2.05931,1.97834 3.82459,4.36614 4.44728,7.1933 0.0232,0.40529 0.11666,0.84191 -0.0766,1.23117 -0.0666,0.13419 -0.15585,0.29297 -0.29954,0.33509 -1.50628,0.44128 -2.24333,0.49204 -3.57082,0.0333 -3.04744,-1.13513 -5.96674,-2.57425 -8.86175,-4.04948 -0.73338,-0.37133 -1.8751,-0.94323 -2.62804,-1.34535 -0.26629,-0.1423 -0.53226,-0.28554 -0.79146,-0.44035 -0.15751,-0.0941 -0.60479,-0.1959 -0.45777,-0.3055 1.01946,-0.76031 1.16467,-0.66468 1.86384,-0.46764 1.42528,0.4996 2.86427,0.99781 4.35568,1.25749 0.1653,0.009 0.65096,-0.0287 0.49586,0.0293 -0.4248,0.15882 -0.8922,0.16758 -1.33082,0.2828 -0.0653,0.0171 0.14645,0.0524 0.20246,0.0137 0.0372,-0.0255 -4.8e-4,-0.0978 -0.0295,-0.13192 -0.0899,-0.10464 -0.19869,-0.19413 -0.31468,-0.26887 -0.22003,-0.14178 -0.45903,-0.25169 -0.68854,-0.37758 -3.19498,-1.40358 -6.53022,-2.45012 -9.77894,-3.71939 -0.63454,-0.24902 -1.58118,-0.60552 -2.22406,-0.90762 -0.243,-0.11421 -1.07758,-0.42849 -0.95297,-0.89197 0.0209,-0.0787 0.10325,-0.12582 0.15469,-0.18876 0.46014,-0.33673 0.95192,-0.49211 1.51235,-0.59715 2.24982,-0.4217 1.57896,-0.33841 2.99764,-0.47108 2.04029,-0.0441 4.03675,0.34815 5.92092,1.14465 1.07069,0.4511 2.72147,1.03533 3.5354,1.9023 0.089,0.0949 0.15317,0.21017 0.22974,0.31526 0.0274,0.10797 0.0784,0.21255 0.0822,0.32385 0.0257,0.74559 -0.85728,1.09797 -1.39982,1.34007 -0.22703,0.0749 -1.30166,0.4328 -1.47122,0.4718 -2.17487,0.5005 -4.38357,0.88696 -6.61199,1.03666 -2.75799,0.18987 -5.53746,0.26202 -8.29163,-0.0295 -0.57387,-0.0911 -2.09504,-0.27163 -1.44565,-1.18512 0.50377,-0.54835 1.05938,-1.0469 1.48734,-1.66293 0.82599,-1.05398 1.64412,-2.11383 2.46849,-3.16924 1.37999,-1.81337 2.76725,-3.62424 4.25962,-5.34731 1.17459,-1.29952 2.41948,-2.5307 3.98237,-3.36035 0.54545,-0.31397 1.157,-0.79064 1.77584,-0.9504 0.71643,-0.18499 1.4459,-0.31587 2.17237,-0.45624 0.46965,-0.0907 0.44568,-0.06 0.89145,-0.003 0.80604,0.29372 1.46434,0.86237 1.86462,1.62806 0.22334,0.69493 0.27737,1.46498 -0.0473,2.14013 -0.37097,0.50362 -0.89711,0.72853 -1.45308,0.98687 -0.91543,0.43938 -1.8911,0.69283 -2.85314,1.00945 -1.59818,0.56337 -3.20487,1.10763 -4.76559,1.77048 -1.10249,0.47713 -2.23285,0.90471 -3.2546,1.54663 0,0 -1.73198,0.10026 -1.73198,0.10026 z"
       inkscape:connector-curvature="0" />
    <path
       style="display:inline;fill:url(#linearGradient4521);fill-opacity:1;fill-rule:evenodd;stroke:#bdbdbd;stroke-width:1px;stroke-linecap:butt;stroke-linejoin:miter;stroke-opacity:1"
       d="m 227.65687,94.255394 c 3.33502,1.59844 13.65352,27.541996 11.8806,32.689016 0.74807,-2.41753 -7.30603,-14.42798 -11.96516,-16.99207 2.72919,-5.30625 3.53634,-13.934741 0.0846,-15.696946 z"
       id="path4519"
       inkscape:connector-curvature="0"
       sodipodi:nodetypes="ccccc" />
  </g>
  <g
     style="display:inline"
     inkscape:label="Копия слоя Layer 5"
     id="g4429"
     inkscape:groupmode="layer"
     sodipodi:insensitive="true">
    <path
       sodipodi:nodetypes="cccccsc"
       inkscape:connector-curvature="0"
       id="path4431"
       d="M 222.77936,108.77058 199.30919,242.95522 83.364545,222.51106 113.57034,51.205461 c 27.59674,5.016404 61.98738,11.094191 89.48691,17.381732 3.50475,0.768188 4.34592,3.989787 6.88791,7.914869 7.00278,10.813001 13.31509,17.941417 12.8342,32.268518 z"
       style="fill:url(#linearGradient4473);fill-opacity:1;fill-rule:evenodd;stroke:#bdbdbd;stroke-width:1px;stroke-linecap:butt;stroke-linejoin:miter;stroke-opacity:1" />
    <rect
       y="40.967506"
       x="131.69328"
       height="18.5"
       width="6.5"
       id="rect4433"
       style="display:inline;fill:#000000;fill-opacity:1;stroke:#000000;stroke-width:1;stroke-linejoin:miter;stroke-miterlimit:4;stroke-dasharray:none;stroke-opacity:1"
       transform="matrix(0.98480775,0.17364817,-0.17364817,0.98480775,0,0)" />
    <rect
       y="50.933445"
       x="141.65919"
       height="9.0681496"
       width="74.547333"
       id="rect4435"
       style="display:inline;fill:#000000;fill-opacity:1;stroke:#000000;stroke-width:0.93185019;stroke-linejoin:miter;stroke-miterlimit:4;stroke-dasharray:none;stroke-opacity:1"
       transform="matrix(0.98480775,0.17364817,-0.17364817,0.98480775,0,0)" />
    <rect
       y="73.467514"
       x="138.44328"
       height="2"
       width="87.25"
       id="rect4437"
       style="display:inline;fill:#000000;fill-opacity:1;stroke:#000000;stroke-width:1;stroke-linejoin:miter;stroke-miterlimit:4;stroke-dasharray:none;stroke-opacity:1"
       transform="matrix(0.98480775,0.17364817,-0.17364817,0.98480775,0,0)" />
    <rect
       y="81.467514"
       x="131.19328"
       height="2"
       width="94.5"
       id="rect4439"
       style="display:inline;fill:#000000;fill-opacity:1;stroke:#000000;stroke-width:1;stroke-linejoin:miter;stroke-miterlimit:4;stroke-dasharray:none;stroke-opacity:1"
       transform="matrix(0.98480775,0.17364817,-0.17364817,0.98480775,0,0)" />
    <rect
       y="89.467514"
       x="131.19328"
       height="2"
       width="94.5"
       id="rect4441"
       style="display:inline;fill:#000000;fill-opacity:1;stroke:#000000;stroke-width:1;stroke-linejoin:miter;stroke-miterlimit:4;stroke-dasharray:none;stroke-opacity:1"
       transform="matrix(0.98480775,0.17364817,-0.17364817,0.98480775,0,0)" />
    <rect
       y="97.467514"
       x="131.19328"
       height="2"
       width="94.5"
       id="rect4443"
       style="display:inline;fill:#000000;fill-opacity:1;stroke:#000000;stroke-width:1;stroke-linejoin:miter;stroke-miterlimit:4;stroke-dasharray:none;stroke-opacity:1"
       transform="matrix(0.98480775,0.17364817,-0.17364817,0.98480775,0,0)" />
    <rect
       y="105.46751"
       x="131.19328"
       height="2"
       width="94.5"
       id="rect4445"
       style="display:inline;fill:#000000;fill-opacity:1;stroke:#000000;stroke-width:1;stroke-linejoin:miter;stroke-miterlimit:4;stroke-dasharray:none;stroke-opacity:1"
       transform="matrix(0.98480775,0.17364817,-0.17364817,0.98480775,0,0)" />
    <rect
       y="113.46751"
       x="131.19328"
       height="2"
       width="94.5"
       id="rect4447"
       style="display:inline;fill:#000000;fill-opacity:1;stroke:#000000;stroke-width:1;stroke-linejoin:miter;stroke-miterlimit:4;stroke-dasharray:none;stroke-opacity:1"
       transform="matrix(0.98480775,0.17364817,-0.17364817,0.98480775,0,0)" />
    <rect
       y="121.46165"
       x="131.18741"
       height="2.0117135"
       width="36.261711"
       id="rect4449"
       style="display:inline;fill:#000000;fill-opacity:1;stroke:#000000;stroke-width:0.98828661;stroke-linejoin:miter;stroke-miterlimit:4;stroke-dasharray:none;stroke-opacity:1"
       transform="matrix(0.98480775,0.17364817,-0.17364817,0.98480775,0,0)" />
    <rect
       y="137.21751"
       x="138.44328"
       height="2"
       width="87.25"
       id="rect4451"
       style="display:inline;fill:#000000;fill-opacity:1;stroke:#000000;stroke-width:1;stroke-linejoin:miter;stroke-miterlimit:4;stroke-dasharray:none;stroke-opacity:1"
       transform="matrix(0.98480775,0.17364817,-0.17364817,0.98480775,0,0)" />
    <rect
       y="145.21751"
       x="131.19328"
       height="2"
       width="94.5"
       id="rect4453"
       style="display:inline;fill:#000000;fill-opacity:1;stroke:#000000;stroke-width:1;stroke-linejoin:miter;stroke-miterlimit:4;stroke-dasharray:none;stroke-opacity:1"
       transform="matrix(0.98480775,0.17364817,-0.17364817,0.98480775,0,0)" />
    <rect
       y="153.21751"
       x="131.19328"
       height="2"
       width="94.5"
       id="rect4455"
       style="display:inline;fill:#000000;fill-opacity:1;stroke:#000000;stroke-width:1;stroke-linejoin:miter;stroke-miterlimit:4;stroke-dasharray:none;stroke-opacity:1"
       transform="matrix(0.98480775,0.17364817,-0.17364817,0.98480775,0,0)" />
    <rect
       y="161.21751"
       x="131.19328"
       height="2"
       width="94.5"
       id="rect4457"
       style="display:inline;fill:#000000;fill-opacity:1;stroke:#000000;stroke-width:1;stroke-linejoin:miter;stroke-miterlimit:4;stroke-dasharray:none;stroke-opacity:1"
       transform="matrix(0.98480775,0.17364817,-0.17364817,0.98480775,0,0)" />
    <rect
       y="169.21751"
       x="131.19328"
       height="2"
       width="94.5"
       id="rect4459"
       style="display:inline;fill:#000000;fill-opacity:1;stroke:#000000;stroke-width:1;stroke-linejoin:miter;stroke-miterlimit:4;stroke-dasharray:none;stroke-opacity:1"
       transform="matrix(0.98480775,0.17364817,-0.17364817,0.98480775,0,0)" />
    <rect
       y="177.21165"
       x="131.18741"
       height="2.0117135"
       width="36.261711"
       id="rect4461"
       style="display:inline;fill:#000000;fill-opacity:1;stroke:#000000;stroke-width:0.98828661;stroke-linejoin:miter;stroke-miterlimit:4;stroke-dasharray:none;stroke-opacity:1"
       transform="matrix(0.98480775,0.17364817,-0.17364817,0.98480775,0,0)" />
    <rect
       y="198.21751"
       x="169.44328"
       height="0.25"
       width="60"
       id="rect4463"
       style="display:inline;fill:#000000;fill-opacity:1;stroke:#000000;stroke-width:1;stroke-linejoin:miter;stroke-miterlimit:4;stroke-dasharray:none;stroke-opacity:1"
       transform="matrix(0.98480775,0.17364817,-0.17364817,0.98480775,0,0)" />
    <circle
       r="11.625"
       cy="190.34251"
       cx="185.06827"
       id="circle4465"
       style="display:inline;fill:none;fill-opacity:1;stroke:#2e2be2;stroke-width:1;stroke-linejoin:miter;stroke-miterlimit:4;stroke-dasharray:none;stroke-opacity:1"
       transform="matrix(0.98480775,0.17364817,-0.17364817,0.98480775,0,0)" />
    <circle
       r="8.7487106"
       cy="190.59251"
       cx="185.06827"
       id="circle4467"
       style="display:inline;fill:none;fill-opacity:1;stroke:#2e2be2;stroke-width:0.7525773;stroke-linejoin:miter;stroke-miterlimit:4;stroke-dasharray:none;stroke-opacity:1"
       transform="matrix(0.98480775,0.17364817,-0.17364817,0.98480775,0,0)" />
    <path
       inkscape:connector-curvature="0"
       d="m 158.12889,221.76912 c 0.91735,-0.82169 1.97161,-1.46191 2.99889,-2.13247 1.41807,-0.92454 2.90028,-1.74372 4.37139,-2.57923 0.87424,-0.48274 1.77814,-0.90213 2.60421,-1.46641 0.47202,-0.34096 0.95964,-0.6391 1.26666,-1.14482 0.24027,-0.65615 0.0621,-1.3648 -0.26162,-1.957 -0.51665,-0.64077 -1.24043,-1.04736 -2.05484,-1.13241 0.16428,-0.17446 -1.1095,0.29585 -0.83142,0.22459 0.36858,-0.0944 0.70954,-0.33216 1.08996,-0.33895 0.20665,-0.004 -0.3572,0.2091 -0.52565,0.32887 -0.19532,0.13888 -0.91467,0.7411 -1.08437,0.88172 -1.39935,1.08134 -2.43479,2.48853 -3.38598,3.95977 -1.19252,1.93672 -2.23035,3.96261 -3.26111,5.98836 -0.61256,1.17804 -1.21654,2.3603 -1.82978,3.53792 -0.31735,0.67761 -0.74848,1.28317 -1.15579,1.90622 -0.0374,0.0757 -0.16034,0.25621 -0.11601,0.37024 0.13278,0.34185 1.36618,0.22364 1.57638,0.21692 2.73221,-0.18314 5.42556,-0.73234 8.07548,-1.40146 1.48562,-0.40141 1.35004,-0.33729 2.7599,-0.82116 0.38411,-0.13183 0.77961,-0.23832 1.14606,-0.41337 0.18202,-0.087 -0.69948,0.31403 -0.58722,0.14643 0.15492,-0.23129 0.49709,-0.25078 0.74365,-0.37999 0.19889,-0.10423 0.39509,-0.21353 0.59263,-0.3203 0.41302,-0.28852 1.27159,-0.73078 1.15177,-1.3833 -0.0151,-0.0824 -0.0729,-0.15106 -0.10935,-0.22659 -1.10438,-0.88554 -2.61472,-1.10954 -3.95755,-1.42179 -1.99363,-0.44932 -4.03227,-0.46507 -6.02286,-0.0222 -1.85654,0.59274 0.16243,-0.10153 0.25338,-0.12709 0.16811,-0.0472 -0.32484,0.12851 -0.48388,0.20059 -0.33851,0.15341 -0.61005,0.32787 -0.88347,0.57502 -0.0332,0.0465 -0.20636,0.19062 -0.0853,0.28078 0.158,0.11763 0.86171,0.31514 0.90758,0.32773 0.7781,0.21346 1.48246,0.35014 2.27927,0.52103 3.41629,0.71977 6.87908,1.19957 10.28563,1.96471 0.2637,0.0816 0.53429,0.14371 0.79112,0.24485 0.0726,0.0285 0.90026,0.44661 0.3821,0.68282 -1.59973,0.72923 -1.36419,0.66982 -2.42514,0.71567 -1.51733,-0.0489 -3.01763,-0.30627 -4.51773,-0.52102 -0.0986,4.1e-4 -0.38553,0.0428 -0.29585,0.002 0.53901,-0.24679 1.08416,-0.504 1.66386,-0.6281 0.1553,-0.0332 0.29395,0.12058 0.44233,0.17719 0.27163,0.10377 0.54316,0.20796 0.81762,0.30394 0.95293,0.33325 1.77852,0.58544 2.7516,0.8936 3.10592,0.98692 6.24729,1.87962 9.46608,2.40911 -0.7525,0.56256 1.94022,-0.24431 1.51491,0.0281 -0.33712,0.21592 -0.74419,0.33346 -1.14296,0.36882 -0.12735,0.0112 0.20083,-0.1723 0.25139,-0.28975 0.15014,-0.34871 -0.005,-0.76717 -0.0694,-1.09789 -1.01274,-2.6511 -3.1151,-4.68838 -5.41617,-6.27499 -0.84445,-0.58224 -1.74403,-1.08016 -2.61603,-1.62025 -6.3387,-3.3024 -13.17933,-5.52618 -20.08122,-7.31561 -1.37595,-0.35673 -2.76363,-0.66656 -4.14543,-0.99984 -3.22062,-0.70982 -6.47573,-1.28363 -9.76797,-1.52279 -1.29471,-0.0941 -2.42738,-0.13056 -3.70663,-0.0125 -0.38051,0.0351 -0.75515,0.11766 -1.13273,0.17649 -0.23873,0.0843 -0.47746,0.16862 -0.7162,0.25295 0,0 1.46755,-0.80718 1.46755,-0.80718 l 0,0 c 0.23188,-0.0697 0.46375,-0.1393 0.69562,-0.20896 0.36711,-0.047 0.73209,-0.11601 1.10135,-0.14098 1.24587,-0.0842 2.35864,-0.0284 3.61462,0.0831 3.24775,0.28816 6.45719,0.88802 9.63416,1.609 1.37475,0.33816 2.75499,0.65489 4.12428,1.01457 6.93555,1.82177 13.81502,4.04496 20.22634,7.2907 0.89171,0.53728 1.81052,1.03196 2.67511,1.61187 2.37156,1.59069 4.52466,3.63568 5.62882,6.31176 0.0932,0.39511 0.26108,0.80886 0.13832,1.22576 -0.0423,0.14373 -0.1026,0.31559 -0.23679,0.38203 -1.40677,0.69613 -2.12381,0.8741 -3.51079,0.65286 -3.19826,-0.58871 -6.32311,-1.49903 -9.43031,-2.44914 -0.78672,-0.23834 -2.01041,-0.6033 -2.82173,-0.86855 -0.28696,-0.0939 -0.57376,-0.18879 -0.85591,-0.29623 -0.17145,-0.0653 -0.62961,-0.0879 -0.50386,-0.22137 0.87194,-0.92579 1.03155,-0.85683 1.75432,-0.78418 1.49038,0.24451 2.99402,0.48527 4.50787,0.48202 0.16446,-0.019 0.63609,-0.14122 0.49342,-0.0572 -0.39077,0.23017 -0.84955,0.31996 -1.2615,0.5096 -0.0614,0.0282 0.15332,0.0261 0.20175,-0.0218 0.0322,-0.0315 -0.0172,-0.0963 -0.052,-0.12479 -0.1067,-0.0874 -0.22939,-0.15668 -0.35659,-0.21014 -0.24131,-0.10142 -0.49577,-0.16815 -0.74365,-0.25228 -3.39017,-0.82746 -6.85647,-1.27894 -10.27624,-1.96479 -0.66814,-0.13505 -1.66231,-0.32175 -2.34788,-0.50762 -0.25914,-0.0703 -1.13562,-0.23487 -1.09338,-0.71294 0.007,-0.0811 0.0798,-0.14184 0.11956,-0.21276 0.39467,-0.41152 0.85201,-0.64993 1.38568,-0.85069 2.14242,-0.80598 1.49621,-0.60745 2.8703,-0.98446 2.00163,-0.39777 4.0359,-0.35786 6.02973,0.0991 1.13276,0.25833 2.85991,0.54703 3.81202,1.25949 0.1041,0.078 0.18734,0.18038 0.281,0.27058 0.0457,0.10157 0.11412,0.1957 0.13722,0.30465 0.15474,0.7298 -0.6536,1.23015 -1.14586,1.56278 -0.21058,0.11315 -1.20673,0.65226 -1.36694,0.72011 -2.05491,0.87056 -4.16296,1.63468 -6.33153,2.16907 -2.68312,0.6659 -5.40783,1.2196 -8.17077,1.41081 -0.58097,0.01 -2.11038,0.0963 -1.62948,-0.91608 0.4009,-0.6275 0.86149,-1.21496 1.17597,-1.89594 0.63043,-1.1814 1.25208,-2.36721 1.88066,-3.54974 1.04414,-2.02545 2.09587,-4.04971 3.26635,-6.00575 0.93109,-1.48374 1.94328,-2.91239 3.33836,-4.00083 0.48265,-0.40391 1.00212,-0.97954 1.58383,-1.24434 0.67342,-0.30657 1.36907,-0.56214 2.06014,-0.82652 0.44675,-0.17092 0.42849,-0.13648 0.87741,-0.15763 0.8448,0.14929 1.59185,0.59499 2.119,1.27954 0.34062,0.64559 0.52755,1.39457 0.32503,2.11583 -0.27788,0.5604 -0.75697,0.87325 -1.25964,1.22421 -0.82522,0.59167 -1.74206,1.01069 -2.6345,1.48956 -1.47607,0.83233 -2.96385,1.64732 -4.38575,2.57111 -1.00289,0.66133 -2.04183,1.2787 -2.93659,2.08829 0,0 -1.68826,0.39949 -1.68826,0.39949 z"
       id="path4469"
       style="display:inline;fill:#0000ff;fill-opacity:1;stroke:#2e2be2;stroke-width:1;stroke-linejoin:miter;stroke-miterlimit:4;stroke-dasharray:none;stroke-opacity:1" />
    <path
       sodipodi:nodetypes="cccc"
       inkscape:connector-curvature="0"
       id="path4471"
       d="m 203.15287,68.641229 c 10.99483,2.479283 21.48395,31.163787 19.75149,40.754351 0.86965,-5.56566 -4.65395,-24.372538 -23.08105,-24.997769 3.5767,-4.026694 9.35568,-14.275903 3.32956,-15.756582 z"
       style="display:inline;fill:url(#linearGradient4475);fill-opacity:1;fill-rule:evenodd;stroke:#bdbdbd;stroke-width:1px;stroke-linecap:butt;stroke-linejoin:miter;stroke-opacity:1" />
  </g>
  <g
     inkscape:groupmode="layer"
     id="layer5"
     inkscape:label="Layer 5"
     style="display:inline"
     sodipodi:insensitive="true">
    <path
       style="fill:url(#linearGradient4250);fill-opacity:1;fill-rule:evenodd;stroke:#bdbdbd;stroke-width:1px;stroke-linecap:butt;stroke-linejoin:miter;stroke-opacity:1"
       d="m 200.11122,90.342839 0,129.400541 -117.73328,0 0,-173.948268 c 28.04856,0.14807 56.09713,-0.21335 84.1457,2.828427 3.5849,0.147923 7.72133,4.401068 9.78267,8.59855 6.62394,13.488212 19.868,24.568475 23.80491,33.12075 z"
       id="path4222"
       inkscape:connector-curvature="0"
       sodipodi:nodetypes="cccccsc" />
    <rect
       style="display:inline;fill:#000000;fill-opacity:1;stroke:#000000;stroke-width:1;stroke-linejoin:miter;stroke-miterlimit:4;stroke-dasharray:none;stroke-opacity:1"
       id="rect6033"
       width="6.5"
       height="18.5"
       x="93.334526"
       y="56.05637" />
    <rect
       style="display:inline;fill:#000000;fill-opacity:1;stroke:#000000;stroke-width:0.93185019;stroke-linejoin:miter;stroke-miterlimit:4;stroke-dasharray:none;stroke-opacity:1"
       id="rect6035"
       width="74.547333"
       height="9.0681496"
       x="103.30045"
       y="66.022308" />
    <rect
       style="display:inline;fill:#000000;fill-opacity:1;stroke:#000000;stroke-width:1;stroke-linejoin:miter;stroke-miterlimit:4;stroke-dasharray:none;stroke-opacity:1"
       id="rect6037"
       width="87.25"
       height="2"
       x="100.08453"
       y="88.556374" />
    <rect
       style="display:inline;fill:#000000;fill-opacity:1;stroke:#000000;stroke-width:1;stroke-linejoin:miter;stroke-miterlimit:4;stroke-dasharray:none;stroke-opacity:1"
       id="rect6037-5"
       width="94.5"
       height="2"
       x="92.834526"
       y="96.556374" />
    <rect
       style="display:inline;fill:#000000;fill-opacity:1;stroke:#000000;stroke-width:1;stroke-linejoin:miter;stroke-miterlimit:4;stroke-dasharray:none;stroke-opacity:1"
       id="rect6037-5-4"
       width="94.5"
       height="2"
       x="92.834526"
       y="104.55637" />
    <rect
       style="display:inline;fill:#000000;fill-opacity:1;stroke:#000000;stroke-width:1;stroke-linejoin:miter;stroke-miterlimit:4;stroke-dasharray:none;stroke-opacity:1"
       id="rect6037-5-4-5"
       width="94.5"
       height="2"
       x="92.834526"
       y="112.55637" />
    <rect
       style="display:inline;fill:#000000;fill-opacity:1;stroke:#000000;stroke-width:1;stroke-linejoin:miter;stroke-miterlimit:4;stroke-dasharray:none;stroke-opacity:1"
       id="rect6037-5-4-5-1"
       width="94.5"
       height="2"
       x="92.834526"
       y="120.55637" />
    <rect
       style="display:inline;fill:#000000;fill-opacity:1;stroke:#000000;stroke-width:1;stroke-linejoin:miter;stroke-miterlimit:4;stroke-dasharray:none;stroke-opacity:1"
       id="rect6037-5-4-5-1-7"
       width="94.5"
       height="2"
       x="92.834526"
       y="128.55637" />
    <rect
       style="display:inline;fill:#000000;fill-opacity:1;stroke:#000000;stroke-width:0.98828661;stroke-linejoin:miter;stroke-miterlimit:4;stroke-dasharray:none;stroke-opacity:1"
       id="rect6037-5-4-5-1-7-3"
       width="36.261711"
       height="2.0117135"
       x="92.828667"
       y="136.55051" />
    <rect
       style="display:inline;fill:#000000;fill-opacity:1;stroke:#000000;stroke-width:1;stroke-linejoin:miter;stroke-miterlimit:4;stroke-dasharray:none;stroke-opacity:1"
       id="rect6037-4"
       width="87.25"
       height="2"
       x="100.08453"
       y="152.30637" />
    <rect
       style="display:inline;fill:#000000;fill-opacity:1;stroke:#000000;stroke-width:1;stroke-linejoin:miter;stroke-miterlimit:4;stroke-dasharray:none;stroke-opacity:1"
       id="rect6037-5-9"
       width="94.5"
       height="2"
       x="92.834526"
       y="160.30637" />
    <rect
       style="display:inline;fill:#000000;fill-opacity:1;stroke:#000000;stroke-width:1;stroke-linejoin:miter;stroke-miterlimit:4;stroke-dasharray:none;stroke-opacity:1"
       id="rect6037-5-4-59"
       width="94.5"
       height="2"
       x="92.834526"
       y="168.30637" />
    <rect
       style="display:inline;fill:#000000;fill-opacity:1;stroke:#000000;stroke-width:1;stroke-linejoin:miter;stroke-miterlimit:4;stroke-dasharray:none;stroke-opacity:1"
       id="rect6037-5-4-5-12"
       width="94.5"
       height="2"
       x="92.834526"
       y="176.30637" />
    <rect
       style="display:inline;fill:#000000;fill-opacity:1;stroke:#000000;stroke-width:1;stroke-linejoin:miter;stroke-miterlimit:4;stroke-dasharray:none;stroke-opacity:1"
       id="rect6037-5-4-5-1-5"
       width="94.5"
       height="2"
       x="92.834526"
       y="184.30637" />
    <rect
       style="display:inline;fill:#000000;fill-opacity:1;stroke:#000000;stroke-width:0.98828661;stroke-linejoin:miter;stroke-miterlimit:4;stroke-dasharray:none;stroke-opacity:1"
       id="rect6037-5-4-5-1-7-3-2"
       width="36.261711"
       height="2.0117135"
       x="92.828667"
       y="192.30051" />
    <rect
       style="display:inline;fill:#000000;fill-opacity:1;stroke:#000000;stroke-width:1;stroke-linejoin:miter;stroke-miterlimit:4;stroke-dasharray:none;stroke-opacity:1"
       id="rect6201"
       width="60"
       height="0.25"
       x="131.08453"
       y="213.30637" />
    <circle
       style="display:inline;fill:none;fill-opacity:1;stroke:#2e2be2;stroke-width:1;stroke-linejoin:miter;stroke-miterlimit:4;stroke-dasharray:none;stroke-opacity:1"
       id="path6205"
       cx="146.70953"
       cy="205.43137"
       r="11.625" />
    <circle
       style="display:inline;fill:none;fill-opacity:1;stroke:#2e2be2;stroke-width:0.7525773;stroke-linejoin:miter;stroke-miterlimit:4;stroke-dasharray:none;stroke-opacity:1"
       id="path6205-9"
       cx="146.70953"
       cy="205.68137"
       r="8.7487106" />
    <path
       style="display:inline;fill:#0000ff;fill-opacity:1;stroke:#2e2be2;stroke-width:1;stroke-linejoin:miter;stroke-miterlimit:4;stroke-dasharray:none;stroke-opacity:1"
       id="path6232"
       d="m 155.87761,206.03003 c 0.76073,-0.96851 1.68779,-1.78208 2.58303,-2.62083 1.23598,-1.15675 2.55342,-2.22086 3.85709,-3.29914 0.77714,-0.6272 1.59448,-1.19719 2.31002,-1.89634 0.40563,-0.41775 0.83407,-0.79603 1.04862,-1.34738 0.12268,-0.6879 -0.17582,-1.35486 -0.59748,-1.88184 -0.62007,-0.54132 -1.40346,-0.81605 -2.22027,-0.75839 0.13149,-0.20033 -1.04127,0.48402 -0.77978,0.36556 0.34658,-0.157 0.64108,-0.45033 1.01454,-0.52308 0.20287,-0.0395 -0.31546,0.26796 -0.46055,0.41515 -0.16825,0.1707 -0.77209,0.88868 -0.91479,1.05663 -1.19032,1.3079 -1.96568,2.87352 -2.64694,4.48758 -0.83809,2.11437 -1.50836,4.28971 -2.1717,6.46367 -0.39868,1.26651 -0.78819,2.53569 -1.18763,3.80191 -0.19485,0.72242 -0.51428,1.39365 -0.80721,2.07796 -0.0237,0.0811 -0.11342,0.28016 -0.05,0.38477 0.19013,0.3136 1.38426,-0.017 1.59011,-0.0601 2.65889,-0.6548 5.21595,-1.66335 7.70942,-2.78246 1.39335,-0.65328 1.27097,-0.5666 2.57538,-1.28793 0.35539,-0.19653 0.72638,-0.37009 1.05687,-0.60611 0.16416,-0.11724 -0.63432,0.43073 -0.55287,0.24617 0.1124,-0.25467 0.44599,-0.33328 0.66637,-0.50334 0.17777,-0.13718 0.35201,-0.27889 0.52801,-0.41834 0.35664,-0.35586 1.12537,-0.94049 0.89407,-1.56229 -0.0292,-0.0786 -0.098,-0.13611 -0.14705,-0.20416 -1.24137,-0.68031 -2.76766,-0.63864 -4.14432,-0.71297 -2.04136,-0.0963 -4.05176,0.2422 -5.9352,1.024 -1.72541,0.90613 0.14232,-0.12819 0.22746,-0.16916 0.15735,-0.0757 -0.29759,0.18298 -0.4417,0.28157 -0.30673,0.20986 -0.54385,0.42882 -0.7702,0.7197 -0.0246,0.0515 -0.17012,0.22356 -0.0352,0.29133 0.17602,0.0884 0.90334,0.16072 0.9507,0.16515 0.80334,0.0751 1.52074,0.0874 2.33511,0.11732 3.48939,0.1156 6.98288,-0.0132 10.47054,0.14878 0.27387,0.0346 0.55112,0.0487 0.82162,0.10376 0.0764,0.0155 0.96414,0.2835 0.49487,0.60609 -1.4488,0.99594 -1.22715,0.89653 -2.26402,1.12592 -1.50278,0.21527 -3.02497,0.22243 -4.53958,0.27139 -0.097,0.0177 -0.37223,0.10911 -0.29105,0.0531 0.48797,-0.33664 0.98018,-0.68461 1.52951,-0.90749 0.14718,-0.0597 0.31042,0.0677 0.46638,0.0977 0.28552,0.055 0.57102,0.11047 0.85798,0.15734 0.99632,0.16271 1.85316,0.2677 2.86497,0.40221 3.23011,0.43259 6.47877,0.76623 9.74061,0.72874 -0.64339,0.68468 1.86831,-0.57751 1.49677,-0.2354 -0.2945,0.27117 -0.67498,0.45761 -1.06155,0.56168 -0.12347,0.0332 0.16786,-0.20456 0.19726,-0.329 0.0873,-0.36948 -0.13842,-0.7546 -0.25902,-1.06915 -1.45771,-2.43496 -3.8819,-4.07623 -6.42353,-5.23915 -0.93272,-0.42676 -1.90509,-0.76091 -2.85764,-1.14137 -6.81585,-2.15152 -13.93871,-3.15366 -21.04648,-3.7174 -1.41699,-0.11238 -2.83739,-0.17654 -4.25608,-0.26481 -3.29495,-0.13978 -6.60024,-0.13963 -9.884,0.19654 -1.29137,0.1322 -2.41317,0.29298 -3.65248,0.6313 -0.36865,0.10064 -0.72325,0.24701 -1.08488,0.37052 -0.22046,0.12448 -0.44093,0.24897 -0.6614,0.37346 0,0 1.3051,-1.04975 1.3051,-1.04975 l 0,0 c 0.21625,-0.10886 0.43251,-0.21771 0.64876,-0.32657 0.35338,-0.11003 0.70082,-0.24138 1.06014,-0.33009 1.21231,-0.29931 2.31788,-0.43752 3.57414,-0.54578 3.24847,-0.27994 6.5133,-0.24676 9.76719,-0.0884 1.4126,0.0943 2.82686,0.16653 4.23781,0.28297 7.14653,0.58976 14.30754,1.58456 21.18507,3.66768 0.97146,0.37428 1.96222,0.70188 2.91437,1.12285 2.61175,1.15471 5.08725,2.79475 6.63933,5.23844 0.16039,0.37293 0.39757,0.75123 0.34907,1.18312 -0.0167,0.14889 -0.0462,0.3286 -0.16685,0.41735 -1.26452,0.92983 -1.93977,1.22961 -3.34409,1.25258 -3.2519,-0.0244 -6.48735,-0.37826 -9.71233,-0.77438 -0.81615,-0.0981 -2.08463,-0.24503 -2.92968,-0.36536 -0.2989,-0.0426 -0.59784,-0.0863 -0.89436,-0.14311 -0.18017,-0.0345 -0.6353,0.0228 -0.53463,-0.13051 0.69792,-1.06313 0.86708,-1.02294 1.59149,-1.07691 1.5102,-0.018 3.0328,-0.042 4.52308,-0.30807 0.15867,-0.0473 0.60191,-0.24953 0.476,-0.142 -0.34486,0.29453 -0.78108,0.46262 -1.15385,0.72091 -0.0556,0.0385 0.15551,-10e-4 0.19491,-0.0565 0.0262,-0.0366 -0.0336,-0.0918 -0.0729,-0.11386 -0.12027,-0.0676 -0.25312,-0.11447 -0.38767,-0.14503 -0.25525,-0.058 -0.51744,-0.0795 -0.77616,-0.11931 -3.48235,-0.22619 -6.97439,-0.0689 -10.46131,-0.15049 -0.68143,-0.017 -1.69292,-0.0282 -2.40035,-0.0922 -0.2674,-0.0242 -1.15915,-0.0341 -1.20057,-0.51225 -0.007,-0.0811 0.0539,-0.15353 0.0808,-0.23029 0.31721,-0.4738 0.7262,-0.788 1.21691,-1.07839 1.96991,-1.16576 1.36799,-0.85803 2.65574,-1.46792 1.90215,-0.73931 3.91244,-1.05325 5.95534,-0.94943 1.16041,0.0577 2.91145,0.0421 3.97281,0.57841 0.11606,0.0587 0.21582,0.14511 0.32372,0.21767 0.0627,0.0921 0.14637,0.17291 0.18804,0.2762 0.27911,0.69184 -0.43006,1.32495 -0.85708,1.73801 -0.18774,0.14799 -1.07514,0.85189 -1.22112,0.94654 -1.87253,1.21416 -3.81586,2.33273 -5.85869,3.23557 -2.52673,1.12171 -5.11389,2.14014 -7.80165,2.80821 -0.57049,0.11029 -2.0616,0.46134 -1.7638,-0.6192 0.28584,-0.68758 0.63742,-1.34609 0.82887,-2.07134 0.41571,-1.27293 0.822,-2.54867 1.23568,-3.82238 0.67657,-2.176 1.36081,-4.35214 2.17385,-6.48171 0.65929,-1.62288 1.40802,-3.20559 2.5929,-4.51975 0.40518,-0.48158 0.8168,-1.13867 1.34369,-1.50047 0.60996,-0.41884 1.25066,-0.79133 1.88532,-1.1717 0.41028,-0.24589 0.39828,-0.20881 0.83671,-0.3076 0.85789,2.9e-4 1.67099,0.30954 2.30899,0.89215 0.44756,0.57663 0.7617,1.28178 0.6875,2.02724 -0.17634,0.60015 -0.59383,0.99143 -1.02792,1.42435 -0.70994,0.72598 -1.54008,1.29784 -2.33581,1.9244 -1.30912,1.07601 -2.63277,2.13697 -3.87265,3.29363 -0.87282,0.82543 -1.78877,1.61383 -2.52935,2.5665 0,0 -1.59324,0.68659 -1.59324,0.68659 z"
       inkscape:connector-curvature="0" />
    <path
       style="display:inline;fill:url(#linearGradient4242);fill-opacity:1;fill-rule:evenodd;stroke:#bdbdbd;stroke-width:1px;stroke-linecap:butt;stroke-linejoin:miter;stroke-opacity:1"
       d="m 166.6272,48.535148 c 9.68809,1.66344 33.45541,33.968708 33.48402,41.807689 -0.5897,-4.007111 -10.53748,-10.955421 -30.33757,-8.371321 3.60471,-8.920636 7.88138,-31.067688 -3.14645,-33.436368 z"
       id="path4219"
       inkscape:connector-curvature="0"
       sodipodi:nodetypes="cccc" />
  </g>
</svg>
