<?xml version="1.0" encoding="UTF-8" standalone="no"?>
<!-- Created with Inkscape (http://www.inkscape.org/) -->

<svg
   xmlns:osb="http://www.openswatchbook.org/uri/2009/osb"
   xmlns:dc="http://purl.org/dc/elements/1.1/"
   xmlns:cc="http://creativecommons.org/ns#"
   xmlns:rdf="http://www.w3.org/1999/02/22-rdf-syntax-ns#"
   xmlns:svg="http://www.w3.org/2000/svg"
   xmlns="http://www.w3.org/2000/svg"
   xmlns:xlink="http://www.w3.org/1999/xlink"
   xmlns:sodipodi="http://sodipodi.sourceforge.net/DTD/sodipodi-0.dtd"
   xmlns:inkscape="http://www.inkscape.org/namespaces/inkscape"
   width="300"
   height="300"
   viewBox="0 0 300.00001 300.00001"
   id="svg2"
   version="1.1"
   inkscape:version="0.91 r13725"
   sodipodi:docname="pic1-1.svg"
   enable-background="new"
   inkscape:export-filename="D:\11\ECP\Новая папка\pic1-1.png"
   inkscape:export-xdpi="90"
   inkscape:export-ydpi="90">
  <defs
     id="defs4">
    <linearGradient
       inkscape:collect="always"
       id="linearGradient4364">
      <stop
         style="stop-color:#58729f;stop-opacity:1"
         offset="0"
         id="stop4366" />
      <stop
         style="stop-color:#d5e4ff;stop-opacity:1"
         offset="1"
         id="stop4368" />
    </linearGradient>
    <linearGradient
       inkscape:collect="always"
       id="linearGradient4445">
      <stop
         style="stop-color:#ffffff;stop-opacity:0.79888266"
         offset="0"
         id="stop4447" />
      <stop
         style="stop-color:#ffffff;stop-opacity:0"
         offset="1"
         id="stop4449" />
    </linearGradient>
    <linearGradient
       inkscape:collect="always"
       id="linearGradient4403">
      <stop
         style="stop-color:#ffffff;stop-opacity:0.96089387"
         offset="0"
         id="stop4405" />
      <stop
         style="stop-color:#ffffff;stop-opacity:0"
         offset="1"
         id="stop4407" />
    </linearGradient>
    <linearGradient
       id="linearGradient4266"
       osb:paint="gradient">
      <stop
         style="stop-color:#ffffff;stop-opacity:0"
         offset="0"
         id="stop4268" />
      <stop
         style="stop-color:#ffffff;stop-opacity:1"
         offset="1"
         id="stop4270" />
    </linearGradient>
    <linearGradient
       id="linearGradient4341"
       osb:paint="solid">
      <stop
         style="stop-color:#ffffff;stop-opacity:1;"
         offset="0"
         id="stop4343" />
    </linearGradient>
    <inkscape:path-effect
       effect="spiro"
       id="path-effect4154"
       is_visible="true" />
    <inkscape:path-effect
       effect="spiro"
       id="path-effect4150"
       is_visible="true" />
    <inkscape:path-effect
       effect="spiro"
       id="path-effect4146"
       is_visible="true" />
    <linearGradient
       inkscape:collect="always"
       xlink:href="#linearGradient4403"
       id="linearGradient4409"
       x1="205.29489"
       y1="132.12747"
       x2="316.21478"
       y2="151.72733"
       gradientUnits="userSpaceOnUse"
       spreadMethod="reflect"
       gradientTransform="matrix(1.0649147,0,0,1.0649147,-27.19657,-11.500507)" />
    <linearGradient
       inkscape:collect="always"
       xlink:href="#linearGradient4445"
       id="linearGradient4451"
       x1="260.95618"
       y1="121.15966"
       x2="295.52194"
       y2="128.12506"
       gradientUnits="userSpaceOnUse"
       spreadMethod="reflect"
       gradientTransform="matrix(1.0649147,0,0,1.0649147,-27.19657,-11.500507)" />
    <linearGradient
       inkscape:collect="always"
       xlink:href="#linearGradient4364"
       id="linearGradient4370"
       x1="99.207756"
       y1="402.9877"
       x2="101.30296"
       y2="398.97015"
       gradientUnits="userSpaceOnUse"
       gradientTransform="translate(-27.838835,2.5355339)" />
  </defs>
  <sodipodi:namedview
     id="base"
     pagecolor="#ffffff"
     bordercolor="#666666"
     borderopacity="1.0"
     inkscape:pageopacity="0.0"
     inkscape:pageshadow="2"
     inkscape:zoom="1"
     inkscape:cx="-1.7048745"
     inkscape:cy="134.06667"
     inkscape:document-units="px"
     inkscape:current-layer="layer7"
     showgrid="false"
     units="px"
     inkscape:snap-nodes="false"
     inkscape:window-width="1366"
     inkscape:window-height="712"
     inkscape:window-x="-4"
     inkscape:window-y="-4"
     inkscape:window-maximized="1"
     inkscape:snap-bbox="false" />
  <metadata
     id="metadata7">
    <rdf:RDF>
      <cc:Work
         rdf:about="">
        <dc:format>image/svg+xml</dc:format>
        <dc:type
           rdf:resource="http://purl.org/dc/dcmitype/StillImage" />
        <dc:title />
      </cc:Work>
    </rdf:RDF>
  </metadata>
  <g
     inkscape:groupmode="layer"
     id="layer5"
     inkscape:label="Layer 5"
     style="display:inline"
     sodipodi:insensitive="true">
    <path
       style="fill:#a6dcd2;fill-opacity:1;fill-rule:evenodd;stroke:#a18663;stroke-width:1.0649147px;stroke-linecap:butt;stroke-linejoin:miter;stroke-opacity:1"
       d="M 108.25839,199.78305 70.175209,147.85143 215.15097,84.235201 277.46891,112.79759 Z"
       id="path4196"
       inkscape:connector-curvature="0" />
    <path
       style="fill:#fff9f9;fill-opacity:1;fill-rule:evenodd;stroke:none;stroke-width:1px;stroke-linecap:butt;stroke-linejoin:miter;stroke-opacity:1"
       d="m 169.7108,112.79759 34.62109,23.80199 -45.0074,22.5037 -29.42793,-28.56239 z"
       id="path4198"
       inkscape:connector-curvature="0"
       sodipodi:nodetypes="ccccc" />
    <path
       style="fill:#000080;fill-opacity:1;stroke:none;stroke-width:1;stroke-linejoin:miter;stroke-miterlimit:4;stroke-dasharray:none;stroke-opacity:1"
       id="path4233"
       d="m 156.40471,120.12159 c 1.85268,-1.1175 3.69896,-2.25336 5.74441,-2.97569 0.96562,-0.15404 1.95403,-0.71951 2.94102,-0.53439 0.66107,0.47267 0.18293,1.23363 -0.16022,1.75845 -0.7078,0.92245 -1.54183,1.74619 -2.38058,2.54961 -0.7615,0.67236 -1.41658,1.45019 -2.11756,2.18165 -0.50236,0.54475 -1.0098,1.07273 -1.63129,1.47948 -1.73175,1.42764 -3.02254,1.70113 -4.91068,2.18978 -0.89408,0.22833 -1.81522,0.27274 -2.73273,0.30306 -1.02556,-0.0112 -2.02002,0.27815 -2.97781,0.61842 -1.07097,0.34613 -2.18257,0.517 -3.27357,0.78377 0.64549,-0.50189 -2.15534,0.98511 -1.37458,0.51984 3.81522,-2.27353 2.35713,-1.43999 1.55633,-0.70483 -0.38308,0.42238 -0.80336,0.99384 -0.85568,1.58362 0.37512,0.29291 1.06294,0.21723 1.52024,0.23017 0.95073,0.003 1.88985,-0.22973 2.80637,-0.46601 0.93999,-0.22641 1.85569,-0.54443 2.77107,-0.85419 0.82751,-0.25049 1.68683,-0.4259 2.48939,-0.75064 0.89784,-0.30303 1.83217,-0.51903 2.76326,-0.70302 0.99248,-0.1794 1.96043,-0.45026 2.96216,-0.58612 0.90167,-0.11382 1.77806,-0.34746 2.68513,-0.44024 0.98863,-0.0136 1.94926,-0.24222 2.92359,-0.38236 0.80158,-0.0761 1.5635,-0.36598 2.31933,-0.62768 0.40718,-0.11428 0.81186,-0.25459 1.20474,-0.4118 0.13987,-0.056 0.5417,-0.26243 0.412,-0.18578 -2.61383,1.54467 -2.80245,1.7197 -1.87893,0.99039 0.1068,-0.1017 0.64752,-0.71551 0.31315,-0.89145 -0.15903,-0.0837 -0.35893,-0.0193 -0.53858,-0.0234 -0.872,0.0123 -1.71427,0.28527 -2.52105,0.594 -1.09154,0.55835 -0.62689,0.32757 1.81049,-1.05103 0.13072,-0.0739 -0.25883,0.15239 -0.38911,0.22709 -1.00069,0.57385 -2.00084,1.14863 -3.00375,1.71857 -0.69138,0.39291 1.37804,-0.79406 2.06916,-1.18745 0.18218,-0.10372 -0.36156,0.21225 -0.54234,0.31838 -2.17906,1.56137 -4.60269,2.5128 -7.03226,3.55249 -1.552,0.63115 -3.10749,1.25686 -4.72556,1.698 -1.0451,0.2319 -2.14045,0.28746 -3.07771,0.84379 -0.13634,0.0666 -0.53998,0.27631 -0.40904,0.19966 5.12073,-2.99738 -0.066,0.20666 -1.8515,1.01193 0.73992,-0.4216 2.95135,-1.70069 2.21977,-1.26479 -5.05116,3.00963 -2.7686,1.50529 -0.62913,0.38658 0.0974,-0.0509 -0.16475,0.14574 -0.24314,0.2228 -0.19104,0.18783 -0.26054,0.27897 -0.43206,0.48138 -0.40037,0.58706 -0.34855,0.76481 0.31385,0.9304 0.78177,0.12748 1.57818,0.11465 2.36788,0.11625 0.87232,-0.002 1.74462,-0.007 2.61693,-0.01 0.98469,0.001 1.96938,-5.5e-4 2.95407,-0.001 1.01318,0.001 2.02637,-1.6e-4 3.03955,0.002 1.12667,0.0279 2.26225,-0.0783 3.35949,-0.33659 1.1456,-0.29798 2.31081,-0.51662 3.45634,-0.81305 1.36206,-0.29309 2.65586,-0.80585 4.01035,-1.13218 0.9787,-0.23307 1.908,-0.60111 2.86214,-0.9074 1.31774,-0.7071 -1.27898,0.75838 -1.93515,1.10734 -0.10543,0.0561 0.19362,-0.14132 0.27881,-0.22502 0.27337,-0.2686 0.39775,-0.58214 0.52389,-0.9344 0.17476,-0.6563 0.31146,-1.33014 -0.35126,-1.71091 -0.63704,-0.23636 -1.30281,0.0508 -1.85055,0.38617 -1.4893,0.83512 2.53534,-1.47258 1.90725,-1.09464 -9.3525,5.62774 2.39103,-1.6431 -1.56747,0.98312 -1.13989,0.83861 -2.25987,1.71116 -3.45861,2.46499 -1.88138,1.2977 -3.37448,2.09195 -5.51936,2.23343 -0.87108,0.035 -1.74319,0.0192 -2.61468,0.0123 -0.88136,0.15615 -1.75672,0.46325 -2.54727,0.88604 -0.15937,0.0895 -0.31869,0.17897 -0.4781,0.26834 -0.27171,0.15233 -2.24222,1.25623 -1.17796,0.65397 0.64593,-0.36553 2.5761,-1.47484 1.94183,-1.08944 -0.23179,0.14083 -6.38108,3.68698 -1.19009,0.69243 -7.92381,4.50266 -1.39136,0.78106 -1.04391,0.58508 0.14627,-0.0825 -0.2917,0.16672 -0.43412,0.25574 -0.37105,0.23195 -0.68038,0.49008 -0.98666,0.80034 -0.4217,0.56809 -0.60097,0.89866 0.16419,1.12269 0.92009,0.16079 1.86275,0.13183 2.79352,0.13614 1.44245,0.003 2.88489,-0.003 4.32732,-0.0106 0.1636,0.12924 1.49315,-0.19958 1.42618,-0.15963 -0.80872,0.44587 -1.61745,0.89175 -2.42618,1.33762 0.0893,-0.0239 0.0775,-0.0161 -0.0408,-0.0119 -0.73439,-0.25806 -1.41961,-0.12217 -2.09693,0.21415 4.05699,-2.3781 2.1663,-1.32929 1.36826,-0.61786 -0.3429,0.30569 -0.64996,0.62967 -0.95309,0.97403 -0.4248,0.52731 -0.89448,1.23642 -0.31051,1.8046 0.79279,0.33902 1.67888,0.33709 2.52723,0.35804 1.1024,0.0132 2.20494,0.003 3.30737,-0.003 0.54081,0.10053 1.79781,-0.21287 2.2162,0.0902 0.0227,0.1049 0.10138,0.21274 0.068,0.3148 -0.0789,0.24199 -0.39697,0.31884 -0.60055,0.47161 -0.52845,0.39655 -1.023,0.8163 -1.50645,1.26612 -0.72293,0.73256 -1.23841,1.62021 -1.32812,2.65426 0.15339,0.83805 1.39643,0.7558 2.05778,0.80487 1.10068,0.0718 2.22643,0.0634 3.24462,-0.40184 -0.79751,0.44891 -1.59504,0.89782 -2.39256,1.34673 0.0237,-0.0167 0.0476,-0.0334 0.0713,-0.0503 0.0371,0.0919 0.0191,0.31232 0.11127,0.27583 3.8698,-1.53229 3.07756,-1.93354 2.20966,-1.01478 -0.38527,0.51561 0.16026,0.57727 0.58161,0.6498 0.98074,-0.11823 2.72824,-1.28386 -1.71414,1.11833 -0.10234,0.0554 0.19562,-0.126 0.29061,-0.1931 0.21522,-0.15202 0.42366,-0.31344 0.63709,-0.46796 1.53757,-0.85504 3.04894,-1.99862 4.81105,-2.36785 0.75821,-0.31307 1.55352,-0.46764 2.36512,-0.55126 -0.0303,0.33546 1.42476,-0.48542 1.05495,-0.28195 -4.11292,2.26298 -2.45514,1.86918 -2.06237,0.84927 -0.0223,-0.29089 -0.31196,-0.49453 -0.4847,-0.72183 0,0 2.57887,-1.53565 2.57887,-1.53565 l 0,0 c 0.23964,0.30378 0.56394,0.55341 0.61406,0.95997 -0.26184,1.70699 -2.54075,2.36202 -4.09863,2.51596 -0.80289,0.10812 -1.57443,0.31797 -2.34164,0.57688 -1.19071,0.31893 -4.17706,1.99055 0.34603,-0.53845 -1.37603,0.9157 -2.72199,2.4802 -4.45897,2.3471 -0.59063,-0.15421 -1.19966,-0.4736 -0.87922,-1.17842 0.71408,-1.06942 1.45181,-1.22982 3.05671,-1.86081 0.11853,-0.0466 0.21911,0.30158 0.10931,0.3661 -0.91727,0.53885 -1.8392,1.06976 -2.75879,1.60463 -1.0684,0.35434 -2.19639,0.37137 -3.31069,0.28037 -0.89141,-0.0841 -2.08994,-0.12003 -2.31064,-1.18936 0.0346,-1.09508 0.52496,-2.06571 1.25997,-2.86855 0.23853,-0.23471 1.75287,-1.71467 2.06419,-1.69329 0.0864,0.006 0.12954,0.11492 0.19432,0.17238 -0.69788,0.042 -1.40395,-0.0381 -2.10261,8.7e-4 -1.10653,0.004 -2.21322,0.0167 -3.31967,-0.001 -0.90896,-0.0358 -1.87769,-0.0453 -2.67038,-0.54573 -0.62364,-0.71497 -0.42767,-1.48486 0.12348,-2.19979 1.30732,-1.55464 2.72516,-2.49513 4.67839,-3.37222 0.7629,-0.28131 1.54091,-0.35112 2.29174,0.0246 1.48371,1.48945 -2.66239,2.30972 -3.89698,2.19196 -1.44357,-1.1e-4 -2.88711,0.004 -4.33066,0.011 -0.95962,-0.002 -1.94594,0.0449 -2.88041,-0.20659 -0.76265,-0.34693 -0.92677,-0.93266 -0.43036,-1.63848 0.29063,-0.35163 0.24112,-0.32641 0.60017,-0.61892 1.41593,-1.15355 6.68998,-3.80857 1.8537,-1.11829 1.04139,-0.60115 2.07911,-1.20872 3.12418,-1.80346 0.64627,-0.36778 -2.56449,1.50654 -1.92772,1.12257 1.5828,-0.95441 3.17253,-1.89876 4.80323,-2.76935 0.8279,-0.38594 1.71956,-0.71557 2.63649,-0.77728 0.86592,0.006 1.73313,0.0223 2.59791,-0.0323 0.45934,-0.043 0.91122,-0.0926 1.35826,-0.2138 0.99674,-0.27005 2.85109,-1.3538 -1.00446,0.823 1.21474,-0.71672 2.33609,-1.59003 3.45033,-2.44972 1.24782,-0.82516 2.38145,-1.46106 3.75701,-2.26608 0.73387,-0.42949 -2.93711,1.71499 -2.20584,1.28111 2.4766,-1.46942 1.96675,-1.19016 3.21532,-1.86233 0.67093,-0.30107 1.35507,-0.50576 2.04293,-0.12769 0.70763,0.53082 0.73264,1.22759 0.53077,2.05091 -0.49432,1.80332 -2.14572,2.51609 -3.93474,3.16343 -0.94235,0.3273 -1.88876,0.63006 -2.85738,0.87388 -1.348,0.34364 -2.64776,0.84676 -4.01093,1.13297 -1.15471,0.2761 -2.31341,0.53514 -3.46874,0.80914 -1.12055,0.21016 -2.25678,0.33064 -3.39826,0.28821 -1.01491,0.002 -2.02981,1.6e-4 -3.04472,0.002 -0.98552,-4.5e-4 -1.97107,-0.002 -2.95659,0.004 -0.87279,0.003 -1.74558,0.009 -2.61838,0.009 -0.81189,-0.005 -1.6379,0.01 -2.4315,-0.18499 -0.67952,-0.26551 -1.00682,-0.74612 -0.58782,-1.43467 0.93768,-1.31404 1.8054,-1.36048 3.49223,-2.48659 0.21751,-0.14521 -7.41616,4.31694 0.68517,-0.38226 0.25315,-0.12459 0.99652,-0.52867 0.75443,-0.38378 -5.04931,3.02193 -0.0662,-0.0704 1.49822,-0.83618 0.9829,-0.44227 2.05614,-0.5275 3.09525,-0.77954 1.60111,-0.4589 3.14584,-1.0823 4.6852,-1.71477 1.07405,-0.4524 2.17209,-0.86383 3.20727,-1.40282 0.22874,-0.11911 0.8974,-0.50867 0.67524,-0.37771 -0.63968,0.37707 -1.28524,0.74406 -1.92787,1.11608 1.34422,-0.7915 1.4607,-0.8619 3.56292,-2.0674 0.70323,-0.40325 -1.40251,0.81337 -2.10274,1.22183 -0.12937,0.0755 0.26037,-0.14814 0.39019,-0.22285 3.07861,-1.77182 1.90476,-1.24126 3.3305,-1.86517 0.83278,-0.299 1.71607,-0.53253 2.60745,-0.48642 0.98067,0.17457 1.10648,0.73554 0.55228,1.51964 -1.29965,1.324 -3.12686,2.01485 -4.86478,2.57434 -0.76222,0.26572 -1.54113,0.50196 -2.3482,0.57965 -0.97336,0.15024 -1.94066,0.33458 -2.92748,0.37382 -0.90013,0.12005 -1.77943,0.34803 -2.68216,0.44835 -0.99146,0.15517 -1.95695,0.42377 -2.9452,0.5955 -0.9261,0.20085 -1.85749,0.41548 -2.74679,0.74514 -0.82324,0.26899 -1.65958,0.49514 -2.48934,0.74225 -0.9156,0.31309 -1.84066,0.60639 -2.78188,0.83219 -0.93602,0.23135 -1.89741,0.43917 -2.86672,0.40496 -0.62754,-0.0292 -1.41614,0.014 -1.77045,-0.60341 -0.0678,-0.61266 0.4106,-1.34944 0.76512,-1.825 0.20232,-0.19052 0.36044,-0.43628 0.59725,-0.58171 1.5017,-0.92218 2.72796,-1.74401 4.35688,-2.17604 1.08695,-0.25978 2.19773,-0.42443 3.25409,-0.8018 0.98549,-0.31467 1.98836,-0.5772 3.03276,-0.5534 0.90884,-0.0422 1.81865,-0.11497 2.69962,-0.3585 0.41043,-0.10764 0.82982,-0.19253 1.23797,-0.3072 1.01906,-0.28631 2.64914,-1.40144 -1.48842,1.01941 0.63182,-0.39292 1.18749,-0.83999 1.66145,-1.42276 0.74085,-0.69878 1.34911,-1.53285 2.12996,-2.19415 0.83783,-0.78595 1.66341,-1.59942 2.38484,-2.49292 0.0825,-0.10042 0.7142,-1.00832 0.59847,-1.13864 -0.0348,-0.0393 -0.0936,-0.0477 -0.14035,-0.0716 -0.9631,-0.0274 -1.90627,0.4277 -2.83459,0.62809 -1.19965,0.45547 -5.40978,2.67536 -0.61386,0.0374 0,0 -2.79157,1.11016 -2.79157,1.11016 z"
       inkscape:connector-curvature="0" />
    <path
       style="fill:#000080;fill-opacity:1;stroke:none;stroke-width:1;stroke-linejoin:miter;stroke-miterlimit:4;stroke-dasharray:none;stroke-opacity:1"
       id="path4261"
       d="m 152.14327,121.86823 c 1.02395,0.01 2.04798,0.009 3.07197,0.009 1.19686,0.001 2.39371,0.001 3.59057,-1e-5 1.32247,0.002 2.64492,0.003 3.96738,0.004 2.08106,-0.0564 4.15377,0.0898 6.2291,0.21663 1.96667,0.1197 3.93603,0.17859 5.9059,0.20645 1.22516,0.013 2.4504,0.009 3.6756,0.005 0.93068,-0.0769 1.60182,0.27578 2.06186,1.07058 0.40983,0.94007 0.005,1.92925 -0.3646,2.8172 -0.41784,0.99182 -0.90492,1.9601 -1.57091,2.80861 -1.35368,1.28486 -3.06018,2.24002 -4.9249,2.40023 -1.32427,0.10789 -2.63673,-0.0624 -3.95169,-0.19235 -0.28426,-0.0226 -0.56852,-0.0453 -0.85278,-0.0678 0,0 2.39683,-1.71266 2.39683,-1.71266 l 0,0 c 0.2874,0.0226 0.57481,0.0451 0.86222,0.0677 1.31175,0.12631 2.62611,0.2694 3.94391,0.12323 0.32798,-0.0421 0.50579,-0.0538 0.82597,-0.13889 0.1335,-0.0355 0.50953,-0.20396 0.39414,-0.128 -3.98147,2.62124 -2.30559,1.39792 -1.43849,0.81349 0.71262,-0.79195 1.1941,-1.76204 1.61212,-2.73529 0.36261,-0.76899 0.78964,-1.7152 0.47525,-2.55814 -0.41779,-0.72278 -1.0748,-0.86859 -1.88111,-0.81514 -1.21731,-0.002 -2.43465,-0.007 -3.6518,-0.0289 -1.96271,-0.0369 -3.92387,-0.11536 -5.88318,-0.23852 -2.08439,-0.12287 -4.16702,-0.2403 -6.25625,-0.17533 -1.32676,0.002 -2.65352,0.003 -3.98027,0.004 -1.19685,-0.001 -2.3937,-0.001 -3.59055,-1e-5 -1.03224,2.8e-4 -2.06455,-8.4e-4 -3.09675,0.009 0,0 2.43046,-1.76583 2.43046,-1.76583 z"
       inkscape:connector-curvature="0" />
  </g>
  <g
     inkscape:groupmode="layer"
     id="layer3"
     inkscape:label="Layer 3"
     transform="translate(0,-300)"
     style="display:inline"
     sodipodi:insensitive="true">
    <path
       style="fill:#d2d2d2;fill-opacity:1;fill-rule:evenodd;stroke:none;stroke-width:0.74792349px;stroke-linecap:butt;stroke-linejoin:miter;stroke-opacity:1"
       d="m 104.30849,508.58371 c 0,0 1.65835,0.76765 3.89951,1.07573 2.77902,0.50978 4.80541,0.48646 8.47135,-0.73956 17.11252,-8.75612 137.19925,-70.50995 164.51412,-85.58188 2.48272,-1.74562 4.87225,-4.59837 5.45216,-6.13476 0.57991,-1.53638 1.0742,-4.35917 1.0742,-4.35917"
       id="path4355"
       inkscape:connector-curvature="0" />
    <path
       id="path4298-5"
       style="fill:#000000;fill-opacity:1;fill-rule:evenodd;stroke:none;stroke-width:0.74792349px;stroke-linecap:butt;stroke-linejoin:miter;stroke-opacity:1"
       d="M 216.18403,380.77398 58.052255,448.00687 104.24126,508.38202 287.51814,412.81046 Z M 113.49228,491.96523 267.3437,414.30723 213.84039,388.5568 76.206836,447.44768 Z"
       inkscape:connector-curvature="0" />
  </g>
  <g
     style="display:inline"
     inkscape:label="Копия слоя Layer 7"
     id="g4417"
     inkscape:groupmode="layer"
     sodipodi:insensitive="true">
    <path
       sodipodi:nodetypes="cccc"
       inkscape:connector-curvature="0"
       d="m 216.18403,80.962234 c -2.29098,21.174276 -7.11019,64.798186 -8.39179,73.431496 l 79.72611,-41.58327 z"
       style="display:inline;fill:url(#linearGradient4451);fill-opacity:1;fill-rule:evenodd;stroke:none;stroke-width:0.74792349px;stroke-linecap:butt;stroke-linejoin:miter;stroke-opacity:1"
       id="path4419" />
  </g>
  <g
     inkscape:groupmode="layer"
     id="layer7"
     inkscape:label="Layer 7"
     style="display:inline"
     sodipodi:insensitive="true">
    <path
       id="path4298-5-0"
       style="display:inline;fill:url(#linearGradient4409);fill-opacity:1;fill-rule:evenodd;stroke:none;stroke-width:0.74792349px;stroke-linecap:butt;stroke-linejoin:miter;stroke-opacity:1"
       d="M 216.18403,80.773983 58.052255,148.00687 104.24126,208.38202 287.51814,112.81046 Z"
       inkscape:connector-curvature="0"
       sodipodi:nodetypes="ccccc" />
  </g>
  <g
     inkscape:groupmode="layer"
     id="layer4"
     inkscape:label="Layer 6"
     style="display:inline;opacity:0.98000004"
     sodipodi:insensitive="true">
    <path
       style="fill:#f6c3a8;fill-opacity:1;fill-rule:evenodd;stroke:none;stroke-width:1px;stroke-linecap:butt;stroke-linejoin:miter;stroke-opacity:1"
       d="m 129.54945,104.17512 c -1.00024,-5.0528 -2.91964,-6.700361 -6.27529,-7.926669 C 108.63529,91.598975 98.85453,89.682188 91.23721,88.982337 85.63165,88.840182 81.19713,87.902145 73.071926,96.578728 62.746906,105.39959 50.840469,120.69545 39.29048,125.02476 c -21.716925,6.94556 -42.181668,7.66715 -65.632194,8.54509 l 0,54.82613 c 20.250223,-6.82268 40.187959,-14.2257 63.413352,-15.52306 10.094845,0.35525 23.230458,-5.80542 36.330566,-11.89 2.058151,1.20356 3.87589,2.57886 8.917506,1.65138 4.89292,9.64937 9.37184,2.92236 13.54139,1.65139 5.17517,-1.10012 8.5932,-3.95736 12.55056,-6.27527 3.24648,-2.87648 6.99735,-5.62686 8.58722,-8.91751 2.48872,-1.83135 5.31164,-3.68118 6.7707,-8.25695 l 2.31195,-8.42208 3.46791,2.64221 c 5.53486,1.5151 11.52067,2.65771 10.89918,-3.30276 l -2.97251,-5.11932 c -1.61766,-3.64914 -1.77583,-6.7694 -3.46791,-9.08263 -0.60192,-5.30091 -2.11076,-9.38491 -4.45875,-13.37626 z"
       id="path4217"
       inkscape:connector-curvature="0"
       sodipodi:nodetypes="cccccccccccccccccccc" />
    <path
       style="fill:#c7714c;fill-opacity:1;fill-rule:evenodd;stroke:none;stroke-width:1px;stroke-linecap:butt;stroke-linejoin:miter;stroke-opacity:1"
       d="m 84.13623,100.04665 c 1.21465,7.88307 2.47939,10.70634 4.12848,13.37625 5.19346,0.79756 9.07671,-1.03862 12.55056,-3.96333 -1.96553,-3.14619 -3.48096,-7.04256 -4.12848,-12.385425 1.37616,1.029439 2.75232,5.448495 4.12848,0.495417 -0.21542,3.128968 -1.58914,6.692308 1.48625,8.587218 5.01195,3.52954 8.05373,2.33066 10.89917,0.66056 1.81652,-5.49113 3.63306,-5.56889 5.44958,-7.926666 -1.93357,4.281586 -4.1207,8.626566 -2.64222,12.055146 1.21407,2.85529 2.15272,6.35321 4.62389,6.27527 1.90557,-2.01325 3.9916,-3.7558 6.7707,-4.45875 -10.84561,8.52289 1.14333,13.8962 1.98167,20.80751 -5.42957,-3.41788 -6.25509,-7.98677 -8.4221,-12.22028 -4.06801,-4.0432 -4.84945,-6.44311 -6.44041,-9.24778 -3.75267,0.19907 -7.53932,0.12629 -11.72486,-3.13764 -3.60646,4.21074 -6.62748,8.61662 -14.03681,11.55973 l -2.9725,3.63305 -4.6239,-5.61472 c 1.25603,-4.70665 2.57009,-9.09407 2.9725,-18.49556 z"
       id="path4221"
       inkscape:connector-curvature="0"
       sodipodi:nodetypes="ccccccccccccccccccc" />
    <path
       style="fill:#c7714c;fill-opacity:1;fill-rule:evenodd;stroke:none;stroke-width:1px;stroke-linecap:butt;stroke-linejoin:miter;stroke-opacity:1"
       d="m 112.375,127.29457 c 0.78094,-2.16739 2.29525,-8.27862 3.46791,-11.22944 -2.01096,2.66444 -3.91214,5.65821 -6.7707,5.77986 -3.915,-0.64172 -6.47712,-4.14756 -6.44042,-11.39459 -1.1627,5.63216 -1.16199,13.00942 -5.61472,13.70653 5.01715,0.70534 9.16674,-1.48115 15.35793,3.13764 z"
       id="path4223"
       inkscape:connector-curvature="0"
       sodipodi:nodetypes="cccccc" />
    <path
       style="fill:#c7714c;fill-opacity:1;fill-rule:evenodd;stroke:none;stroke-width:1px;stroke-linecap:butt;stroke-linejoin:miter;stroke-opacity:1"
       d="m 84.63165,155.53333 c -0.11231,6.12146 1.3685,10.94632 6.93584,11.39459 -1.58755,1.03481 -3.26042,1.64302 -5.28445,0.49541 -6.421246,-6.22394 -4.18417,-9.81077 -1.65139,-11.89 z"
       id="path4227"
       inkscape:connector-curvature="0"
       sodipodi:nodetypes="cccc" />
    <path
       style="fill:#c7714c;fill-opacity:1;fill-rule:evenodd;stroke:none;stroke-width:1px;stroke-linecap:butt;stroke-linejoin:miter;stroke-opacity:1"
       d="m 113.20069,142.81763 c -3.60104,0.12208 -8.28433,0.33064 -10.5689,3.96333 0.75009,6.18018 3.90291,8.03545 6.77071,10.40376 -3.01076,1.22406 -5.45945,0.0522 -7.43126,-2.64222 -2.23719,-2.89979 -0.48012,-6.06274 -1.32111,-9.08264 1.03886,-1.58034 1.68426,-3.29183 3.96333,-4.45875 z"
       id="path4231"
       inkscape:connector-curvature="0"
       sodipodi:nodetypes="ccccccc" />
    <path
       style="fill:#c7714c;fill-opacity:1;fill-rule:evenodd;stroke:none;stroke-width:1px;stroke-linecap:butt;stroke-linejoin:miter;stroke-opacity:1"
       d="m 39.218444,162.96457 c 27.068451,-4.80433 33.21006,-16.77847 48.550846,-25.10111 0.33578,3.50923 3.63666,-4.1828 4.84084,-2.84458 2.49233,-0.67748 5.86104,5.85714 3.58125,3.17486 -0.14241,0 -1.41007,6.8509 -4.07111,8.60097 -1.92782,0.58237 -4.23506,0.49921 -7.04216,2.15937 -3.41793,0.65179 -7.178795,2.12926 -10.354794,3.27647 -3.668504,3.59446 -2.7229,6.35 -1.651391,9.08264 -12.317342,7.51424 -21.929161,10.44413 -32.036954,11.22945 -26.248433,2.77366 -46.174916,11.07901 -69.193213,16.67903 l -1.486251,-12.88083 c 28.530817,-4.81499 57.808428,-2.59322 85.541969,-11.39459 1.007869,-1.57215 4.942136,-3.83037 -5.119306,-2.80737 z"
       id="path4234"
       inkscape:connector-curvature="0"
       sodipodi:nodetypes="cccccccccccccc" />
    <path
       style="fill:#f9d6ca;fill-opacity:1;fill-rule:evenodd;stroke:none;stroke-width:1px;stroke-linecap:butt;stroke-linejoin:miter;stroke-opacity:1"
       d="m 100.15471,153.22138 -2.59323,3.81805 c -5.49759,-4.14003 -6.93075,-0.16707 -9.68735,0.77671 -0.93212,-0.38959 -1.9989,-0.44252 -2.0865,-2.94337 2.5686,-3.74447 5.59164,-4.76239 8.58722,-5.945 3.18943,0.16839 6.45161,0.26404 5.77986,4.29361 z"
       id="path4259"
       inkscape:connector-curvature="0"
       sodipodi:nodetypes="cccccc" />
    <path
       style="fill:#f9d6ca;fill-opacity:1;fill-rule:evenodd;stroke:none;stroke-width:1px;stroke-linecap:butt;stroke-linejoin:miter;stroke-opacity:1"
       d="m 76.044424,158.01042 c -0.865683,-4.35633 4.787773,-4.63738 8.256956,-3.79821 3.91677,-1.28344 3.09882,-2.87371 1.81652,-3.63304 -4.56468,0.16215 -5.965982,0.27448 -9.082643,1.98166 -3.361954,2.42287 -1.855358,3.87202 -0.990833,5.44959 z"
       id="path4262"
       inkscape:connector-curvature="0"
       sodipodi:nodetypes="ccccc" />
    <path
       style="fill:#f9d6ca;fill-opacity:1;fill-rule:evenodd;stroke:none;stroke-width:1px;stroke-linecap:butt;stroke-linejoin:miter;stroke-opacity:1"
       d="m 112.375,145.62499 c -3.87696,-0.0626 -3.734,3.20977 -3.30279,5.61472 -1.55409,0.10236 -2.80312,0.40655 -3.63305,-3.96333 -0.62538,-2.92484 2.23977,-3.06798 4.29361,-3.30278 2.09616,-0.23611 2.97691,0.91157 2.64223,1.65139 z"
       id="path4266"
       inkscape:connector-curvature="0"
       sodipodi:nodetypes="ccccc" />
    <path
       style="fill:#f9d6ca;fill-opacity:1;fill-rule:evenodd;stroke:none;stroke-width:1px;stroke-linecap:butt;stroke-linejoin:miter;stroke-opacity:1"
       d="m 43.416743,132.38619 c -34.540482,12.48683 -54.198359,31.37879 -66.385852,23.94513 -4.662892,-3.41467 -14.437006,-9.49285 -5.04506,-18.87017 21.050773,-3.08085 51.211642,-4.30387 71.835438,-12.50844 1.56593,3.73026 -6.258462,6.14559 -0.404526,7.43348 z"
       id="path4278"
       inkscape:connector-curvature="0"
       sodipodi:nodetypes="ccccc" />
    <path
       style="fill:#f9d6ca;fill-opacity:1;fill-rule:evenodd;stroke:none;stroke-width:1px;stroke-linecap:butt;stroke-linejoin:miter;stroke-opacity:1"
       d="m 99.37012,95.597904 c -1.7456,-1.720702 -9.82859,-0.877435 -15.2194,1.782724 -5.647298,2.786722 -8.635913,7.476342 -11.637895,9.193732 1.108725,-5.59871 1.742707,-11.978448 10.042295,-15.180208 6.14288,-1.084378 15.26637,-3.423092 16.815,4.203752 z"
       id="path4282"
       inkscape:connector-curvature="0"
       sodipodi:nodetypes="csccc" />
    <path
       style="fill:#f9d6ca;fill-opacity:1;fill-rule:evenodd;stroke:none;stroke-width:1px;stroke-linecap:butt;stroke-linejoin:miter;stroke-opacity:1"
       d="m 131.1318,121.52103 c 1.10895,4.4373 2.64083,8.87459 5.605,13.31188 l 3.50312,-2.10187 c -2.04707,-2.77945 -3.46246,-6.1906 -4.90437,-9.57521 -3.6643,-5.07103 -3.45941,-2.40368 -4.20375,-1.6348 z"
       id="path4284"
       inkscape:connector-curvature="0"
       sodipodi:nodetypes="ccccc" />
    <path
       style="fill:#f9d6ca;fill-opacity:1;fill-rule:evenodd;stroke:none;stroke-width:1px;stroke-linecap:butt;stroke-linejoin:miter;stroke-opacity:1"
       d="m 124.12555,105.87374 c -0.86575,-4.50256 -4.99955,-7.528076 -7.70688,-9.575211 2.72466,-0.917546 7.08409,1.584688 9.80875,3.736671 1.65123,3.51408 -0.0799,4.77331 -2.10187,5.83854 z"
       id="path4286"
       inkscape:connector-curvature="0"
       sodipodi:nodetypes="cccc" />
    <path
       style="fill:#c7714c;fill-opacity:1;fill-rule:evenodd;stroke:none;stroke-width:1px;stroke-linecap:butt;stroke-linejoin:miter;stroke-opacity:1"
       d="m 97.32663,161.04797 c -2.27611,-6.52056 -6.55131,-2.64592 -10.27583,-1.63479 3.49382,-3.44659 5.68044,-3.92228 7.47333,-3.50313 2.46265,0.87212 3.51823,2.51799 2.8025,5.13792 z"
       id="path4288"
       inkscape:connector-curvature="0"
       sodipodi:nodetypes="cccc" />
    <path
       style="fill:#c7714c;fill-opacity:1;fill-rule:evenodd;stroke:none;stroke-width:1px;stroke-linecap:butt;stroke-linejoin:miter;stroke-opacity:1"
       d="m 76.541419,156.1436 c 0.921444,-1.95328 2.824912,-2.14512 4.845991,-2.04349 2.9188,0.39793 2.87278,0.43116 2.68573,1.51802 -2.88034,-0.70537 -4.47622,-0.47388 -7.531721,0.52547 z"
       id="path4292"
       inkscape:connector-curvature="0"
       sodipodi:nodetypes="cccc" />
    <path
       style="fill:#c7714c;fill-opacity:1;fill-rule:evenodd;stroke:none;stroke-width:1px;stroke-linecap:butt;stroke-linejoin:miter;stroke-opacity:1"
       d="m 115.60127,149.77958 c -1.51239,-5.16894 -4.28369,-2.37437 -5.83854,-1.45963 0.16055,-2.38712 3.04264,-3.06103 4.37891,-3.09443 1.40613,0.17933 1.72654,2.65522 1.45963,4.55406 z"
       id="path4294"
       inkscape:connector-curvature="0"
       sodipodi:nodetypes="cccc" />
  </g>
  <g
     inkscape:groupmode="layer"
     id="layer2"
     inkscape:label="Layer 2"
     transform="translate(0,-300)"
     style="display:inline"
     sodipodi:insensitive="true">
    <path
       style="fill:url(#linearGradient4370);fill-opacity:1;fill-rule:evenodd;stroke:none;stroke-width:1px;stroke-linecap:butt;stroke-linejoin:miter;stroke-opacity:1"
       d="m 48.423851,385.87979 106.428589,54.28571 8.21429,8.57143 -11.42858,-2.14285 -106.785729,-54.64286 c 0.14139,-3.23844 0.8729,-4.53058 3.57143,-6.07143 z"
       id="path4295"
       inkscape:connector-curvature="0"
       sodipodi:nodetypes="cccccc" />
    <path
       style="fill:none;fill-rule:evenodd;stroke:none;stroke-width:1px;stroke-linecap:butt;stroke-linejoin:miter;stroke-opacity:1"
       d="m 163.55734,437.65675 c 0.2429,1.54922 -1.2042,3.82976 -2.76785,4.64286"
       id="path4349"
       inkscape:connector-curvature="0"
       sodipodi:nodetypes="cc" />
    <path
       style="fill:none;fill-rule:evenodd;stroke:none;stroke-width:1px;stroke-linecap:butt;stroke-linejoin:miter;stroke-opacity:1"
       d="m 54.486276,388.6801 c 2.47358,-0.51397 3.89259,-3.22275 3.21986,-5.6821"
       id="path4351"
       inkscape:connector-curvature="0"
       sodipodi:nodetypes="cc" />
  </g>
  <g
     inkscape:groupmode="layer"
     id="layer6"
     inkscape:label="Layer 8"
     style="display:inline"
     sodipodi:insensitive="true">
    <path
       style="fill:#f6c3a8;fill-opacity:1;fill-rule:evenodd;stroke:none;stroke-width:1px;stroke-linecap:butt;stroke-linejoin:miter;stroke-opacity:1"
       d="m 125.25583,142.32221 c 5.96548,-3.07135 9.71368,-6.93458 3.46792,-14.36708 -5.44339,-1.92559 -7.17933,-3.2608 -15.19278,-5.61473 -4.97715,-0.93099 -11.10722,-2.04233 -16.5139,-0.82569 l -19.651529,-4.12848 -15.357924,-2.80735 c -7.390468,0.30462 -17.03922,-0.35259 -11.559725,22.62402 3.537003,6.92268 8.003074,12.97436 18.49556,13.37627 8.852395,-5.56566 17.642378,-12.19211 26.917648,-10.5689 9.64131,1.1937 18.15321,5.43207 29.39473,2.31194 z"
       id="path4251"
       inkscape:connector-curvature="0"
       sodipodi:nodetypes="cccccccccc" />
    <path
       style="fill:#c6714c;fill-opacity:1;fill-rule:evenodd;stroke:none;stroke-width:1px;stroke-linecap:butt;stroke-linejoin:miter;stroke-opacity:1"
       d="m 94.87027,124.81749 c -0.84389,5.28779 -5.34387,12.81911 1.98167,13.21111 -1.29263,-10.79379 2.19031,-10.84255 4.12846,-14.36709 -5.45872,13.43181 -2.46654,15.16158 1.15598,16.01848 9.64726,0.50437 19.56547,4.53101 28.81975,-0.0735 -3.03591,1.82716 -2.84998,4.37028 -17.09488,3.70656 -8.07904,-1.21639 -19.50135,-3.81364 -23.2846,-3.46792 -0.0101,-9.76948 2.19879,-12.21017 4.29362,-15.02764 z"
       id="path4253"
       inkscape:connector-curvature="0"
       sodipodi:nodetypes="cccccccc" />
    <path
       style="fill:#c6714c;fill-opacity:1;fill-rule:evenodd;stroke:none;stroke-width:1px;stroke-linecap:butt;stroke-linejoin:miter;stroke-opacity:1"
       d="m 64.980118,133.40471 c 3.336382,5.43671 5.563979,12.10541 16.513892,9.08265 l -11.890002,7.92666 c -9.642429,-4.98524 -10.699433,-5.12004 -11.724864,-11.89 3.470528,6.95091 8.904196,11.27259 15.853338,6.44041 -4.867101,-0.0289 -9.922562,-4.54839 -8.752364,-11.55972 z"
       id="path4255"
       inkscape:connector-curvature="0"
       sodipodi:nodetypes="cccccc" />
    <path
       style="fill:#c6714c;fill-opacity:1;fill-rule:evenodd;stroke:none;stroke-width:1px;stroke-linecap:butt;stroke-linejoin:miter;stroke-opacity:1"
       d="m 116.17319,136.54235 c 0.6911,-2.52607 -0.23679,-8.78558 1.65138,-8.91751 2.51945,-0.43186 6.44308,1.24254 9.7432,1.98167 -3.34006,-1.95325 -6.05359,-3.44265 -10.23861,-4.12847 -3.54896,3.6881 -0.82296,7.37621 -1.15597,11.06431 z"
       id="path4257"
       inkscape:connector-curvature="0"
       sodipodi:nodetypes="ccccc" />
    <path
       style="fill:#f9d6ca;fill-opacity:1;fill-rule:evenodd;stroke:none;stroke-width:1px;stroke-linecap:butt;stroke-linejoin:miter;stroke-opacity:1"
       d="m 83.80595,124.65234 c -1.82633,-0.43994 1.67599,-3.16844 -0.0936,-4.70616 -2.37479,-2.06359 -8.393781,0.4592 -12.318173,-1.42578 -4.745882,-2.10069 -6.166998,-2.50263 -13.469882,-1.95938 -7.341248,0.90497 -11.188034,18.00916 -0.328314,11.50039 11.27584,-6.30878 23.004003,-5.2713 26.209999,-3.40907 z"
       id="path4270"
       inkscape:connector-curvature="0"
       sodipodi:nodetypes="csccccc" />
    <path
       style="fill:#f9d6ca;fill-opacity:1;fill-rule:evenodd;stroke:none;stroke-width:1px;stroke-linecap:butt;stroke-linejoin:miter;stroke-opacity:1"
       d="m 113.20069,127.29457 c -3.35783,0.24411 -7.87163,-0.24295 -11.22945,1.98167 -1.24186,-0.64424 -1.09279,-2.15982 -0.16514,-6.27528 3.30278,-0.85832 6.60556,-0.78769 9.90834,0.99083 2.35021,1.10093 3.09607,2.20185 1.48625,3.30278 z"
       id="path4272"
       inkscape:connector-curvature="0"
       sodipodi:nodetypes="ccccc" />
    <path
       style="fill:#f9d6ca;fill-opacity:1;fill-rule:evenodd;stroke:none;stroke-width:1px;stroke-linecap:butt;stroke-linejoin:miter;stroke-opacity:1"
       d="m 115.70385,136.54222 c 4.00694,2.91027 7.30677,1.65974 11.3137,1.59099 -2.51878,2.05662 -2.63072,1.92934 -10.42982,1.23744 z"
       id="path4296"
       inkscape:connector-curvature="0"
       sodipodi:nodetypes="cccc" />
  </g>
</svg>
